solid OpenSCAD_Model
  facet normal 0.6845471059286887 0.7289686274214113 0
    outer loop
      vertex -2.369148039119588 -2.224778094268238 0
      vertex -2.369148039119588 -2.224778094268238 63
      vertex -2.0716279666832413 -2.5041680390213155 0
    endloop
  endfacet
  facet normal 0.7705132427757897 0.6374239897486891 0
    outer loop
      vertex -2.369148039119588 -2.224778094268238 0
      vertex -2.629305231718579 -1.9103020699505378 0
      vertex -2.629305231718579 -1.9103020699505378 63
    endloop
  endfacet
  facet normal 0.5877852522924725 0.8090169943749478 0
    outer loop
      vertex -1.7414370836817394 -2.7440657578815486 0
      vertex -2.0716279666832413 -2.5041680390213155 0
      vertex -2.0716279666832413 -2.5041680390213155 63
    endloop
  endfacet
  facet normal 0.9510565162951536 0.3090169943749472 0
    outer loop
      vertex -3.021773579136817 -1.1964047962252031 0
      vertex -3.147895273668051 -0.8082421332857783 0
      vertex -3.147895273668051 -0.8082421332857783 63
    endloop
  endfacet
  facet normal 0.9048270524660194 0.42577929156507277 0
    outer loop
      vertex -2.8479967101425565 -1.5656994408305749 0
      vertex -3.021773579136817 -1.1964047962252031 0
      vertex -3.021773579136817 -1.1964047962252031 63
    endloop
  endfacet
  facet normal 0.844327925502015 0.5358267949789968 0
    outer loop
      vertex -2.8479967101425565 -1.5656994408305749 63
      vertex -2.629305231718579 -1.9103020699505378 0
      vertex -2.8479967101425565 -1.5656994408305749 0
    endloop
  endfacet
  facet normal 0.9822872507286887 0.1873813145857245 0
    outer loop
      vertex -3.147895273668051 -0.8082421332857783 0
      vertex -3.224372779272053 -0.40733300908398823 0
      vertex -3.224372779272053 -0.40733300908398823 63
    endloop
  endfacet
  facet normal 0.9980267284282716 0.06279051952931358 0
    outer loop
      vertex -3.224372779272053 -0.40733300908398823 0
      vertex -3.25 0 0
      vertex -3.25 0 63
    endloop
  endfacet
  facet normal 0.4817536741017155 0.8763066800438635 0
    outer loop
      vertex -1.7414370836817394 -2.7440657578815486 63
      vertex -1.3837826975864855 -2.9406879205145637 0
      vertex -1.7414370836817394 -2.7440657578815486 0
    endloop
  endfacet
  facet normal 0.36812455268467736 0.9297764858882518 0
    outer loop
      vertex -1.004305231718579 -3.090933677959249 0
      vertex -1.3837826975864855 -2.9406879205145637 0
      vertex -1.3837826975864855 -2.9406879205145637 63
    endloop
  endfacet
  facet normal 0.24868988716485482 0.9685831611286312 0
    outer loop
      vertex -1.004305231718579 -3.090933677959249 0
      vertex -1.004305231718579 -3.090933677959249 63
      vertex -0.6089892724036057 -3.192433564868238 0
    endloop
  endfacet
  facet normal 0.12533323356430498 0.9921147013144778 0
    outer loop
      vertex -0.20406918847026972 -3.2435868673918824 0
      vertex -0.6089892724036057 -3.192433564868238 0
      vertex -0.6089892724036057 -3.192433564868238 63
    endloop
  endfacet
  facet normal 0 1 0
    outer loop
      vertex -0.20406918847026972 -3.2435868673918824 63
      vertex 0.20406918847026972 -3.2435868673918824 0
      vertex -0.20406918847026972 -3.2435868673918824 0
    endloop
  endfacet
  facet normal 0.844327925502015 0.5358267949789968 0
    outer loop
      vertex -2.8479967101425565 -1.5656994408305749 63
      vertex -2.629305231718579 -1.9103020699505378 63
      vertex -2.629305231718579 -1.9103020699505378 0
    endloop
  endfacet
  facet normal 0.5877852522924725 0.8090169943749478 0
    outer loop
      vertex -1.7414370836817394 -2.7440657578815486 0
      vertex -2.0716279666832413 -2.5041680390213155 63
      vertex -1.7414370836817394 -2.7440657578815486 63
    endloop
  endfacet
  facet normal 0.7705132427757897 0.6374239897486891 0
    outer loop
      vertex -2.629305231718579 -1.9103020699505378 63
      vertex -2.369148039119588 -2.224778094268238 63
      vertex -2.369148039119588 -2.224778094268238 0
    endloop
  endfacet
  facet normal 0.6845471059286887 0.7289686274214113 0
    outer loop
      vertex -2.0716279666832413 -2.5041680390213155 63
      vertex -2.0716279666832413 -2.5041680390213155 0
      vertex -2.369148039119588 -2.224778094268238 63
    endloop
  endfacet
  facet normal 0.9510565162951536 0.3090169943749472 0
    outer loop
      vertex -3.021773579136817 -1.1964047962252031 0
      vertex -3.147895273668051 -0.8082421332857783 63
      vertex -3.021773579136817 -1.1964047962252031 63
    endloop
  endfacet
  facet normal 0.9048270524660194 0.42577929156507277 0
    outer loop
      vertex -3.021773579136817 -1.1964047962252031 63
      vertex -2.8479967101425565 -1.5656994408305749 63
      vertex -2.8479967101425565 -1.5656994408305749 0
    endloop
  endfacet
  facet normal 0.9822872507286887 0.1873813145857245 0
    outer loop
      vertex -3.147895273668051 -0.8082421332857783 0
      vertex -3.224372779272053 -0.40733300908398823 63
      vertex -3.147895273668051 -0.8082421332857783 63
    endloop
  endfacet
  facet normal 0.9980267284282716 0.06279051952931358 0
    outer loop
      vertex -3.224372779272053 -0.40733300908398823 0
      vertex -3.25 0 63
      vertex -3.224372779272053 -0.40733300908398823 63
    endloop
  endfacet
  facet normal 0.4817536741017155 0.8763066800438635 0
    outer loop
      vertex -1.3837826975864855 -2.9406879205145637 0
      vertex -1.7414370836817394 -2.7440657578815486 63
      vertex -1.3837826975864855 -2.9406879205145637 63
    endloop
  endfacet
  facet normal 0.36812455268467736 0.9297764858882518 0
    outer loop
      vertex -1.004305231718579 -3.090933677959249 0
      vertex -1.3837826975864855 -2.9406879205145637 63
      vertex -1.004305231718579 -3.090933677959249 63
    endloop
  endfacet
  facet normal 0.24868988716485482 0.9685831611286312 0
    outer loop
      vertex -1.004305231718579 -3.090933677959249 63
      vertex -0.6089892724036057 -3.192433564868238 63
      vertex -0.6089892724036057 -3.192433564868238 0
    endloop
  endfacet
  facet normal 0.12533323356430498 0.9921147013144778 0
    outer loop
      vertex -0.20406918847026972 -3.2435868673918824 0
      vertex -0.6089892724036057 -3.192433564868238 63
      vertex -0.20406918847026972 -3.2435868673918824 63
    endloop
  endfacet
  facet normal 0.9980267284282716 -0.06279051952931358 0
    outer loop
      vertex -3.25 0 0
      vertex -3.224372779272053 0.40733300908398823 0
      vertex -3.224372779272053 0.40733300908398823 63
    endloop
  endfacet
  facet normal 0.9822872507286887 -0.1873813145857245 0
    outer loop
      vertex -3.224372779272053 0.40733300908398823 0
      vertex -3.147895273668051 0.8082421332857783 0
      vertex -3.147895273668051 0.8082421332857783 63
    endloop
  endfacet
  facet normal 0.9510565162951536 -0.3090169943749472 0
    outer loop
      vertex -3.147895273668051 0.8082421332857783 0
      vertex -3.021773579136817 1.1964047962252031 0
      vertex -3.021773579136817 1.1964047962252031 63
    endloop
  endfacet
  facet normal 0.9048270524660194 -0.42577929156507277 0
    outer loop
      vertex -2.8479967101425565 1.5656994408305749 63
      vertex -3.021773579136817 1.1964047962252031 0
      vertex -2.8479967101425565 1.5656994408305749 0
    endloop
  endfacet
  facet normal 0.844327925502015 -0.5358267949789968 0
    outer loop
      vertex -2.8479967101425565 1.5656994408305749 0
      vertex -2.629305231718579 1.9103020699505378 0
      vertex -2.629305231718579 1.9103020699505378 63
    endloop
  endfacet
  facet normal 0.7705132427757897 -0.6374239897486891 0
    outer loop
      vertex -2.629305231718579 1.9103020699505378 0
      vertex -2.369148039119588 2.224778094268238 0
      vertex -2.369148039119588 2.224778094268238 63
    endloop
  endfacet
  facet normal 0.6845471059286887 -0.7289686274214113 0
    outer loop
      vertex -2.369148039119588 2.224778094268238 0
      vertex -2.0716279666832413 2.5041680390213155 0
      vertex -2.0716279666832413 2.5041680390213155 63
    endloop
  endfacet
  facet normal 0.5877852522924725 -0.8090169943749478 0
    outer loop
      vertex -1.7414370836817394 2.7440657578815486 0
      vertex -1.7414370836817394 2.7440657578815486 63
      vertex -2.0716279666832413 2.5041680390213155 0
    endloop
  endfacet
  facet normal 0.4817536741017156 -0.8763066800438635 0
    outer loop
      vertex -1.3837826975864864 2.9406879205145633 0
      vertex -1.3837826975864864 2.9406879205145633 63
      vertex -1.7414370836817394 2.7440657578815486 0
    endloop
  endfacet
  facet normal 0.3681245526846774 -0.9297764858882515 0
    outer loop
      vertex -1.004305231718579 3.090933677959249 63
      vertex -1.3837826975864864 2.9406879205145633 0
      vertex -1.004305231718579 3.090933677959249 0
    endloop
  endfacet
  facet normal 0.24868988716485538 -0.968583161128631 0
    outer loop
      vertex -1.004305231718579 3.090933677959249 0
      vertex -0.6089892724036049 3.1924335648682383 0
      vertex -0.6089892724036049 3.1924335648682383 63
    endloop
  endfacet
  facet normal 0.12533323356430365 -0.992114701314478 -1.7669567194134906e-18
    outer loop
      vertex -0.20406918847026725 3.2435868673918824 63
      vertex -0.6089892724036049 3.1924335648682383 0
      vertex -0.20406918847026814 3.2435868673918824 0
    endloop
  endfacet
  facet normal 0.9980267284282716 -0.06279051952931358 0
    outer loop
      vertex -3.25 0 0
      vertex -3.224372779272053 0.40733300908398823 63
      vertex -3.25 0 63
    endloop
  endfacet
  facet normal 0.9822872507286887 -0.1873813145857245 0
    outer loop
      vertex -3.224372779272053 0.40733300908398823 0
      vertex -3.147895273668051 0.8082421332857783 63
      vertex -3.224372779272053 0.40733300908398823 63
    endloop
  endfacet
  facet normal 0.9510565162951536 -0.3090169943749472 0
    outer loop
      vertex -3.147895273668051 0.8082421332857783 0
      vertex -3.021773579136817 1.1964047962252031 63
      vertex -3.147895273668051 0.8082421332857783 63
    endloop
  endfacet
  facet normal 0.9048270524660194 -0.42577929156507277 0
    outer loop
      vertex -2.8479967101425565 1.5656994408305749 63
      vertex -3.021773579136817 1.1964047962252031 63
      vertex -3.021773579136817 1.1964047962252031 0
    endloop
  endfacet
  facet normal 0.844327925502015 -0.5358267949789968 0
    outer loop
      vertex -2.629305231718579 1.9103020699505378 63
      vertex -2.8479967101425565 1.5656994408305749 63
      vertex -2.8479967101425565 1.5656994408305749 0
    endloop
  endfacet
  facet normal 0.7705132427757897 -0.6374239897486891 0
    outer loop
      vertex -2.629305231718579 1.9103020699505378 0
      vertex -2.369148039119588 2.224778094268238 63
      vertex -2.629305231718579 1.9103020699505378 63
    endloop
  endfacet
  facet normal 0.6845471059286887 -0.7289686274214113 0
    outer loop
      vertex -2.369148039119588 2.224778094268238 0
      vertex -2.0716279666832413 2.5041680390213155 63
      vertex -2.369148039119588 2.224778094268238 63
    endloop
  endfacet
  facet normal 0.5877852522924725 -0.8090169943749478 0
    outer loop
      vertex -2.0716279666832413 2.5041680390213155 63
      vertex -2.0716279666832413 2.5041680390213155 0
      vertex -1.7414370836817394 2.7440657578815486 63
    endloop
  endfacet
  facet normal 0.4817536741017156 -0.8763066800438635 0
    outer loop
      vertex -1.7414370836817394 2.7440657578815486 0
      vertex -1.3837826975864864 2.9406879205145633 63
      vertex -1.7414370836817394 2.7440657578815486 63
    endloop
  endfacet
  facet normal 0.3681245526846774 -0.9297764858882515 0
    outer loop
      vertex -1.3837826975864864 2.9406879205145633 0
      vertex -1.004305231718579 3.090933677959249 63
      vertex -1.3837826975864864 2.9406879205145633 63
    endloop
  endfacet
  facet normal 0.24868988716485538 -0.968583161128631 0
    outer loop
      vertex -1.004305231718579 3.090933677959249 0
      vertex -0.6089892724036049 3.1924335648682383 63
      vertex -1.004305231718579 3.090933677959249 63
    endloop
  endfacet
  facet normal 0.12533323356430337 -0.992114701314478 0
    outer loop
      vertex -0.6089892724036049 3.1924335648682383 0
      vertex -0.20406918847026725 3.2435868673918824 63
      vertex -0.6089892724036049 3.1924335648682383 63
    endloop
  endfacet
  facet normal 0 -1 0
    outer loop
      vertex -0.20406918847026725 3.2435868673918824 63
      vertex -0.20406918847026814 3.2435868673918824 0
      vertex 0.20406918847026814 3.2435868673918824 63
    endloop
  endfacet
  facet normal -0.12533323356430498 0.9921147013144778 0
    outer loop
      vertex 0.20406918847026972 -3.2435868673918824 63
      vertex 0.6089892724036057 -3.192433564868238 0
      vertex 0.20406918847026972 -3.2435868673918824 0
    endloop
  endfacet
  facet normal -0.24868988716485482 0.9685831611286312 0
    outer loop
      vertex 1.004305231718579 -3.090933677959249 0
      vertex 0.6089892724036057 -3.192433564868238 0
      vertex 0.6089892724036057 -3.192433564868238 63
    endloop
  endfacet
  facet normal -0.36812455268467736 0.9297764858882518 0
    outer loop
      vertex 1.004305231718579 -3.090933677959249 63
      vertex 1.3837826975864855 -2.9406879205145637 0
      vertex 1.004305231718579 -3.090933677959249 0
    endloop
  endfacet
  facet normal -0.4817536741017157 0.8763066800438635 0
    outer loop
      vertex 1.3837826975864855 -2.9406879205145637 63
      vertex 1.7414370836817377 -2.7440657578815495 0
      vertex 1.3837826975864855 -2.9406879205145637 0
    endloop
  endfacet
  facet normal -0.5877852522924729 0.8090169943749476 0
    outer loop
      vertex 1.7414370836817377 -2.7440657578815495 0
      vertex 1.7414370836817377 -2.7440657578815495 63
      vertex 2.0716279666832422 -2.504168039021314 0
    endloop
  endfacet
  facet normal -0.6845471059286882 0.7289686274214121 0
    outer loop
      vertex 2.369148039119588 -2.224778094268238 0
      vertex 2.0716279666832422 -2.504168039021314 0
      vertex 2.0716279666832422 -2.504168039021314 63
    endloop
  endfacet
  facet normal -0.7705132427757897 0.6374239897486891 0
    outer loop
      vertex 2.629305231718579 -1.9103020699505378 0
      vertex 2.369148039119588 -2.224778094268238 0
      vertex 2.369148039119588 -2.224778094268238 63
    endloop
  endfacet
  facet normal -0.844327925502015 0.5358267949789968 0
    outer loop
      vertex 2.8479967101425565 -1.5656994408305749 0
      vertex 2.629305231718579 -1.9103020699505378 0
      vertex 2.629305231718579 -1.9103020699505378 63
    endloop
  endfacet
  facet normal -0.9048270524660196 0.4257792915650725 0
    outer loop
      vertex 3.0217735791368163 -1.1964047962252047 0
      vertex 2.8479967101425565 -1.5656994408305749 0
      vertex 2.8479967101425565 -1.5656994408305749 63
    endloop
  endfacet
  facet normal -0.9510565162951535 0.30901699437494795 0
    outer loop
      vertex 3.0217735791368163 -1.1964047962252047 63
      vertex 3.1478952736680514 -0.8082421332857769 0
      vertex 3.0217735791368163 -1.1964047962252047 0
    endloop
  endfacet
  facet normal -0.9822872507286888 0.18738131458572407 0
    outer loop
      vertex 3.1478952736680514 -0.8082421332857769 63
      vertex 3.224372779272053 -0.40733300908398823 0
      vertex 3.1478952736680514 -0.8082421332857769 0
    endloop
  endfacet
  facet normal -0.9980267284282716 0.06279051952931358 0
    outer loop
      vertex 3.224372779272053 -0.40733300908398823 0
      vertex 3.224372779272053 -0.40733300908398823 63
      vertex 3.25 0 0
    endloop
  endfacet
  facet normal 0 1 0
    outer loop
      vertex -0.20406918847026972 -3.2435868673918824 63
      vertex 0.20406918847026972 -3.2435868673918824 63
      vertex 0.20406918847026972 -3.2435868673918824 0
    endloop
  endfacet
  facet normal -0.12533323356430498 0.9921147013144778 0
    outer loop
      vertex 0.6089892724036057 -3.192433564868238 63
      vertex 0.6089892724036057 -3.192433564868238 0
      vertex 0.20406918847026972 -3.2435868673918824 63
    endloop
  endfacet
  facet normal -0.24868988716485482 0.9685831611286312 0
    outer loop
      vertex 1.004305231718579 -3.090933677959249 0
      vertex 0.6089892724036057 -3.192433564868238 63
      vertex 1.004305231718579 -3.090933677959249 63
    endloop
  endfacet
  facet normal -0.36812455268467736 0.9297764858882518 0
    outer loop
      vertex 1.3837826975864855 -2.9406879205145637 63
      vertex 1.3837826975864855 -2.9406879205145637 0
      vertex 1.004305231718579 -3.090933677959249 63
    endloop
  endfacet
  facet normal -0.4817536741017157 0.8763066800438635 0
    outer loop
      vertex 1.7414370836817377 -2.7440657578815495 0
      vertex 1.3837826975864855 -2.9406879205145637 63
      vertex 1.7414370836817377 -2.7440657578815495 63
    endloop
  endfacet
  facet normal -0.5877852522924729 0.8090169943749476 0
    outer loop
      vertex 2.0716279666832422 -2.504168039021314 0
      vertex 1.7414370836817377 -2.7440657578815495 63
      vertex 2.0716279666832422 -2.504168039021314 63
    endloop
  endfacet
  facet normal -0.6845471059286882 0.7289686274214121 0
    outer loop
      vertex 2.369148039119588 -2.224778094268238 63
      vertex 2.369148039119588 -2.224778094268238 0
      vertex 2.0716279666832422 -2.504168039021314 63
    endloop
  endfacet
  facet normal -0.7705132427757897 0.6374239897486891 0
    outer loop
      vertex 2.629305231718579 -1.9103020699505378 0
      vertex 2.369148039119588 -2.224778094268238 63
      vertex 2.629305231718579 -1.9103020699505378 63
    endloop
  endfacet
  facet normal -0.844327925502015 0.5358267949789968 0
    outer loop
      vertex 2.629305231718579 -1.9103020699505378 63
      vertex 2.8479967101425565 -1.5656994408305749 63
      vertex 2.8479967101425565 -1.5656994408305749 0
    endloop
  endfacet
  facet normal -0.9048270524660196 0.4257792915650725 0
    outer loop
      vertex 2.8479967101425565 -1.5656994408305749 63
      vertex 3.0217735791368163 -1.1964047962252047 63
      vertex 3.0217735791368163 -1.1964047962252047 0
    endloop
  endfacet
  facet normal -0.9510565162951535 0.30901699437494795 0
    outer loop
      vertex 3.0217735791368163 -1.1964047962252047 63
      vertex 3.1478952736680514 -0.8082421332857769 63
      vertex 3.1478952736680514 -0.8082421332857769 0
    endloop
  endfacet
  facet normal -0.9822872507286888 0.18738131458572407 0
    outer loop
      vertex 3.1478952736680514 -0.8082421332857769 63
      vertex 3.224372779272053 -0.40733300908398823 63
      vertex 3.224372779272053 -0.40733300908398823 0
    endloop
  endfacet
  facet normal -0.9980267284282716 0.06279051952931358 0
    outer loop
      vertex 3.224372779272053 -0.40733300908398823 63
      vertex 3.25 0 63
      vertex 3.25 0 0
    endloop
  endfacet
  facet normal 0 -1 0
    outer loop
      vertex -0.20406918847026814 3.2435868673918824 0
      vertex 0.20406918847026725 3.2435868673918824 0
      vertex 0.20406918847026814 3.2435868673918824 63
    endloop
  endfacet
  facet normal -0.12533323356430337 -0.992114701314478 0
    outer loop
      vertex 0.20406918847026725 3.2435868673918824 0
      vertex 0.6089892724036049 3.1924335648682383 0
      vertex 0.6089892724036049 3.1924335648682383 63
    endloop
  endfacet
  facet normal -0.24868988716485538 -0.968583161128631 0
    outer loop
      vertex 1.004305231718579 3.090933677959249 0
      vertex 1.004305231718579 3.090933677959249 63
      vertex 0.6089892724036049 3.1924335648682383 0
    endloop
  endfacet
  facet normal -0.3681245526846774 -0.9297764858882515 0
    outer loop
      vertex 1.004305231718579 3.090933677959249 0
      vertex 1.3837826975864864 2.9406879205145633 0
      vertex 1.3837826975864864 2.9406879205145633 63
    endloop
  endfacet
  facet normal -0.48175367410171493 -0.8763066800438638 0
    outer loop
      vertex 1.7414370836817392 2.744065757881549 63
      vertex 1.3837826975864864 2.9406879205145633 0
      vertex 1.7414370836817392 2.744065757881549 0
    endloop
  endfacet
  facet normal -0.9980267284282716 -0.06279051952931348 0
    outer loop
      vertex 3.25 0 0
      vertex 3.25 0 63
      vertex 3.224372779272053 0.40733300908398884 0
    endloop
  endfacet
  facet normal -0.9822872507286886 -0.18738131458572485 0
    outer loop
      vertex 3.224372779272053 0.40733300908398884 63
      vertex 3.147895273668051 0.8082421332857781 0
      vertex 3.224372779272053 0.40733300908398884 0
    endloop
  endfacet
  facet normal -0.844327925502015 -0.5358267949789968 0
    outer loop
      vertex 2.629305231718579 1.9103020699505378 0
      vertex 2.8479967101425565 1.5656994408305749 0
      vertex 2.8479967101425565 1.5656994408305749 63
    endloop
  endfacet
  facet normal -0.9048270524660198 -0.42577929156507216 0
    outer loop
      vertex 2.8479967101425565 1.5656994408305749 0
      vertex 3.0217735791368168 1.1964047962252033 0
      vertex 3.0217735791368168 1.1964047962252033 63
    endloop
  endfacet
  facet normal -0.9510565162951533 -0.3090169943749478 0
    outer loop
      vertex 3.147895273668051 0.8082421332857781 63
      vertex 3.0217735791368168 1.1964047962252033 0
      vertex 3.147895273668051 0.8082421332857781 0
    endloop
  endfacet
  facet normal -0.5877852522924738 -0.8090169943749468 0
    outer loop
      vertex 1.7414370836817392 2.744065757881549 0
      vertex 2.071627966683242 2.5041680390213146 0
      vertex 2.071627966683242 2.5041680390213146 63
    endloop
  endfacet
  facet normal -0.7705132427757896 -0.6374239897486893 0
    outer loop
      vertex 2.3691480391195876 2.2247780942682382 0
      vertex 2.629305231718579 1.9103020699505378 0
      vertex 2.629305231718579 1.9103020699505378 63
    endloop
  endfacet
  facet normal -0.6845471059286882 -0.7289686274214121 0
    outer loop
      vertex 2.071627966683242 2.5041680390213146 0
      vertex 2.3691480391195876 2.2247780942682382 0
      vertex 2.3691480391195876 2.2247780942682382 63
    endloop
  endfacet
  facet normal -0.12533323356430365 -0.992114701314478 1.7669567194134906e-18
    outer loop
      vertex 0.20406918847026725 3.2435868673918824 0
      vertex 0.6089892724036049 3.1924335648682383 63
      vertex 0.20406918847026814 3.2435868673918824 63
    endloop
  endfacet
  facet normal -0.24868988716485538 -0.968583161128631 0
    outer loop
      vertex 1.004305231718579 3.090933677959249 63
      vertex 0.6089892724036049 3.1924335648682383 63
      vertex 0.6089892724036049 3.1924335648682383 0
    endloop
  endfacet
  facet normal -0.3681245526846774 -0.9297764858882515 0
    outer loop
      vertex 1.004305231718579 3.090933677959249 0
      vertex 1.3837826975864864 2.9406879205145633 63
      vertex 1.004305231718579 3.090933677959249 63
    endloop
  endfacet
  facet normal -0.48175367410171493 -0.8763066800438638 0
    outer loop
      vertex 1.3837826975864864 2.9406879205145633 63
      vertex 1.3837826975864864 2.9406879205145633 0
      vertex 1.7414370836817392 2.744065757881549 63
    endloop
  endfacet
  facet normal -0.9980267284282716 -0.06279051952931348 0
    outer loop
      vertex 3.25 0 63
      vertex 3.224372779272053 0.40733300908398884 63
      vertex 3.224372779272053 0.40733300908398884 0
    endloop
  endfacet
  facet normal -0.9822872507286886 -0.18738131458572485 0
    outer loop
      vertex 3.224372779272053 0.40733300908398884 63
      vertex 3.147895273668051 0.8082421332857781 63
      vertex 3.147895273668051 0.8082421332857781 0
    endloop
  endfacet
  facet normal -0.9048270524660198 -0.42577929156507216 0
    outer loop
      vertex 3.0217735791368168 1.1964047962252033 63
      vertex 2.8479967101425565 1.5656994408305749 63
      vertex 2.8479967101425565 1.5656994408305749 0
    endloop
  endfacet
  facet normal -0.9510565162951533 -0.3090169943749478 0
    outer loop
      vertex 3.147895273668051 0.8082421332857781 63
      vertex 3.0217735791368168 1.1964047962252033 63
      vertex 3.0217735791368168 1.1964047962252033 0
    endloop
  endfacet
  facet normal -0.6845471059286882 -0.7289686274214121 0
    outer loop
      vertex 2.071627966683242 2.5041680390213146 0
      vertex 2.3691480391195876 2.2247780942682382 63
      vertex 2.071627966683242 2.5041680390213146 63
    endloop
  endfacet
  facet normal -0.7705132427757896 -0.6374239897486893 0
    outer loop
      vertex 2.629305231718579 1.9103020699505378 63
      vertex 2.3691480391195876 2.2247780942682382 63
      vertex 2.3691480391195876 2.2247780942682382 0
    endloop
  endfacet
  facet normal -0.5877852522924738 -0.8090169943749468 0
    outer loop
      vertex 1.7414370836817392 2.744065757881549 0
      vertex 2.071627966683242 2.5041680390213146 63
      vertex 1.7414370836817392 2.744065757881549 63
    endloop
  endfacet
  facet normal -0.844327925502015 -0.5358267949789968 0
    outer loop
      vertex 2.629305231718579 1.9103020699505378 0
      vertex 2.8479967101425565 1.5656994408305749 63
      vertex 2.629305231718579 1.9103020699505378 63
    endloop
  endfacet
  facet normal -0.8443279255020152 -0.5358267949789964 0
    outer loop
      vertex -5.663118960624632 -4.114496766047312 0
      vertex -6.134146760307044 -3.372275718712008 63
      vertex -6.134146760307044 -3.372275718712008 0
    endloop
  endfacet
  facet normal -0.7705132427757893 -0.6374239897486897 0
    outer loop
      vertex -5.663118960624632 -4.114496766047312 0
      vertex -5.1027803919498815 -4.79182974150082 0
      vertex -5.663118960624632 -4.114496766047312 63
    endloop
  endfacet
  facet normal -0.5877852522924721 -0.8090169943749481 0
    outer loop
      vertex -4.461967928240828 -5.393592699430526 0
      vertex -3.7507875648529776 -5.910295478514104 0
      vertex -3.7507875648529776 -5.910295478514104 63
    endloop
  endfacet
  facet normal -0.6845471059286894 -0.7289686274214109 0
    outer loop
      vertex -4.461967928240828 -5.393592699430526 0
      vertex -4.461967928240828 -5.393592699430526 63
      vertex -5.1027803919498815 -4.79182974150082 0
    endloop
  endfacet
  facet normal 0 0 -1
    outer loop
      vertex -6.50843540121776 -2.576871868792745 0
      vertex -6.7800821279004175 -1.740829210153984 0
      vertex -6.50843540121776 2.576871868792745 0
    endloop
  endfacet
  facet normal 0 0 -1
    outer loop
      vertex -6.7800821279004175 -1.740829210153984 0
      vertex -6.9448029092013455 -0.8773326349501285 0
      vertex -6.7800821279004175 1.740829210153984 0
    endloop
  endfacet
  facet normal 0 0 -1
    outer loop
      vertex -6.134146760307044 -3.372275718712008 0
      vertex -6.50843540121776 -2.576871868792745 0
      vertex -6.134146760307044 3.372275718712008 0
    endloop
  endfacet
  facet normal 0 0 -1
    outer loop
      vertex -5.663118960624632 -4.114496766047312 0
      vertex -6.134146760307044 -3.372275718712008 0
      vertex -5.663118960624632 4.114496766047312 0
    endloop
  endfacet
  facet normal 0 0 -1
    outer loop
      vertex -5.663118960624632 -4.114496766047312 0
      vertex -5.1027803919498815 4.79182974150082 0
      vertex -5.1027803919498815 -4.79182974150082 0
    endloop
  endfacet
  facet normal 0 0 -1
    outer loop
      vertex -4.461967928240828 -5.393592699430526 0
      vertex -3.7507875648529776 5.910295478514104 0
      vertex -3.7507875648529776 -5.910295478514104 0
    endloop
  endfacet
  facet normal 0 0 -1
    outer loop
      vertex -4.461967928240828 -5.393592699430526 0
      vertex -5.1027803919498815 -4.79182974150082 0
      vertex -4.461967928240828 5.393592699430526 0
    endloop
  endfacet
  facet normal -0.9048270524660195 -0.4257792915650727 0
    outer loop
      vertex -6.134146760307044 -3.372275718712008 0
      vertex -6.50843540121776 -2.576871868792745 63
      vertex -6.50843540121776 -2.576871868792745 0
    endloop
  endfacet
  facet normal -0.9510565162951535 -0.30901699437494745 0
    outer loop
      vertex -6.50843540121776 -2.576871868792745 0
      vertex -6.7800821279004175 -1.740829210153984 63
      vertex -6.7800821279004175 -1.740829210153984 0
    endloop
  endfacet
  facet normal -0.9822872507286886 -0.1873813145857253 0
    outer loop
      vertex -6.7800821279004175 -1.740829210153984 0
      vertex -6.9448029092013455 -0.8773326349501285 63
      vertex -6.9448029092013455 -0.8773326349501285 0
    endloop
  endfacet
  facet normal -0.9980267284282716 -0.06279051952931272 0
    outer loop
      vertex -6.9448029092013455 -0.8773326349501285 0
      vertex -7 0 63
      vertex -7 0 0
    endloop
  endfacet
  facet normal 0 0 -1
    outer loop
      vertex -3.7507875648529776 -5.910295478514104 0
      vertex -2.8479967101425565 -1.5656994408305749 0
      vertex -2.980455040955507 -6.333789367262137 0
    endloop
  endfacet
  facet normal 0 0 -1
    outer loop
      vertex -2.980455040955507 -6.333789367262137 0
      vertex -2.0716279666832413 -2.5041680390213155 0
      vertex -2.1631189606246317 -6.657395614066075 0
    endloop
  endfacet
  facet normal 0 0 -1
    outer loop
      vertex -2.980455040955507 -6.333789367262137 0
      vertex -2.369148039119588 -2.224778094268238 0
      vertex -2.0716279666832413 -2.5041680390213155 0
    endloop
  endfacet
  facet normal 0 0 -1
    outer loop
      vertex -2.1631189606246317 -6.657395614066075 0
      vertex -2.0716279666832413 -2.5041680390213155 0
      vertex -1.7414370836817394 -2.7440657578815486 0
    endloop
  endfacet
  facet normal 0 0 -1
    outer loop
      vertex -2.1631189606246317 -6.657395614066075 0
      vertex -1.7414370836817394 -2.7440657578815486 0
      vertex -1.3837826975864855 -2.9406879205145637 0
    endloop
  endfacet
  facet normal 0 0 -1
    outer loop
      vertex -2.1631189606246317 -6.657395614066075 0
      vertex -1.004305231718579 -3.090933677959249 0
      vertex -1.3116692021000738 -6.87601075510082 0
    endloop
  endfacet
  facet normal 0 0 -1
    outer loop
      vertex -1.3116692021000738 -6.87601075510082 0
      vertex -0.20406918847026972 -3.2435868673918824 0
      vertex -0.43953363670519635 -6.986187098997901 0
    endloop
  endfacet
  facet normal 0 0 -1
    outer loop
      vertex -0.43953363670519635 -6.986187098997901 0
      vertex -0.20406918847026972 -3.2435868673918824 0
      vertex 0.43953363670519635 -6.986187098997901 0
    endloop
  endfacet
  facet normal 0 0 -1
    outer loop
      vertex -1.3116692021000738 -6.87601075510082 0
      vertex -1.004305231718579 -3.090933677959249 0
      vertex -0.6089892724036057 -3.192433564868238 0
    endloop
  endfacet
  facet normal 0 0 -1
    outer loop
      vertex -2.1631189606246317 -6.657395614066075 0
      vertex -1.3837826975864855 -2.9406879205145637 0
      vertex -1.004305231718579 -3.090933677959249 0
    endloop
  endfacet
  facet normal 0 0 -1
    outer loop
      vertex -1.3116692021000738 -6.87601075510082 0
      vertex -0.6089892724036057 -3.192433564868238 0
      vertex -0.20406918847026972 -3.2435868673918824 0
    endloop
  endfacet
  facet normal -0.4817536741017149 -0.8763066800438638 0
    outer loop
      vertex -3.7507875648529776 -5.910295478514104 0
      vertex -2.980455040955507 -6.333789367262137 0
      vertex -2.980455040955507 -6.333789367262137 63
    endloop
  endfacet
  facet normal -0.36812455268467814 -0.9297764858882512 0
    outer loop
      vertex -2.980455040955507 -6.333789367262137 0
      vertex -2.1631189606246317 -6.657395614066075 0
      vertex -2.1631189606246317 -6.657395614066075 63
    endloop
  endfacet
  facet normal -0.24868988716485488 -0.9685831611286311 0
    outer loop
      vertex -2.1631189606246317 -6.657395614066075 0
      vertex -1.3116692021000738 -6.87601075510082 0
      vertex -1.3116692021000738 -6.87601075510082 63
    endloop
  endfacet
  facet normal -0.12533323356430495 -0.9921147013144777 0
    outer loop
      vertex -1.3116692021000738 -6.87601075510082 0
      vertex -0.43953363670519635 -6.986187098997901 0
      vertex -0.43953363670519635 -6.986187098997901 63
    endloop
  endfacet
  facet normal 0 0 -1
    outer loop
      vertex -3.7507875648529776 -5.910295478514104 0
      vertex -3.147895273668051 -0.8082421332857783 0
      vertex -3.021773579136817 -1.1964047962252031 0
    endloop
  endfacet
  facet normal 0 0 -1
    outer loop
      vertex -3.7507875648529776 -5.910295478514104 0
      vertex -3.021773579136817 -1.1964047962252031 0
      vertex -2.8479967101425565 -1.5656994408305749 0
    endloop
  endfacet
  facet normal 0 0 -1
    outer loop
      vertex -2.980455040955507 -6.333789367262137 0
      vertex -2.629305231718579 -1.9103020699505378 0
      vertex -2.369148039119588 -2.224778094268238 0
    endloop
  endfacet
  facet normal 0 0 -1
    outer loop
      vertex -2.980455040955507 -6.333789367262137 0
      vertex -2.8479967101425565 -1.5656994408305749 0
      vertex -2.629305231718579 -1.9103020699505378 0
    endloop
  endfacet
  facet normal 0 0 -1
    outer loop
      vertex -3.7507875648529776 -5.910295478514104 0
      vertex -3.224372779272053 -0.40733300908398823 0
      vertex -3.147895273668051 -0.8082421332857783 0
    endloop
  endfacet
  facet normal 0 0 -1
    outer loop
      vertex -3.7507875648529776 -5.910295478514104 0
      vertex -3.25 0 0
      vertex -3.224372779272053 -0.40733300908398823 0
    endloop
  endfacet
  facet normal -0.7705132427757893 -0.6374239897486897 0
    outer loop
      vertex -5.1027803919498815 -4.79182974150082 0
      vertex -5.1027803919498815 -4.79182974150082 63
      vertex -5.663118960624632 -4.114496766047312 63
    endloop
  endfacet
  facet normal -0.8443279255020152 -0.5358267949789964 0
    outer loop
      vertex -5.663118960624632 -4.114496766047312 0
      vertex -5.663118960624632 -4.114496766047312 63
      vertex -6.134146760307044 -3.372275718712008 63
    endloop
  endfacet
  facet normal -0.5877852522924721 -0.8090169943749481 0
    outer loop
      vertex -4.461967928240828 -5.393592699430526 0
      vertex -3.7507875648529776 -5.910295478514104 63
      vertex -4.461967928240828 -5.393592699430526 63
    endloop
  endfacet
  facet normal -0.6845471059286894 -0.7289686274214109 0
    outer loop
      vertex -5.1027803919498815 -4.79182974150082 0
      vertex -4.461967928240828 -5.393592699430526 63
      vertex -5.1027803919498815 -4.79182974150082 63
    endloop
  endfacet
  facet normal -0.9048270524660195 -0.4257792915650727 0
    outer loop
      vertex -6.134146760307044 -3.372275718712008 0
      vertex -6.134146760307044 -3.372275718712008 63
      vertex -6.50843540121776 -2.576871868792745 63
    endloop
  endfacet
  facet normal -0.9510565162951535 -0.30901699437494745 0
    outer loop
      vertex -6.50843540121776 -2.576871868792745 0
      vertex -6.50843540121776 -2.576871868792745 63
      vertex -6.7800821279004175 -1.740829210153984 63
    endloop
  endfacet
  facet normal -0.9822872507286886 -0.1873813145857253 0
    outer loop
      vertex -6.7800821279004175 -1.740829210153984 0
      vertex -6.7800821279004175 -1.740829210153984 63
      vertex -6.9448029092013455 -0.8773326349501285 63
    endloop
  endfacet
  facet normal -0.9980267284282716 -0.06279051952931272 0
    outer loop
      vertex -6.9448029092013455 -0.8773326349501285 0
      vertex -6.9448029092013455 -0.8773326349501285 63
      vertex -7 0 63
    endloop
  endfacet
  facet normal 0 0 1
    outer loop
      vertex -6.134146760307044 -3.372275718712008 63
      vertex -6.50843540121776 2.576871868792745 63
      vertex -6.50843540121776 -2.576871868792745 63
    endloop
  endfacet
  facet normal 0 0 1
    outer loop
      vertex -6.7800821279004175 -1.740829210153984 63
      vertex -6.9448029092013455 0.8773326349501285 63
      vertex -6.9448029092013455 -0.8773326349501285 63
    endloop
  endfacet
  facet normal 0 0 1
    outer loop
      vertex -6.50843540121776 -2.576871868792745 63
      vertex -6.7800821279004175 1.740829210153984 63
      vertex -6.7800821279004175 -1.740829210153984 63
    endloop
  endfacet
  facet normal 0 0 1
    outer loop
      vertex -5.663118960624632 -4.114496766047312 63
      vertex -6.134146760307044 3.372275718712008 63
      vertex -6.134146760307044 -3.372275718712008 63
    endloop
  endfacet
  facet normal 0 0 1
    outer loop
      vertex -5.663118960624632 -4.114496766047312 63
      vertex -5.1027803919498815 -4.79182974150082 63
      vertex -5.663118960624632 4.114496766047312 63
    endloop
  endfacet
  facet normal 0 0 1
    outer loop
      vertex -4.461967928240828 -5.393592699430526 63
      vertex -5.1027803919498815 4.79182974150082 63
      vertex -5.1027803919498815 -4.79182974150082 63
    endloop
  endfacet
  facet normal 0 0 1
    outer loop
      vertex -4.461967928240828 -5.393592699430526 63
      vertex -3.7507875648529776 -5.910295478514104 63
      vertex -4.461967928240828 5.393592699430526 63
    endloop
  endfacet
  facet normal -0.36812455268467814 -0.9297764858882512 0
    outer loop
      vertex -2.980455040955507 -6.333789367262137 0
      vertex -2.1631189606246317 -6.657395614066075 63
      vertex -2.980455040955507 -6.333789367262137 63
    endloop
  endfacet
  facet normal -0.4817536741017149 -0.8763066800438638 0
    outer loop
      vertex -3.7507875648529776 -5.910295478514104 0
      vertex -2.980455040955507 -6.333789367262137 63
      vertex -3.7507875648529776 -5.910295478514104 63
    endloop
  endfacet
  facet normal -0.24868988716485488 -0.9685831611286311 0
    outer loop
      vertex -2.1631189606246317 -6.657395614066075 0
      vertex -1.3116692021000738 -6.87601075510082 63
      vertex -2.1631189606246317 -6.657395614066075 63
    endloop
  endfacet
  facet normal -0.12533323356430495 -0.9921147013144777 0
    outer loop
      vertex -1.3116692021000738 -6.87601075510082 0
      vertex -0.43953363670519635 -6.986187098997901 63
      vertex -1.3116692021000738 -6.87601075510082 63
    endloop
  endfacet
  facet normal 0 -1 0
    outer loop
      vertex -0.43953363670519635 -6.986187098997901 0
      vertex 0.43953363670519635 -6.986187098997901 63
      vertex -0.43953363670519635 -6.986187098997901 63
    endloop
  endfacet
  facet normal 0 0 1
    outer loop
      vertex -2.980455040955507 -6.333789367262137 63
      vertex -2.1631189606246317 -6.657395614066075 63
      vertex -2.629305231718579 -1.9103020699505378 63
    endloop
  endfacet
  facet normal 0 0 1
    outer loop
      vertex -2.1631189606246317 -6.657395614066075 63
      vertex -2.0716279666832413 -2.5041680390213155 63
      vertex -2.369148039119588 -2.224778094268238 63
    endloop
  endfacet
  facet normal 0 0 1
    outer loop
      vertex -2.1631189606246317 -6.657395614066075 63
      vertex -2.369148039119588 -2.224778094268238 63
      vertex -2.629305231718579 -1.9103020699505378 63
    endloop
  endfacet
  facet normal 0 0 1
    outer loop
      vertex -2.1631189606246317 -6.657395614066075 63
      vertex -1.7414370836817394 -2.7440657578815486 63
      vertex -2.0716279666832413 -2.5041680390213155 63
    endloop
  endfacet
  facet normal 0 0 1
    outer loop
      vertex -2.1631189606246317 -6.657395614066075 63
      vertex -1.3116692021000738 -6.87601075510082 63
      vertex -1.7414370836817394 -2.7440657578815486 63
    endloop
  endfacet
  facet normal 0 0 1
    outer loop
      vertex -1.3116692021000738 -6.87601075510082 63
      vertex -0.43953363670519635 -6.986187098997901 63
      vertex -1.004305231718579 -3.090933677959249 63
    endloop
  endfacet
  facet normal 0 0 1
    outer loop
      vertex -1.3116692021000738 -6.87601075510082 63
      vertex -1.3837826975864855 -2.9406879205145637 63
      vertex -1.7414370836817394 -2.7440657578815486 63
    endloop
  endfacet
  facet normal 0 0 1
    outer loop
      vertex -1.3116692021000738 -6.87601075510082 63
      vertex -1.004305231718579 -3.090933677959249 63
      vertex -1.3837826975864855 -2.9406879205145637 63
    endloop
  endfacet
  facet normal 0 0 1
    outer loop
      vertex -0.43953363670519635 -6.986187098997901 63
      vertex -0.6089892724036057 -3.192433564868238 63
      vertex -1.004305231718579 -3.090933677959249 63
    endloop
  endfacet
  facet normal 0 0 1
    outer loop
      vertex -0.43953363670519635 -6.986187098997901 63
      vertex -0.20406918847026972 -3.2435868673918824 63
      vertex -0.6089892724036057 -3.192433564868238 63
    endloop
  endfacet
  facet normal 0 0 1
    outer loop
      vertex -0.43953363670519635 -6.986187098997901 63
      vertex 0.20406918847026972 -3.2435868673918824 63
      vertex -0.20406918847026972 -3.2435868673918824 63
    endloop
  endfacet
  facet normal 0 0 1
    outer loop
      vertex -2.980455040955507 -6.333789367262137 63
      vertex -2.629305231718579 -1.9103020699505378 63
      vertex -2.8479967101425565 -1.5656994408305749 63
    endloop
  endfacet
  facet normal 0 0 1
    outer loop
      vertex -2.980455040955507 -6.333789367262137 63
      vertex -2.8479967101425565 -1.5656994408305749 63
      vertex -3.021773579136817 -1.1964047962252031 63
    endloop
  endfacet
  facet normal 0 0 1
    outer loop
      vertex -2.980455040955507 -6.333789367262137 63
      vertex -3.021773579136817 -1.1964047962252031 63
      vertex -3.147895273668051 -0.8082421332857783 63
    endloop
  endfacet
  facet normal 0 0 1
    outer loop
      vertex -2.980455040955507 -6.333789367262137 63
      vertex -3.147895273668051 -0.8082421332857783 63
      vertex -3.224372779272053 -0.40733300908398823 63
    endloop
  endfacet
  facet normal 0 0 1
    outer loop
      vertex -2.980455040955507 -6.333789367262137 63
      vertex -3.224372779272053 -0.40733300908398823 63
      vertex -3.25 0 63
    endloop
  endfacet
  facet normal 0 0 1
    outer loop
      vertex -3.7507875648529776 -5.910295478514104 63
      vertex -2.980455040955507 -6.333789367262137 63
      vertex -3.7507875648529776 5.910295478514104 63
    endloop
  endfacet
  facet normal 0 0 1
    outer loop
      vertex -2.980455040955507 -6.333789367262137 63
      vertex -3.25 0 63
      vertex -3.7507875648529776 5.910295478514104 63
    endloop
  endfacet
  facet normal 0 0 -1
    outer loop
      vertex -6.9448029092013455 -0.8773326349501285 0
      vertex -7 0 0
      vertex -6.9448029092013455 0.8773326349501285 0
    endloop
  endfacet
  facet normal 0 0 -1
    outer loop
      vertex -6.9448029092013455 -0.8773326349501285 0
      vertex -6.9448029092013455 0.8773326349501285 0
      vertex -6.7800821279004175 1.740829210153984 0
    endloop
  endfacet
  facet normal 0 0 -1
    outer loop
      vertex -6.7800821279004175 -1.740829210153984 0
      vertex -6.7800821279004175 1.740829210153984 0
      vertex -6.50843540121776 2.576871868792745 0
    endloop
  endfacet
  facet normal 0 0 -1
    outer loop
      vertex -6.50843540121776 -2.576871868792745 0
      vertex -6.50843540121776 2.576871868792745 0
      vertex -6.134146760307044 3.372275718712008 0
    endloop
  endfacet
  facet normal 0 0 -1
    outer loop
      vertex -6.134146760307044 -3.372275718712008 0
      vertex -6.134146760307044 3.372275718712008 0
      vertex -5.663118960624632 4.114496766047312 0
    endloop
  endfacet
  facet normal 0 0 -1
    outer loop
      vertex -5.663118960624632 -4.114496766047312 0
      vertex -5.663118960624632 4.114496766047312 0
      vertex -5.1027803919498815 4.79182974150082 0
    endloop
  endfacet
  facet normal 0 0 -1
    outer loop
      vertex -5.1027803919498815 -4.79182974150082 0
      vertex -5.1027803919498815 4.79182974150082 0
      vertex -4.461967928240828 5.393592699430526 0
    endloop
  endfacet
  facet normal 0 0 -1
    outer loop
      vertex -4.461967928240828 -5.393592699430526 0
      vertex -4.461967928240828 5.393592699430526 0
      vertex -3.7507875648529776 5.910295478514104 0
    endloop
  endfacet
  facet normal -0.9980267284282716 0.06279051952931272 0
    outer loop
      vertex -7 0 0
      vertex -6.9448029092013455 0.8773326349501285 63
      vertex -6.9448029092013455 0.8773326349501285 0
    endloop
  endfacet
  facet normal -0.9822872507286886 0.1873813145857253 0
    outer loop
      vertex -6.9448029092013455 0.8773326349501285 0
      vertex -6.7800821279004175 1.740829210153984 63
      vertex -6.7800821279004175 1.740829210153984 0
    endloop
  endfacet
  facet normal -0.9510565162951535 0.30901699437494745 0
    outer loop
      vertex -6.7800821279004175 1.740829210153984 0
      vertex -6.50843540121776 2.576871868792745 63
      vertex -6.50843540121776 2.576871868792745 0
    endloop
  endfacet
  facet normal -0.9048270524660195 0.4257792915650727 0
    outer loop
      vertex -6.50843540121776 2.576871868792745 0
      vertex -6.134146760307044 3.372275718712008 63
      vertex -6.134146760307044 3.372275718712008 0
    endloop
  endfacet
  facet normal -0.8443279255020152 0.5358267949789964 0
    outer loop
      vertex -6.134146760307044 3.372275718712008 0
      vertex -5.663118960624632 4.114496766047312 63
      vertex -5.663118960624632 4.114496766047312 0
    endloop
  endfacet
  facet normal -0.7705132427757893 0.6374239897486897 0
    outer loop
      vertex -5.663118960624632 4.114496766047312 0
      vertex -5.1027803919498815 4.79182974150082 63
      vertex -5.1027803919498815 4.79182974150082 0
    endloop
  endfacet
  facet normal -0.6845471059286894 0.7289686274214109 0
    outer loop
      vertex -5.1027803919498815 4.79182974150082 0
      vertex -5.1027803919498815 4.79182974150082 63
      vertex -4.461967928240828 5.393592699430526 0
    endloop
  endfacet
  facet normal -0.5877852522924721 0.8090169943749481 0
    outer loop
      vertex -4.461967928240828 5.393592699430526 0
      vertex -4.461967928240828 5.393592699430526 63
      vertex -3.7507875648529776 5.910295478514104 0
    endloop
  endfacet
  facet normal 0 0 -1
    outer loop
      vertex -3.7507875648529776 -5.910295478514104 0
      vertex -2.980455040955509 6.333789367262137 0
      vertex -3.25 0 0
    endloop
  endfacet
  facet normal 0 0 -1
    outer loop
      vertex -3.7507875648529776 -5.910295478514104 0
      vertex -3.7507875648529776 5.910295478514104 0
      vertex -2.980455040955509 6.333789367262137 0
    endloop
  endfacet
  facet normal 0 0 -1
    outer loop
      vertex -2.980455040955509 6.333789367262137 0
      vertex -3.224372779272053 0.40733300908398823 0
      vertex -3.25 0 0
    endloop
  endfacet
  facet normal 0 0 -1
    outer loop
      vertex -2.980455040955509 6.333789367262137 0
      vertex -3.147895273668051 0.8082421332857783 0
      vertex -3.224372779272053 0.40733300908398823 0
    endloop
  endfacet
  facet normal 0 0 -1
    outer loop
      vertex -2.980455040955509 6.333789367262137 0
      vertex -3.021773579136817 1.1964047962252031 0
      vertex -3.147895273668051 0.8082421332857783 0
    endloop
  endfacet
  facet normal 0 0 -1
    outer loop
      vertex -2.980455040955509 6.333789367262137 0
      vertex -2.8479967101425565 1.5656994408305749 0
      vertex -3.021773579136817 1.1964047962252031 0
    endloop
  endfacet
  facet normal 0 0 -1
    outer loop
      vertex -2.980455040955509 6.333789367262137 0
      vertex -2.629305231718579 1.9103020699505378 0
      vertex -2.8479967101425565 1.5656994408305749 0
    endloop
  endfacet
  facet normal 0 0 -1
    outer loop
      vertex -2.1631189606246317 6.657395614066075 0
      vertex -2.369148039119588 2.224778094268238 0
      vertex -2.629305231718579 1.9103020699505378 0
    endloop
  endfacet
  facet normal 0 0 -1
    outer loop
      vertex -2.1631189606246317 6.657395614066075 0
      vertex -2.0716279666832413 2.5041680390213155 0
      vertex -2.369148039119588 2.224778094268238 0
    endloop
  endfacet
  facet normal 0 0 -1
    outer loop
      vertex -2.1631189606246317 6.657395614066075 0
      vertex -1.7414370836817394 2.7440657578815486 0
      vertex -2.0716279666832413 2.5041680390213155 0
    endloop
  endfacet
  facet normal 0 0 -1
    outer loop
      vertex -2.980455040955509 6.333789367262137 0
      vertex -2.1631189606246317 6.657395614066075 0
      vertex -2.629305231718579 1.9103020699505378 0
    endloop
  endfacet
  facet normal 0 0 -1
    outer loop
      vertex -1.311669202100072 6.876010755100821 0
      vertex -1.3837826975864864 2.9406879205145633 0
      vertex -1.7414370836817394 2.7440657578815486 0
    endloop
  endfacet
  facet normal 0 0 -1
    outer loop
      vertex -1.311669202100072 6.876010755100821 0
      vertex -1.004305231718579 3.090933677959249 0
      vertex -1.3837826975864864 2.9406879205145633 0
    endloop
  endfacet
  facet normal 0 0 -1
    outer loop
      vertex -0.43953363670519296 6.986187098997901 0
      vertex -0.6089892724036049 3.1924335648682383 0
      vertex -1.004305231718579 3.090933677959249 0
    endloop
  endfacet
  facet normal 0 0 -1
    outer loop
      vertex -0.43953363670519296 6.986187098997901 0
      vertex -0.20406918847026814 3.2435868673918824 0
      vertex -0.6089892724036049 3.1924335648682383 0
    endloop
  endfacet
  facet normal 0 0 -1
    outer loop
      vertex -0.43953363670519296 6.986187098997901 0
      vertex 0.20406918847026725 3.2435868673918824 0
      vertex -0.20406918847026814 3.2435868673918824 0
    endloop
  endfacet
  facet normal 0 0 -1
    outer loop
      vertex -2.1631189606246317 6.657395614066075 0
      vertex -1.311669202100072 6.876010755100821 0
      vertex -1.7414370836817394 2.7440657578815486 0
    endloop
  endfacet
  facet normal 0 0 -1
    outer loop
      vertex -1.311669202100072 6.876010755100821 0
      vertex -0.43953363670519296 6.986187098997901 0
      vertex -1.004305231718579 3.090933677959249 0
    endloop
  endfacet
  facet normal -0.48175367410171566 0.8763066800438634 0
    outer loop
      vertex -3.7507875648529776 5.910295478514104 0
      vertex -3.7507875648529776 5.910295478514104 63
      vertex -2.980455040955509 6.333789367262137 0
    endloop
  endfacet
  facet normal -0.3681245526846774 0.9297764858882516 0
    outer loop
      vertex -2.980455040955509 6.333789367262137 0
      vertex -2.980455040955509 6.333789367262137 63
      vertex -2.1631189606246317 6.657395614066075 0
    endloop
  endfacet
  facet normal -0.24868988716485535 0.9685831611286311 0
    outer loop
      vertex -2.1631189606246317 6.657395614066075 0
      vertex -2.1631189606246317 6.657395614066075 63
      vertex -1.311669202100072 6.876010755100821 0
    endloop
  endfacet
  facet normal -0.12533323356430373 0.9921147013144779 0
    outer loop
      vertex -1.311669202100072 6.876010755100821 0
      vertex -1.311669202100072 6.876010755100821 63
      vertex -0.43953363670519296 6.986187098997901 0
    endloop
  endfacet
  facet normal 0 1 0
    outer loop
      vertex -0.43953363670519296 6.986187098997901 0
      vertex -0.43953363670519296 6.986187098997901 63
      vertex 0.43953363670519296 6.986187098997901 0
    endloop
  endfacet
  facet normal -0.9980267284282716 0.06279051952931272 0
    outer loop
      vertex -7 0 0
      vertex -7 0 63
      vertex -6.9448029092013455 0.8773326349501285 63
    endloop
  endfacet
  facet normal -0.9822872507286886 0.1873813145857253 0
    outer loop
      vertex -6.9448029092013455 0.8773326349501285 0
      vertex -6.9448029092013455 0.8773326349501285 63
      vertex -6.7800821279004175 1.740829210153984 63
    endloop
  endfacet
  facet normal -0.9510565162951535 0.30901699437494745 0
    outer loop
      vertex -6.7800821279004175 1.740829210153984 0
      vertex -6.7800821279004175 1.740829210153984 63
      vertex -6.50843540121776 2.576871868792745 63
    endloop
  endfacet
  facet normal -0.9048270524660195 0.4257792915650727 0
    outer loop
      vertex -6.50843540121776 2.576871868792745 0
      vertex -6.50843540121776 2.576871868792745 63
      vertex -6.134146760307044 3.372275718712008 63
    endloop
  endfacet
  facet normal 0 0 1
    outer loop
      vertex -6.9448029092013455 -0.8773326349501285 63
      vertex -6.9448029092013455 0.8773326349501285 63
      vertex -7 0 63
    endloop
  endfacet
  facet normal 0 0 1
    outer loop
      vertex -6.7800821279004175 -1.740829210153984 63
      vertex -6.7800821279004175 1.740829210153984 63
      vertex -6.9448029092013455 0.8773326349501285 63
    endloop
  endfacet
  facet normal 0 0 1
    outer loop
      vertex -6.50843540121776 -2.576871868792745 63
      vertex -6.50843540121776 2.576871868792745 63
      vertex -6.7800821279004175 1.740829210153984 63
    endloop
  endfacet
  facet normal 0 0 1
    outer loop
      vertex -6.134146760307044 -3.372275718712008 63
      vertex -6.134146760307044 3.372275718712008 63
      vertex -6.50843540121776 2.576871868792745 63
    endloop
  endfacet
  facet normal 0 0 1
    outer loop
      vertex -5.663118960624632 -4.114496766047312 63
      vertex -5.663118960624632 4.114496766047312 63
      vertex -6.134146760307044 3.372275718712008 63
    endloop
  endfacet
  facet normal 0 0 1
    outer loop
      vertex -5.1027803919498815 -4.79182974150082 63
      vertex -5.1027803919498815 4.79182974150082 63
      vertex -5.663118960624632 4.114496766047312 63
    endloop
  endfacet
  facet normal 0 0 1
    outer loop
      vertex -4.461967928240828 -5.393592699430526 63
      vertex -4.461967928240828 5.393592699430526 63
      vertex -5.1027803919498815 4.79182974150082 63
    endloop
  endfacet
  facet normal 0 0 1
    outer loop
      vertex -3.7507875648529776 -5.910295478514104 63
      vertex -3.7507875648529776 5.910295478514104 63
      vertex -4.461967928240828 5.393592699430526 63
    endloop
  endfacet
  facet normal -0.8443279255020152 0.5358267949789964 0
    outer loop
      vertex -6.134146760307044 3.372275718712008 0
      vertex -6.134146760307044 3.372275718712008 63
      vertex -5.663118960624632 4.114496766047312 63
    endloop
  endfacet
  facet normal -0.7705132427757893 0.6374239897486897 0
    outer loop
      vertex -5.663118960624632 4.114496766047312 0
      vertex -5.663118960624632 4.114496766047312 63
      vertex -5.1027803919498815 4.79182974150082 63
    endloop
  endfacet
  facet normal -0.6845471059286894 0.7289686274214109 0
    outer loop
      vertex -4.461967928240828 5.393592699430526 0
      vertex -5.1027803919498815 4.79182974150082 63
      vertex -4.461967928240828 5.393592699430526 63
    endloop
  endfacet
  facet normal -0.5877852522924721 0.8090169943749481 0
    outer loop
      vertex -3.7507875648529776 5.910295478514104 0
      vertex -4.461967928240828 5.393592699430526 63
      vertex -3.7507875648529776 5.910295478514104 63
    endloop
  endfacet
  facet normal 0 0 1
    outer loop
      vertex -3.7507875648529776 5.910295478514104 63
      vertex -3.25 0 63
      vertex -3.224372779272053 0.40733300908398823 63
    endloop
  endfacet
  facet normal 0 0 1
    outer loop
      vertex -3.7507875648529776 5.910295478514104 63
      vertex -3.224372779272053 0.40733300908398823 63
      vertex -3.147895273668051 0.8082421332857783 63
    endloop
  endfacet
  facet normal 0 0 1
    outer loop
      vertex -3.7507875648529776 5.910295478514104 63
      vertex -3.147895273668051 0.8082421332857783 63
      vertex -3.021773579136817 1.1964047962252031 63
    endloop
  endfacet
  facet normal 0 0 1
    outer loop
      vertex -3.7507875648529776 5.910295478514104 63
      vertex -3.021773579136817 1.1964047962252031 63
      vertex -2.8479967101425565 1.5656994408305749 63
    endloop
  endfacet
  facet normal 0 0 1
    outer loop
      vertex -2.980455040955509 6.333789367262137 63
      vertex -2.8479967101425565 1.5656994408305749 63
      vertex -2.629305231718579 1.9103020699505378 63
    endloop
  endfacet
  facet normal 0 0 1
    outer loop
      vertex -2.980455040955509 6.333789367262137 63
      vertex -2.629305231718579 1.9103020699505378 63
      vertex -2.369148039119588 2.224778094268238 63
    endloop
  endfacet
  facet normal -0.48175367410171566 0.8763066800438634 0
    outer loop
      vertex -2.980455040955509 6.333789367262137 0
      vertex -3.7507875648529776 5.910295478514104 63
      vertex -2.980455040955509 6.333789367262137 63
    endloop
  endfacet
  facet normal -0.3681245526846774 0.9297764858882516 0
    outer loop
      vertex -2.1631189606246317 6.657395614066075 0
      vertex -2.980455040955509 6.333789367262137 63
      vertex -2.1631189606246317 6.657395614066075 63
    endloop
  endfacet
  facet normal -0.24868988716485535 0.9685831611286311 0
    outer loop
      vertex -1.311669202100072 6.876010755100821 0
      vertex -2.1631189606246317 6.657395614066075 63
      vertex -1.311669202100072 6.876010755100821 63
    endloop
  endfacet
  facet normal -0.12533323356430373 0.9921147013144779 0
    outer loop
      vertex -0.43953363670519296 6.986187098997901 0
      vertex -1.311669202100072 6.876010755100821 63
      vertex -0.43953363670519296 6.986187098997901 63
    endloop
  endfacet
  facet normal 0 0 1
    outer loop
      vertex -3.7507875648529776 5.910295478514104 63
      vertex -2.8479967101425565 1.5656994408305749 63
      vertex -2.980455040955509 6.333789367262137 63
    endloop
  endfacet
  facet normal 0 0 1
    outer loop
      vertex -2.980455040955509 6.333789367262137 63
      vertex -2.369148039119588 2.224778094268238 63
      vertex -2.0716279666832413 2.5041680390213155 63
    endloop
  endfacet
  facet normal 0 0 1
    outer loop
      vertex -2.1631189606246317 6.657395614066075 63
      vertex -2.0716279666832413 2.5041680390213155 63
      vertex -1.7414370836817394 2.7440657578815486 63
    endloop
  endfacet
  facet normal 0 0 1
    outer loop
      vertex -2.1631189606246317 6.657395614066075 63
      vertex -1.7414370836817394 2.7440657578815486 63
      vertex -1.3837826975864864 2.9406879205145633 63
    endloop
  endfacet
  facet normal 0 0 1
    outer loop
      vertex -2.980455040955509 6.333789367262137 63
      vertex -2.0716279666832413 2.5041680390213155 63
      vertex -2.1631189606246317 6.657395614066075 63
    endloop
  endfacet
  facet normal 0 0 1
    outer loop
      vertex -2.1631189606246317 6.657395614066075 63
      vertex -1.3837826975864864 2.9406879205145633 63
      vertex -1.004305231718579 3.090933677959249 63
    endloop
  endfacet
  facet normal 0 0 1
    outer loop
      vertex -1.311669202100072 6.876010755100821 63
      vertex -1.004305231718579 3.090933677959249 63
      vertex -0.6089892724036049 3.1924335648682383 63
    endloop
  endfacet
  facet normal 0 0 1
    outer loop
      vertex -1.311669202100072 6.876010755100821 63
      vertex -0.6089892724036049 3.1924335648682383 63
      vertex -0.20406918847026725 3.2435868673918824 63
    endloop
  endfacet
  facet normal 0 0 1
    outer loop
      vertex -2.1631189606246317 6.657395614066075 63
      vertex -1.004305231718579 3.090933677959249 63
      vertex -1.311669202100072 6.876010755100821 63
    endloop
  endfacet
  facet normal 0 0 1
    outer loop
      vertex -1.311669202100072 6.876010755100821 63
      vertex -0.20406918847026725 3.2435868673918824 63
      vertex -0.43953363670519296 6.986187098997901 63
    endloop
  endfacet
  facet normal 0 0 1
    outer loop
      vertex -0.43953363670519296 6.986187098997901 63
      vertex -0.20406918847026725 3.2435868673918824 63
      vertex 0.43953363670519296 6.986187098997901 63
    endloop
  endfacet
  facet normal 0 0 -1
    outer loop
      vertex 0.43953363670519635 -6.986187098997901 0
      vertex 1.004305231718579 -3.090933677959249 0
      vertex 1.3116692021000738 -6.87601075510082 0
    endloop
  endfacet
  facet normal 0 0 -1
    outer loop
      vertex 1.3116692021000738 -6.87601075510082 0
      vertex 1.7414370836817377 -2.7440657578815495 0
      vertex 2.1631189606246317 -6.657395614066075 0
    endloop
  endfacet
  facet normal 0 0 -1
    outer loop
      vertex 0.43953363670519635 -6.986187098997901 0
      vertex -0.20406918847026972 -3.2435868673918824 0
      vertex 0.20406918847026972 -3.2435868673918824 0
    endloop
  endfacet
  facet normal 0 0 -1
    outer loop
      vertex 0.43953363670519635 -6.986187098997901 0
      vertex 0.20406918847026972 -3.2435868673918824 0
      vertex 0.6089892724036057 -3.192433564868238 0
    endloop
  endfacet
  facet normal 0 0 -1
    outer loop
      vertex 0.43953363670519635 -6.986187098997901 0
      vertex 0.6089892724036057 -3.192433564868238 0
      vertex 1.004305231718579 -3.090933677959249 0
    endloop
  endfacet
  facet normal 0 0 -1
    outer loop
      vertex 1.3116692021000738 -6.87601075510082 0
      vertex 1.004305231718579 -3.090933677959249 0
      vertex 1.3837826975864855 -2.9406879205145637 0
    endloop
  endfacet
  facet normal 0 0 -1
    outer loop
      vertex 1.3116692021000738 -6.87601075510082 0
      vertex 1.3837826975864855 -2.9406879205145637 0
      vertex 1.7414370836817377 -2.7440657578815495 0
    endloop
  endfacet
  facet normal 0 0 -1
    outer loop
      vertex 2.1631189606246317 -6.657395614066075 0
      vertex 2.629305231718579 -1.9103020699505378 0
      vertex 2.980455040955507 -6.333789367262137 0
    endloop
  endfacet
  facet normal 0 0 -1
    outer loop
      vertex 2.1631189606246317 -6.657395614066075 0
      vertex 1.7414370836817377 -2.7440657578815495 0
      vertex 2.0716279666832422 -2.504168039021314 0
    endloop
  endfacet
  facet normal 0 0 -1
    outer loop
      vertex 2.1631189606246317 -6.657395614066075 0
      vertex 2.0716279666832422 -2.504168039021314 0
      vertex 2.369148039119588 -2.224778094268238 0
    endloop
  endfacet
  facet normal 0 0 -1
    outer loop
      vertex 2.1631189606246317 -6.657395614066075 0
      vertex 2.369148039119588 -2.224778094268238 0
      vertex 2.629305231718579 -1.9103020699505378 0
    endloop
  endfacet
  facet normal 0 -1 0
    outer loop
      vertex -0.43953363670519635 -6.986187098997901 0
      vertex 0.43953363670519635 -6.986187098997901 0
      vertex 0.43953363670519635 -6.986187098997901 63
    endloop
  endfacet
  facet normal 0.12533323356430495 -0.9921147013144777 0
    outer loop
      vertex 0.43953363670519635 -6.986187098997901 0
      vertex 1.3116692021000738 -6.87601075510082 0
      vertex 1.3116692021000738 -6.87601075510082 63
    endloop
  endfacet
  facet normal 0.24868988716485488 -0.9685831611286311 0
    outer loop
      vertex 1.3116692021000738 -6.87601075510082 0
      vertex 2.1631189606246317 -6.657395614066075 0
      vertex 2.1631189606246317 -6.657395614066075 63
    endloop
  endfacet
  facet normal 0.36812455268467814 -0.9297764858882512 0
    outer loop
      vertex 2.1631189606246317 -6.657395614066075 0
      vertex 2.980455040955507 -6.333789367262137 0
      vertex 2.980455040955507 -6.333789367262137 63
    endloop
  endfacet
  facet normal 0.48175367410171444 -0.876306680043864 0
    outer loop
      vertex 2.980455040955507 -6.333789367262137 0
      vertex 3.7507875648529736 -5.910295478514107 0
      vertex 3.7507875648529736 -5.910295478514107 63
    endloop
  endfacet
  facet normal 0 0 -1
    outer loop
      vertex 2.980455040955507 -6.333789367262137 0
      vertex 2.629305231718579 -1.9103020699505378 0
      vertex 2.8479967101425565 -1.5656994408305749 0
    endloop
  endfacet
  facet normal 0 0 -1
    outer loop
      vertex 2.980455040955507 -6.333789367262137 0
      vertex 2.8479967101425565 -1.5656994408305749 0
      vertex 3.0217735791368163 -1.1964047962252047 0
    endloop
  endfacet
  facet normal 0 0 -1
    outer loop
      vertex 2.980455040955507 -6.333789367262137 0
      vertex 3.0217735791368163 -1.1964047962252047 0
      vertex 3.1478952736680514 -0.8082421332857769 0
    endloop
  endfacet
  facet normal 0 0 -1
    outer loop
      vertex 2.980455040955507 -6.333789367262137 0
      vertex 3.1478952736680514 -0.8082421332857769 0
      vertex 3.224372779272053 -0.40733300908398823 0
    endloop
  endfacet
  facet normal 0 0 -1
    outer loop
      vertex 2.980455040955507 -6.333789367262137 0
      vertex 3.7507875648529767 5.910295478514105 0
      vertex 3.7507875648529736 -5.910295478514107 0
    endloop
  endfacet
  facet normal 0 0 -1
    outer loop
      vertex 2.980455040955507 -6.333789367262137 0
      vertex 3.224372779272053 -0.40733300908398823 0
      vertex 3.7507875648529767 5.910295478514105 0
    endloop
  endfacet
  facet normal 0.5877852522924729 -0.8090169943749476 0
    outer loop
      vertex 3.7507875648529736 -5.910295478514107 0
      vertex 4.4619679282408296 -5.393592699430523 0
      vertex 4.4619679282408296 -5.393592699430523 63
    endloop
  endfacet
  facet normal 0.6845471059286888 -0.7289686274214113 0
    outer loop
      vertex 4.4619679282408296 -5.393592699430523 0
      vertex 5.1027803919498815 -4.79182974150082 0
      vertex 5.1027803919498815 -4.79182974150082 63
    endloop
  endfacet
  facet normal 0.7705132427757893 -0.6374239897486897 0
    outer loop
      vertex 5.1027803919498815 -4.79182974150082 0
      vertex 5.663118960624632 -4.114496766047312 0
      vertex 5.1027803919498815 -4.79182974150082 63
    endloop
  endfacet
  facet normal 0.8443279255020152 -0.5358267949789964 0
    outer loop
      vertex 5.663118960624632 -4.114496766047312 0
      vertex 6.134146760307044 -3.372275718712008 0
      vertex 5.663118960624632 -4.114496766047312 63
    endloop
  endfacet
  facet normal 0 0 -1
    outer loop
      vertex 3.7507875648529736 -5.910295478514107 0
      vertex 4.461967928240828 5.393592699430524 0
      vertex 4.4619679282408296 -5.393592699430523 0
    endloop
  endfacet
  facet normal 0 0 -1
    outer loop
      vertex 4.4619679282408296 -5.393592699430523 0
      vertex 5.102780391949881 4.7918297415008215 0
      vertex 5.1027803919498815 -4.79182974150082 0
    endloop
  endfacet
  facet normal 0 0 -1
    outer loop
      vertex 5.1027803919498815 -4.79182974150082 0
      vertex 5.663118960624632 4.114496766047312 0
      vertex 5.663118960624632 -4.114496766047312 0
    endloop
  endfacet
  facet normal 0 0 -1
    outer loop
      vertex 5.663118960624632 -4.114496766047312 0
      vertex 6.134146760307045 3.3722757187120074 0
      vertex 6.134146760307044 -3.372275718712008 0
    endloop
  endfacet
  facet normal 0 0 -1
    outer loop
      vertex 6.134146760307044 -3.372275718712008 0
      vertex 6.50843540121776 2.576871868792746 0
      vertex 6.508435401217759 -2.5768718687927485 0
    endloop
  endfacet
  facet normal 0 0 -1
    outer loop
      vertex 6.508435401217759 -2.5768718687927485 0
      vertex 6.7800821279004175 1.7408292101539835 0
      vertex 6.780082127900418 -1.740829210153981 0
    endloop
  endfacet
  facet normal 0 0 -1
    outer loop
      vertex 6.780082127900418 -1.740829210153981 0
      vertex 6.9448029092013455 0.8773326349501298 0
      vertex 6.9448029092013455 -0.8773326349501285 0
    endloop
  endfacet
  facet normal 0.9048270524660191 -0.4257792915650735 0
    outer loop
      vertex 6.134146760307044 -3.372275718712008 0
      vertex 6.508435401217759 -2.5768718687927485 0
      vertex 6.134146760307044 -3.372275718712008 63
    endloop
  endfacet
  facet normal 0.9510565162951536 -0.3090169943749471 0
    outer loop
      vertex 6.508435401217759 -2.5768718687927485 0
      vertex 6.780082127900418 -1.740829210153981 0
      vertex 6.508435401217759 -2.5768718687927485 63
    endloop
  endfacet
  facet normal 0.9822872507286886 -0.18738131458572496 0
    outer loop
      vertex 6.780082127900418 -1.740829210153981 0
      vertex 6.9448029092013455 -0.8773326349501285 0
      vertex 6.780082127900418 -1.740829210153981 63
    endloop
  endfacet
  facet normal 0.9980267284282716 -0.06279051952931272 0
    outer loop
      vertex 6.9448029092013455 -0.8773326349501285 0
      vertex 7 0 0
      vertex 6.9448029092013455 -0.8773326349501285 63
    endloop
  endfacet
  facet normal 0.12533323356430495 -0.9921147013144777 0
    outer loop
      vertex 0.43953363670519635 -6.986187098997901 0
      vertex 1.3116692021000738 -6.87601075510082 63
      vertex 0.43953363670519635 -6.986187098997901 63
    endloop
  endfacet
  facet normal 0.24868988716485488 -0.9685831611286311 0
    outer loop
      vertex 1.3116692021000738 -6.87601075510082 0
      vertex 2.1631189606246317 -6.657395614066075 63
      vertex 1.3116692021000738 -6.87601075510082 63
    endloop
  endfacet
  facet normal 0.36812455268467814 -0.9297764858882512 0
    outer loop
      vertex 2.1631189606246317 -6.657395614066075 0
      vertex 2.980455040955507 -6.333789367262137 63
      vertex 2.1631189606246317 -6.657395614066075 63
    endloop
  endfacet
  facet normal 0.48175367410171444 -0.876306680043864 0
    outer loop
      vertex 2.980455040955507 -6.333789367262137 0
      vertex 3.7507875648529736 -5.910295478514107 63
      vertex 2.980455040955507 -6.333789367262137 63
    endloop
  endfacet
  facet normal 0 0 1
    outer loop
      vertex -0.43953363670519635 -6.986187098997901 63
      vertex 0.43953363670519635 -6.986187098997901 63
      vertex 0.20406918847026972 -3.2435868673918824 63
    endloop
  endfacet
  facet normal 0 0 1
    outer loop
      vertex 0.43953363670519635 -6.986187098997901 63
      vertex 1.3116692021000738 -6.87601075510082 63
      vertex 0.20406918847026972 -3.2435868673918824 63
    endloop
  endfacet
  facet normal 0 0 1
    outer loop
      vertex 1.3116692021000738 -6.87601075510082 63
      vertex 2.1631189606246317 -6.657395614066075 63
      vertex 1.004305231718579 -3.090933677959249 63
    endloop
  endfacet
  facet normal 0 0 1
    outer loop
      vertex 1.3116692021000738 -6.87601075510082 63
      vertex 0.6089892724036057 -3.192433564868238 63
      vertex 0.20406918847026972 -3.2435868673918824 63
    endloop
  endfacet
  facet normal 0 0 1
    outer loop
      vertex 1.3116692021000738 -6.87601075510082 63
      vertex 1.004305231718579 -3.090933677959249 63
      vertex 0.6089892724036057 -3.192433564868238 63
    endloop
  endfacet
  facet normal 0 0 1
    outer loop
      vertex 2.1631189606246317 -6.657395614066075 63
      vertex 1.3837826975864855 -2.9406879205145637 63
      vertex 1.004305231718579 -3.090933677959249 63
    endloop
  endfacet
  facet normal 0 0 1
    outer loop
      vertex 2.1631189606246317 -6.657395614066075 63
      vertex 2.980455040955507 -6.333789367262137 63
      vertex 2.0716279666832422 -2.504168039021314 63
    endloop
  endfacet
  facet normal 0 0 1
    outer loop
      vertex 2.1631189606246317 -6.657395614066075 63
      vertex 1.7414370836817377 -2.7440657578815495 63
      vertex 1.3837826975864855 -2.9406879205145637 63
    endloop
  endfacet
  facet normal 0 0 1
    outer loop
      vertex 2.1631189606246317 -6.657395614066075 63
      vertex 2.0716279666832422 -2.504168039021314 63
      vertex 1.7414370836817377 -2.7440657578815495 63
    endloop
  endfacet
  facet normal 0 0 1
    outer loop
      vertex 2.980455040955507 -6.333789367262137 63
      vertex 2.369148039119588 -2.224778094268238 63
      vertex 2.0716279666832422 -2.504168039021314 63
    endloop
  endfacet
  facet normal 0 0 1
    outer loop
      vertex 2.980455040955507 -6.333789367262137 63
      vertex 3.7507875648529736 -5.910295478514107 63
      vertex 2.8479967101425565 -1.5656994408305749 63
    endloop
  endfacet
  facet normal 0 0 1
    outer loop
      vertex 2.980455040955507 -6.333789367262137 63
      vertex 2.629305231718579 -1.9103020699505378 63
      vertex 2.369148039119588 -2.224778094268238 63
    endloop
  endfacet
  facet normal 0 0 1
    outer loop
      vertex 2.980455040955507 -6.333789367262137 63
      vertex 2.8479967101425565 -1.5656994408305749 63
      vertex 2.629305231718579 -1.9103020699505378 63
    endloop
  endfacet
  facet normal 0 0 1
    outer loop
      vertex 3.7507875648529736 -5.910295478514107 63
      vertex 3.0217735791368163 -1.1964047962252047 63
      vertex 2.8479967101425565 -1.5656994408305749 63
    endloop
  endfacet
  facet normal 0 0 1
    outer loop
      vertex 3.7507875648529736 -5.910295478514107 63
      vertex 3.1478952736680514 -0.8082421332857769 63
      vertex 3.0217735791368163 -1.1964047962252047 63
    endloop
  endfacet
  facet normal 0 0 1
    outer loop
      vertex 3.7507875648529736 -5.910295478514107 63
      vertex 3.224372779272053 -0.40733300908398823 63
      vertex 3.1478952736680514 -0.8082421332857769 63
    endloop
  endfacet
  facet normal 0 0 1
    outer loop
      vertex 3.7507875648529736 -5.910295478514107 63
      vertex 3.25 0 63
      vertex 3.224372779272053 -0.40733300908398823 63
    endloop
  endfacet
  facet normal 0.5877852522924729 -0.8090169943749476 0
    outer loop
      vertex 3.7507875648529736 -5.910295478514107 0
      vertex 4.4619679282408296 -5.393592699430523 63
      vertex 3.7507875648529736 -5.910295478514107 63
    endloop
  endfacet
  facet normal 0.6845471059286888 -0.7289686274214113 0
    outer loop
      vertex 4.4619679282408296 -5.393592699430523 0
      vertex 5.1027803919498815 -4.79182974150082 63
      vertex 4.4619679282408296 -5.393592699430523 63
    endloop
  endfacet
  facet normal 0.7705132427757893 -0.6374239897486897 0
    outer loop
      vertex 5.663118960624632 -4.114496766047312 0
      vertex 5.663118960624632 -4.114496766047312 63
      vertex 5.1027803919498815 -4.79182974150082 63
    endloop
  endfacet
  facet normal 0.8443279255020152 -0.5358267949789964 0
    outer loop
      vertex 6.134146760307044 -3.372275718712008 0
      vertex 6.134146760307044 -3.372275718712008 63
      vertex 5.663118960624632 -4.114496766047312 63
    endloop
  endfacet
  facet normal 0.9048270524660191 -0.4257792915650735 0
    outer loop
      vertex 6.508435401217759 -2.5768718687927485 0
      vertex 6.508435401217759 -2.5768718687927485 63
      vertex 6.134146760307044 -3.372275718712008 63
    endloop
  endfacet
  facet normal 0.9510565162951536 -0.3090169943749471 0
    outer loop
      vertex 6.780082127900418 -1.740829210153981 0
      vertex 6.780082127900418 -1.740829210153981 63
      vertex 6.508435401217759 -2.5768718687927485 63
    endloop
  endfacet
  facet normal 0.9822872507286886 -0.18738131458572496 0
    outer loop
      vertex 6.9448029092013455 -0.8773326349501285 0
      vertex 6.9448029092013455 -0.8773326349501285 63
      vertex 6.780082127900418 -1.740829210153981 63
    endloop
  endfacet
  facet normal 0.9980267284282716 -0.06279051952931272 0
    outer loop
      vertex 6.9448029092013455 -0.8773326349501285 63
      vertex 7 0 0
      vertex 7 0 63
    endloop
  endfacet
  facet normal 0 0 1
    outer loop
      vertex 3.7507875648529736 -5.910295478514107 63
      vertex 4.4619679282408296 -5.393592699430523 63
      vertex 3.7507875648529767 5.910295478514105 63
    endloop
  endfacet
  facet normal 0 0 1
    outer loop
      vertex 4.4619679282408296 -5.393592699430523 63
      vertex 5.1027803919498815 -4.79182974150082 63
      vertex 4.461967928240828 5.393592699430524 63
    endloop
  endfacet
  facet normal 0 0 1
    outer loop
      vertex 5.1027803919498815 -4.79182974150082 63
      vertex 5.663118960624632 -4.114496766047312 63
      vertex 5.102780391949881 4.7918297415008215 63
    endloop
  endfacet
  facet normal 0 0 1
    outer loop
      vertex 5.663118960624632 -4.114496766047312 63
      vertex 6.134146760307044 -3.372275718712008 63
      vertex 5.663118960624632 4.114496766047312 63
    endloop
  endfacet
  facet normal 0 0 1
    outer loop
      vertex 6.134146760307044 -3.372275718712008 63
      vertex 6.508435401217759 -2.5768718687927485 63
      vertex 6.134146760307045 3.3722757187120074 63
    endloop
  endfacet
  facet normal 0 0 1
    outer loop
      vertex 6.508435401217759 -2.5768718687927485 63
      vertex 6.780082127900418 -1.740829210153981 63
      vertex 6.50843540121776 2.576871868792746 63
    endloop
  endfacet
  facet normal 0 0 1
    outer loop
      vertex 6.780082127900418 -1.740829210153981 63
      vertex 6.9448029092013455 -0.8773326349501285 63
      vertex 6.7800821279004175 1.7408292101539835 63
    endloop
  endfacet
  facet normal 0 0 -1
    outer loop
      vertex 3.7507875648529767 5.910295478514105 0
      vertex 3.224372779272053 -0.40733300908398823 0
      vertex 3.25 0 0
    endloop
  endfacet
  facet normal 0 0 -1
    outer loop
      vertex 3.7507875648529767 5.910295478514105 0
      vertex 3.25 0 0
      vertex 3.224372779272053 0.40733300908398884 0
    endloop
  endfacet
  facet normal 0 0 -1
    outer loop
      vertex 3.7507875648529767 5.910295478514105 0
      vertex 3.224372779272053 0.40733300908398884 0
      vertex 3.147895273668051 0.8082421332857781 0
    endloop
  endfacet
  facet normal 0 0 -1
    outer loop
      vertex 2.980455040955509 6.333789367262137 0
      vertex 2.8479967101425565 1.5656994408305749 0
      vertex 2.629305231718579 1.9103020699505378 0
    endloop
  endfacet
  facet normal 0 0 -1
    outer loop
      vertex 2.980455040955509 6.333789367262137 0
      vertex 2.629305231718579 1.9103020699505378 0
      vertex 2.3691480391195876 2.2247780942682382 0
    endloop
  endfacet
  facet normal 0 0 -1
    outer loop
      vertex 3.7507875648529767 5.910295478514105 0
      vertex 3.0217735791368168 1.1964047962252033 0
      vertex 2.8479967101425565 1.5656994408305749 0
    endloop
  endfacet
  facet normal 0 0 -1
    outer loop
      vertex 3.7507875648529767 5.910295478514105 0
      vertex 3.147895273668051 0.8082421332857781 0
      vertex 3.0217735791368168 1.1964047962252033 0
    endloop
  endfacet
  facet normal 0 0 -1
    outer loop
      vertex 1.311669202100072 6.876010755100821 0
      vertex 0.6089892724036049 3.1924335648682383 0
      vertex 0.20406918847026725 3.2435868673918824 0
    endloop
  endfacet
  facet normal 0 0 -1
    outer loop
      vertex 2.1631189606246317 6.657395614066075 0
      vertex 1.3837826975864864 2.9406879205145633 0
      vertex 1.004305231718579 3.090933677959249 0
    endloop
  endfacet
  facet normal 0 0 -1
    outer loop
      vertex 1.311669202100072 6.876010755100821 0
      vertex 1.004305231718579 3.090933677959249 0
      vertex 0.6089892724036049 3.1924335648682383 0
    endloop
  endfacet
  facet normal 0 0 -1
    outer loop
      vertex -0.43953363670519296 6.986187098997901 0
      vertex 0.43953363670519296 6.986187098997901 0
      vertex 0.20406918847026725 3.2435868673918824 0
    endloop
  endfacet
  facet normal 0 0 -1
    outer loop
      vertex 0.43953363670519296 6.986187098997901 0
      vertex 1.311669202100072 6.876010755100821 0
      vertex 0.20406918847026725 3.2435868673918824 0
    endloop
  endfacet
  facet normal 0 0 -1
    outer loop
      vertex 1.311669202100072 6.876010755100821 0
      vertex 2.1631189606246317 6.657395614066075 0
      vertex 1.004305231718579 3.090933677959249 0
    endloop
  endfacet
  facet normal 0 0 -1
    outer loop
      vertex 2.1631189606246317 6.657395614066075 0
      vertex 1.7414370836817392 2.744065757881549 0
      vertex 1.3837826975864864 2.9406879205145633 0
    endloop
  endfacet
  facet normal 0 0 -1
    outer loop
      vertex 2.1631189606246317 6.657395614066075 0
      vertex 2.071627966683242 2.5041680390213146 0
      vertex 1.7414370836817392 2.744065757881549 0
    endloop
  endfacet
  facet normal 0 0 -1
    outer loop
      vertex 2.980455040955509 6.333789367262137 0
      vertex 2.3691480391195876 2.2247780942682382 0
      vertex 2.071627966683242 2.5041680390213146 0
    endloop
  endfacet
  facet normal 0 0 -1
    outer loop
      vertex 2.1631189606246317 6.657395614066075 0
      vertex 2.980455040955509 6.333789367262137 0
      vertex 2.071627966683242 2.5041680390213146 0
    endloop
  endfacet
  facet normal 0 0 -1
    outer loop
      vertex 2.980455040955509 6.333789367262137 0
      vertex 3.7507875648529767 5.910295478514105 0
      vertex 2.8479967101425565 1.5656994408305749 0
    endloop
  endfacet
  facet normal 0.12533323356430373 0.9921147013144779 0
    outer loop
      vertex 0.43953363670519296 6.986187098997901 0
      vertex 0.43953363670519296 6.986187098997901 63
      vertex 1.311669202100072 6.876010755100821 0
    endloop
  endfacet
  facet normal 0.24868988716485535 0.9685831611286311 0
    outer loop
      vertex 1.311669202100072 6.876010755100821 0
      vertex 1.311669202100072 6.876010755100821 63
      vertex 2.1631189606246317 6.657395614066075 0
    endloop
  endfacet
  facet normal 0.3681245526846774 0.9297764858882516 0
    outer loop
      vertex 2.1631189606246317 6.657395614066075 0
      vertex 2.1631189606246317 6.657395614066075 63
      vertex 2.980455040955509 6.333789367262137 0
    endloop
  endfacet
  facet normal 0.4817536741017153 0.8763066800438635 0
    outer loop
      vertex 2.980455040955509 6.333789367262137 0
      vertex 2.980455040955509 6.333789367262137 63
      vertex 3.7507875648529767 5.910295478514105 0
    endloop
  endfacet
  facet normal 0 0 -1
    outer loop
      vertex 4.4619679282408296 -5.393592699430523 0
      vertex 4.461967928240828 5.393592699430524 0
      vertex 5.102780391949881 4.7918297415008215 0
    endloop
  endfacet
  facet normal 0 0 -1
    outer loop
      vertex 3.7507875648529736 -5.910295478514107 0
      vertex 3.7507875648529767 5.910295478514105 0
      vertex 4.461967928240828 5.393592699430524 0
    endloop
  endfacet
  facet normal 0 0 -1
    outer loop
      vertex 5.1027803919498815 -4.79182974150082 0
      vertex 5.102780391949881 4.7918297415008215 0
      vertex 5.663118960624632 4.114496766047312 0
    endloop
  endfacet
  facet normal 0 0 -1
    outer loop
      vertex 5.663118960624632 -4.114496766047312 0
      vertex 5.663118960624632 4.114496766047312 0
      vertex 6.134146760307045 3.3722757187120074 0
    endloop
  endfacet
  facet normal 0 0 -1
    outer loop
      vertex 6.134146760307044 -3.372275718712008 0
      vertex 6.134146760307045 3.3722757187120074 0
      vertex 6.50843540121776 2.576871868792746 0
    endloop
  endfacet
  facet normal 0 0 -1
    outer loop
      vertex 6.9448029092013455 -0.8773326349501285 0
      vertex 6.9448029092013455 0.8773326349501298 0
      vertex 7 0 0
    endloop
  endfacet
  facet normal 0 0 -1
    outer loop
      vertex 6.780082127900418 -1.740829210153981 0
      vertex 6.7800821279004175 1.7408292101539835 0
      vertex 6.9448029092013455 0.8773326349501298 0
    endloop
  endfacet
  facet normal 0 0 -1
    outer loop
      vertex 6.508435401217759 -2.5768718687927485 0
      vertex 6.50843540121776 2.576871868792746 0
      vertex 6.7800821279004175 1.7408292101539835 0
    endloop
  endfacet
  facet normal 0.9980267284282716 0.06279051952931262 0
    outer loop
      vertex 7 0 0
      vertex 6.9448029092013455 0.8773326349501298 0
      vertex 7 0 63
    endloop
  endfacet
  facet normal 0.9822872507286885 0.18738131458572568 0
    outer loop
      vertex 6.9448029092013455 0.8773326349501298 0
      vertex 6.7800821279004175 1.7408292101539835 0
      vertex 6.9448029092013455 0.8773326349501298 63
    endloop
  endfacet
  facet normal 0.9510565162951536 0.30901699437494695 0
    outer loop
      vertex 6.7800821279004175 1.7408292101539835 0
      vertex 6.50843540121776 2.576871868792746 0
      vertex 6.7800821279004175 1.7408292101539835 63
    endloop
  endfacet
  facet normal 0.9048270524660196 0.4257792915650725 0
    outer loop
      vertex 6.50843540121776 2.576871868792746 0
      vertex 6.134146760307045 3.3722757187120074 0
      vertex 6.50843540121776 2.576871868792746 63
    endloop
  endfacet
  facet normal 0.6845471059286878 0.7289686274214123 0
    outer loop
      vertex 5.102780391949881 4.7918297415008215 0
      vertex 4.461967928240828 5.393592699430524 0
      vertex 4.461967928240828 5.393592699430524 63
    endloop
  endfacet
  facet normal 0.5877852522924737 0.809016994374947 0
    outer loop
      vertex 3.7507875648529767 5.910295478514105 0
      vertex 3.7507875648529767 5.910295478514105 63
      vertex 4.461967928240828 5.393592699430524 0
    endloop
  endfacet
  facet normal 0.7705132427757895 0.6374239897486893 0
    outer loop
      vertex 5.102780391949881 4.7918297415008215 0
      vertex 5.663118960624632 4.114496766047312 63
      vertex 5.663118960624632 4.114496766047312 0
    endloop
  endfacet
  facet normal 0.844327925502015 0.5358267949789969 0
    outer loop
      vertex 6.134146760307045 3.3722757187120074 0
      vertex 5.663118960624632 4.114496766047312 0
      vertex 6.134146760307045 3.3722757187120074 63
    endloop
  endfacet
  facet normal 0 0 1
    outer loop
      vertex 3.7507875648529736 -5.910295478514107 63
      vertex 2.980455040955509 6.333789367262137 63
      vertex 3.25 0 63
    endloop
  endfacet
  facet normal 0 0 1
    outer loop
      vertex 3.7507875648529736 -5.910295478514107 63
      vertex 3.7507875648529767 5.910295478514105 63
      vertex 2.980455040955509 6.333789367262137 63
    endloop
  endfacet
  facet normal 0 0 1
    outer loop
      vertex 2.980455040955509 6.333789367262137 63
      vertex 3.224372779272053 0.40733300908398884 63
      vertex 3.25 0 63
    endloop
  endfacet
  facet normal 0 0 1
    outer loop
      vertex 2.980455040955509 6.333789367262137 63
      vertex 3.147895273668051 0.8082421332857781 63
      vertex 3.224372779272053 0.40733300908398884 63
    endloop
  endfacet
  facet normal 0 0 1
    outer loop
      vertex 2.980455040955509 6.333789367262137 63
      vertex 3.0217735791368168 1.1964047962252033 63
      vertex 3.147895273668051 0.8082421332857781 63
    endloop
  endfacet
  facet normal 0 0 1
    outer loop
      vertex 2.980455040955509 6.333789367262137 63
      vertex 2.8479967101425565 1.5656994408305749 63
      vertex 3.0217735791368168 1.1964047962252033 63
    endloop
  endfacet
  facet normal 0 0 1
    outer loop
      vertex 2.980455040955509 6.333789367262137 63
      vertex 2.629305231718579 1.9103020699505378 63
      vertex 2.8479967101425565 1.5656994408305749 63
    endloop
  endfacet
  facet normal 0 1 0
    outer loop
      vertex -0.43953363670519296 6.986187098997901 63
      vertex 0.43953363670519296 6.986187098997901 63
      vertex 0.43953363670519296 6.986187098997901 0
    endloop
  endfacet
  facet normal 0.12533323356430373 0.9921147013144779 0
    outer loop
      vertex 1.311669202100072 6.876010755100821 0
      vertex 0.43953363670519296 6.986187098997901 63
      vertex 1.311669202100072 6.876010755100821 63
    endloop
  endfacet
  facet normal 0.24868988716485535 0.9685831611286311 0
    outer loop
      vertex 2.1631189606246317 6.657395614066075 0
      vertex 1.311669202100072 6.876010755100821 63
      vertex 2.1631189606246317 6.657395614066075 63
    endloop
  endfacet
  facet normal 0.4817536741017153 0.8763066800438635 0
    outer loop
      vertex 3.7507875648529767 5.910295478514105 0
      vertex 2.980455040955509 6.333789367262137 63
      vertex 3.7507875648529767 5.910295478514105 63
    endloop
  endfacet
  facet normal 0.3681245526846774 0.9297764858882516 0
    outer loop
      vertex 2.980455040955509 6.333789367262137 0
      vertex 2.1631189606246317 6.657395614066075 63
      vertex 2.980455040955509 6.333789367262137 63
    endloop
  endfacet
  facet normal 0 0 1
    outer loop
      vertex 0.43953363670519296 6.986187098997901 63
      vertex -0.20406918847026725 3.2435868673918824 63
      vertex 0.20406918847026814 3.2435868673918824 63
    endloop
  endfacet
  facet normal 0 0 1
    outer loop
      vertex 0.43953363670519296 6.986187098997901 63
      vertex 0.20406918847026814 3.2435868673918824 63
      vertex 0.6089892724036049 3.1924335648682383 63
    endloop
  endfacet
  facet normal 0 0 1
    outer loop
      vertex 0.43953363670519296 6.986187098997901 63
      vertex 0.6089892724036049 3.1924335648682383 63
      vertex 1.004305231718579 3.090933677959249 63
    endloop
  endfacet
  facet normal 0 0 1
    outer loop
      vertex 1.311669202100072 6.876010755100821 63
      vertex 1.004305231718579 3.090933677959249 63
      vertex 1.3837826975864864 2.9406879205145633 63
    endloop
  endfacet
  facet normal 0 0 1
    outer loop
      vertex 1.311669202100072 6.876010755100821 63
      vertex 1.3837826975864864 2.9406879205145633 63
      vertex 1.7414370836817392 2.744065757881549 63
    endloop
  endfacet
  facet normal 0 0 1
    outer loop
      vertex 0.43953363670519296 6.986187098997901 63
      vertex 1.004305231718579 3.090933677959249 63
      vertex 1.311669202100072 6.876010755100821 63
    endloop
  endfacet
  facet normal 0 0 1
    outer loop
      vertex 1.311669202100072 6.876010755100821 63
      vertex 1.7414370836817392 2.744065757881549 63
      vertex 2.1631189606246317 6.657395614066075 63
    endloop
  endfacet
  facet normal 0 0 1
    outer loop
      vertex 2.1631189606246317 6.657395614066075 63
      vertex 1.7414370836817392 2.744065757881549 63
      vertex 2.071627966683242 2.5041680390213146 63
    endloop
  endfacet
  facet normal 0 0 1
    outer loop
      vertex 2.1631189606246317 6.657395614066075 63
      vertex 2.3691480391195876 2.2247780942682382 63
      vertex 2.629305231718579 1.9103020699505378 63
    endloop
  endfacet
  facet normal 0 0 1
    outer loop
      vertex 2.1631189606246317 6.657395614066075 63
      vertex 2.071627966683242 2.5041680390213146 63
      vertex 2.3691480391195876 2.2247780942682382 63
    endloop
  endfacet
  facet normal 0 0 1
    outer loop
      vertex 2.1631189606246317 6.657395614066075 63
      vertex 2.629305231718579 1.9103020699505378 63
      vertex 2.980455040955509 6.333789367262137 63
    endloop
  endfacet
  facet normal 0.9980267284282716 0.06279051952931262 0
    outer loop
      vertex 6.9448029092013455 0.8773326349501298 0
      vertex 6.9448029092013455 0.8773326349501298 63
      vertex 7 0 63
    endloop
  endfacet
  facet normal 0.9822872507286885 0.18738131458572568 0
    outer loop
      vertex 6.7800821279004175 1.7408292101539835 0
      vertex 6.7800821279004175 1.7408292101539835 63
      vertex 6.9448029092013455 0.8773326349501298 63
    endloop
  endfacet
  facet normal 0.9510565162951536 0.30901699437494695 0
    outer loop
      vertex 6.50843540121776 2.576871868792746 0
      vertex 6.50843540121776 2.576871868792746 63
      vertex 6.7800821279004175 1.7408292101539835 63
    endloop
  endfacet
  facet normal 0.9048270524660196 0.4257792915650725 0
    outer loop
      vertex 6.134146760307045 3.3722757187120074 0
      vertex 6.134146760307045 3.3722757187120074 63
      vertex 6.50843540121776 2.576871868792746 63
    endloop
  endfacet
  facet normal 0 0 1
    outer loop
      vertex 4.4619679282408296 -5.393592699430523 63
      vertex 4.461967928240828 5.393592699430524 63
      vertex 3.7507875648529767 5.910295478514105 63
    endloop
  endfacet
  facet normal 0 0 1
    outer loop
      vertex 5.1027803919498815 -4.79182974150082 63
      vertex 5.102780391949881 4.7918297415008215 63
      vertex 4.461967928240828 5.393592699430524 63
    endloop
  endfacet
  facet normal 0 0 1
    outer loop
      vertex 5.663118960624632 -4.114496766047312 63
      vertex 5.663118960624632 4.114496766047312 63
      vertex 5.102780391949881 4.7918297415008215 63
    endloop
  endfacet
  facet normal 0 0 1
    outer loop
      vertex 6.134146760307044 -3.372275718712008 63
      vertex 6.134146760307045 3.3722757187120074 63
      vertex 5.663118960624632 4.114496766047312 63
    endloop
  endfacet
  facet normal 0 0 1
    outer loop
      vertex 6.9448029092013455 -0.8773326349501285 63
      vertex 7 0 63
      vertex 6.9448029092013455 0.8773326349501298 63
    endloop
  endfacet
  facet normal 0 0 1
    outer loop
      vertex 6.780082127900418 -1.740829210153981 63
      vertex 6.7800821279004175 1.7408292101539835 63
      vertex 6.50843540121776 2.576871868792746 63
    endloop
  endfacet
  facet normal 0 0 1
    outer loop
      vertex 6.9448029092013455 -0.8773326349501285 63
      vertex 6.9448029092013455 0.8773326349501298 63
      vertex 6.7800821279004175 1.7408292101539835 63
    endloop
  endfacet
  facet normal 0 0 1
    outer loop
      vertex 6.508435401217759 -2.5768718687927485 63
      vertex 6.50843540121776 2.576871868792746 63
      vertex 6.134146760307045 3.3722757187120074 63
    endloop
  endfacet
  facet normal 0.6845471059286878 0.7289686274214123 0
    outer loop
      vertex 5.102780391949881 4.7918297415008215 0
      vertex 4.461967928240828 5.393592699430524 63
      vertex 5.102780391949881 4.7918297415008215 63
    endloop
  endfacet
  facet normal 0.5877852522924737 0.809016994374947 0
    outer loop
      vertex 4.461967928240828 5.393592699430524 0
      vertex 3.7507875648529767 5.910295478514105 63
      vertex 4.461967928240828 5.393592699430524 63
    endloop
  endfacet
  facet normal 0.844327925502015 0.5358267949789969 0
    outer loop
      vertex 5.663118960624632 4.114496766047312 0
      vertex 5.663118960624632 4.114496766047312 63
      vertex 6.134146760307045 3.3722757187120074 63
    endloop
  endfacet
  facet normal 0.7705132427757895 0.6374239897486893 0
    outer loop
      vertex 5.102780391949881 4.7918297415008215 0
      vertex 5.102780391949881 4.7918297415008215 63
      vertex 5.663118960624632 4.114496766047312 63
    endloop
  endfacet
endsolid OpenSCAD_Model
