solid OpenSCAD_Model
  facet normal 0.6845471059286887 0.7289686274214113 0
    outer loop
      vertex -2.369148039119588 -2.224778094268238 0
      vertex -2.369148039119588 -2.224778094268238 70
      vertex -2.0716279666832413 -2.5041680390213155 0
    endloop
  endfacet
  facet normal 0.7705132427757897 0.6374239897486893 0
    outer loop
      vertex -2.369148039119588 -2.224778094268238 0
      vertex -2.629305231718579 -1.9103020699505378 0
      vertex -2.629305231718579 -1.9103020699505378 70
    endloop
  endfacet
  facet normal 0.5877852522924726 0.8090169943749479 0
    outer loop
      vertex -1.7414370836817394 -2.7440657578815486 0
      vertex -2.0716279666832413 -2.5041680390213155 0
      vertex -2.0716279666832413 -2.5041680390213155 70
    endloop
  endfacet
  facet normal 0.9510565162951538 0.3090169943749472 0
    outer loop
      vertex -3.021773579136817 -1.1964047962252031 0
      vertex -3.147895273668051 -0.8082421332857783 0
      vertex -3.147895273668051 -0.8082421332857783 70
    endloop
  endfacet
  facet normal 0.9048270524660194 0.42577929156507277 0
    outer loop
      vertex -2.8479967101425565 -1.5656994408305749 0
      vertex -3.021773579136817 -1.1964047962252031 0
      vertex -3.021773579136817 -1.1964047962252031 70
    endloop
  endfacet
  facet normal 0.844327925502015 0.5358267949789968 0
    outer loop
      vertex -2.8479967101425565 -1.5656994408305749 70
      vertex -2.629305231718579 -1.9103020699505378 0
      vertex -2.8479967101425565 -1.5656994408305749 0
    endloop
  endfacet
  facet normal 0.9822872507286887 0.1873813145857245 0
    outer loop
      vertex -3.147895273668051 -0.8082421332857783 0
      vertex -3.224372779272053 -0.40733300908398823 0
      vertex -3.224372779272053 -0.40733300908398823 70
    endloop
  endfacet
  facet normal 0.9980267284282716 0.06279051952931358 0
    outer loop
      vertex -3.224372779272053 -0.40733300908398823 0
      vertex -3.25 0 0
      vertex -3.25 0 70
    endloop
  endfacet
  facet normal 0.4817536741017155 0.8763066800438635 0
    outer loop
      vertex -1.7414370836817394 -2.7440657578815486 70
      vertex -1.3837826975864855 -2.9406879205145637 0
      vertex -1.7414370836817394 -2.7440657578815486 0
    endloop
  endfacet
  facet normal 0.36812455268467736 0.9297764858882517 0
    outer loop
      vertex -1.004305231718579 -3.090933677959249 0
      vertex -1.3837826975864855 -2.9406879205145637 0
      vertex -1.3837826975864855 -2.9406879205145637 70
    endloop
  endfacet
  facet normal 0.24868988716485485 0.9685831611286312 0
    outer loop
      vertex -1.004305231718579 -3.090933677959249 0
      vertex -1.004305231718579 -3.090933677959249 70
      vertex -0.6089892724036057 -3.192433564868238 0
    endloop
  endfacet
  facet normal 0.12533323356430495 0.9921147013144778 0
    outer loop
      vertex -0.20406918847026972 -3.2435868673918824 0
      vertex -0.6089892724036057 -3.192433564868238 0
      vertex -0.6089892724036057 -3.192433564868238 70
    endloop
  endfacet
  facet normal 0 1 0
    outer loop
      vertex -0.20406918847026972 -3.2435868673918824 70
      vertex 0.20406918847026972 -3.2435868673918824 0
      vertex -0.20406918847026972 -3.2435868673918824 0
    endloop
  endfacet
  facet normal 0.844327925502015 0.5358267949789968 0
    outer loop
      vertex -2.8479967101425565 -1.5656994408305749 70
      vertex -2.629305231718579 -1.9103020699505378 70
      vertex -2.629305231718579 -1.9103020699505378 0
    endloop
  endfacet
  facet normal 0.5877852522924726 0.8090169943749479 0
    outer loop
      vertex -1.7414370836817394 -2.7440657578815486 0
      vertex -2.0716279666832413 -2.5041680390213155 70
      vertex -1.7414370836817394 -2.7440657578815486 70
    endloop
  endfacet
  facet normal 0.7705132427757897 0.6374239897486893 0
    outer loop
      vertex -2.629305231718579 -1.9103020699505378 70
      vertex -2.369148039119588 -2.224778094268238 70
      vertex -2.369148039119588 -2.224778094268238 0
    endloop
  endfacet
  facet normal 0.6845471059286887 0.7289686274214113 0
    outer loop
      vertex -2.0716279666832413 -2.5041680390213155 70
      vertex -2.0716279666832413 -2.5041680390213155 0
      vertex -2.369148039119588 -2.224778094268238 70
    endloop
  endfacet
  facet normal 0.9510565162951538 0.3090169943749472 0
    outer loop
      vertex -3.021773579136817 -1.1964047962252031 0
      vertex -3.147895273668051 -0.8082421332857783 70
      vertex -3.021773579136817 -1.1964047962252031 70
    endloop
  endfacet
  facet normal 0.9048270524660194 0.42577929156507277 0
    outer loop
      vertex -3.021773579136817 -1.1964047962252031 70
      vertex -2.8479967101425565 -1.5656994408305749 70
      vertex -2.8479967101425565 -1.5656994408305749 0
    endloop
  endfacet
  facet normal 0.9822872507286887 0.1873813145857245 0
    outer loop
      vertex -3.147895273668051 -0.8082421332857783 0
      vertex -3.224372779272053 -0.40733300908398823 70
      vertex -3.147895273668051 -0.8082421332857783 70
    endloop
  endfacet
  facet normal 0.9980267284282716 0.06279051952931358 0
    outer loop
      vertex -3.224372779272053 -0.40733300908398823 0
      vertex -3.25 0 70
      vertex -3.224372779272053 -0.40733300908398823 70
    endloop
  endfacet
  facet normal 0.4817536741017155 0.8763066800438635 0
    outer loop
      vertex -1.3837826975864855 -2.9406879205145637 0
      vertex -1.7414370836817394 -2.7440657578815486 70
      vertex -1.3837826975864855 -2.9406879205145637 70
    endloop
  endfacet
  facet normal 0.36812455268467736 0.9297764858882517 0
    outer loop
      vertex -1.004305231718579 -3.090933677959249 0
      vertex -1.3837826975864855 -2.9406879205145637 70
      vertex -1.004305231718579 -3.090933677959249 70
    endloop
  endfacet
  facet normal 0.24868988716485485 0.9685831611286312 0
    outer loop
      vertex -0.6089892724036057 -3.192433564868238 0
      vertex -1.004305231718579 -3.090933677959249 70
      vertex -0.6089892724036057 -3.192433564868238 70
    endloop
  endfacet
  facet normal 0.12533323356430495 0.9921147013144778 0
    outer loop
      vertex -0.20406918847026972 -3.2435868673918824 0
      vertex -0.6089892724036057 -3.192433564868238 70
      vertex -0.20406918847026972 -3.2435868673918824 70
    endloop
  endfacet
  facet normal 0.9980267284282716 -0.06279051952931358 0
    outer loop
      vertex -3.25 0 0
      vertex -3.224372779272053 0.40733300908398823 0
      vertex -3.224372779272053 0.40733300908398823 70
    endloop
  endfacet
  facet normal 0.9822872507286887 -0.1873813145857245 0
    outer loop
      vertex -3.224372779272053 0.40733300908398823 0
      vertex -3.147895273668051 0.8082421332857783 0
      vertex -3.147895273668051 0.8082421332857783 70
    endloop
  endfacet
  facet normal 0.9510565162951538 -0.3090169943749472 0
    outer loop
      vertex -3.147895273668051 0.8082421332857783 0
      vertex -3.021773579136817 1.1964047962252031 0
      vertex -3.021773579136817 1.1964047962252031 70
    endloop
  endfacet
  facet normal 0.9048270524660194 -0.42577929156507277 0
    outer loop
      vertex -2.8479967101425565 1.5656994408305749 70
      vertex -3.021773579136817 1.1964047962252031 0
      vertex -2.8479967101425565 1.5656994408305749 0
    endloop
  endfacet
  facet normal 0.844327925502015 -0.5358267949789968 0
    outer loop
      vertex -2.8479967101425565 1.5656994408305749 0
      vertex -2.629305231718579 1.9103020699505378 0
      vertex -2.629305231718579 1.9103020699505378 70
    endloop
  endfacet
  facet normal 0.7705132427757897 -0.6374239897486893 0
    outer loop
      vertex -2.629305231718579 1.9103020699505378 0
      vertex -2.369148039119588 2.224778094268238 0
      vertex -2.369148039119588 2.224778094268238 70
    endloop
  endfacet
  facet normal 0.6845471059286887 -0.7289686274214113 0
    outer loop
      vertex -2.369148039119588 2.224778094268238 0
      vertex -2.0716279666832413 2.5041680390213155 0
      vertex -2.0716279666832413 2.5041680390213155 70
    endloop
  endfacet
  facet normal 0.5877852522924726 -0.8090169943749479 0
    outer loop
      vertex -1.7414370836817394 2.7440657578815486 0
      vertex -1.7414370836817394 2.7440657578815486 70
      vertex -2.0716279666832413 2.5041680390213155 0
    endloop
  endfacet
  facet normal 0.4817536741017156 -0.8763066800438634 0
    outer loop
      vertex -1.3837826975864864 2.9406879205145633 0
      vertex -1.3837826975864864 2.9406879205145633 70
      vertex -1.7414370836817394 2.7440657578815486 0
    endloop
  endfacet
  facet normal 0.36812455268467753 -0.9297764858882516 0
    outer loop
      vertex -1.004305231718579 3.090933677959249 70
      vertex -1.3837826975864864 2.9406879205145633 0
      vertex -1.004305231718579 3.090933677959249 0
    endloop
  endfacet
  facet normal 0.24868988716485538 -0.968583161128631 0
    outer loop
      vertex -1.004305231718579 3.090933677959249 0
      vertex -0.6089892724036049 3.1924335648682383 0
      vertex -0.6089892724036049 3.1924335648682383 70
    endloop
  endfacet
  facet normal 0.12533323356430362 -0.9921147013144779 -1.5902610474721412e-18
    outer loop
      vertex -0.20406918847026725 3.2435868673918824 70
      vertex -0.6089892724036049 3.1924335648682383 0
      vertex -0.20406918847026814 3.2435868673918824 0
    endloop
  endfacet
  facet normal 0.9980267284282716 -0.06279051952931358 0
    outer loop
      vertex -3.25 0 0
      vertex -3.224372779272053 0.40733300908398823 70
      vertex -3.25 0 70
    endloop
  endfacet
  facet normal 0.9822872507286887 -0.1873813145857245 0
    outer loop
      vertex -3.224372779272053 0.40733300908398823 0
      vertex -3.147895273668051 0.8082421332857783 70
      vertex -3.224372779272053 0.40733300908398823 70
    endloop
  endfacet
  facet normal 0.9510565162951538 -0.3090169943749472 0
    outer loop
      vertex -3.147895273668051 0.8082421332857783 0
      vertex -3.021773579136817 1.1964047962252031 70
      vertex -3.147895273668051 0.8082421332857783 70
    endloop
  endfacet
  facet normal 0.9048270524660194 -0.42577929156507277 0
    outer loop
      vertex -2.8479967101425565 1.5656994408305749 70
      vertex -3.021773579136817 1.1964047962252031 70
      vertex -3.021773579136817 1.1964047962252031 0
    endloop
  endfacet
  facet normal 0.844327925502015 -0.5358267949789968 0
    outer loop
      vertex -2.629305231718579 1.9103020699505378 70
      vertex -2.8479967101425565 1.5656994408305749 70
      vertex -2.8479967101425565 1.5656994408305749 0
    endloop
  endfacet
  facet normal 0.7705132427757897 -0.6374239897486893 0
    outer loop
      vertex -2.629305231718579 1.9103020699505378 0
      vertex -2.369148039119588 2.224778094268238 70
      vertex -2.629305231718579 1.9103020699505378 70
    endloop
  endfacet
  facet normal 0.6845471059286887 -0.7289686274214113 0
    outer loop
      vertex -2.369148039119588 2.224778094268238 0
      vertex -2.0716279666832413 2.5041680390213155 70
      vertex -2.369148039119588 2.224778094268238 70
    endloop
  endfacet
  facet normal 0.5877852522924726 -0.8090169943749479 0
    outer loop
      vertex -2.0716279666832413 2.5041680390213155 70
      vertex -2.0716279666832413 2.5041680390213155 0
      vertex -1.7414370836817394 2.7440657578815486 70
    endloop
  endfacet
  facet normal 0.4817536741017156 -0.8763066800438634 0
    outer loop
      vertex -1.7414370836817394 2.7440657578815486 0
      vertex -1.3837826975864864 2.9406879205145633 70
      vertex -1.7414370836817394 2.7440657578815486 70
    endloop
  endfacet
  facet normal 0.36812455268467753 -0.9297764858882516 0
    outer loop
      vertex -1.3837826975864864 2.9406879205145633 0
      vertex -1.004305231718579 3.090933677959249 70
      vertex -1.3837826975864864 2.9406879205145633 70
    endloop
  endfacet
  facet normal 0.24868988716485538 -0.968583161128631 0
    outer loop
      vertex -1.004305231718579 3.090933677959249 0
      vertex -0.6089892724036049 3.1924335648682383 70
      vertex -1.004305231718579 3.090933677959249 70
    endloop
  endfacet
  facet normal 0.12533323356430337 -0.992114701314478 0
    outer loop
      vertex -0.6089892724036049 3.1924335648682383 0
      vertex -0.20406918847026725 3.2435868673918824 70
      vertex -0.6089892724036049 3.1924335648682383 70
    endloop
  endfacet
  facet normal 0 -1 0
    outer loop
      vertex -0.20406918847026725 3.2435868673918824 70
      vertex -0.20406918847026814 3.2435868673918824 0
      vertex 0.20406918847026814 3.2435868673918824 70
    endloop
  endfacet
  facet normal -0.12533323356430495 0.9921147013144778 0
    outer loop
      vertex 0.20406918847026972 -3.2435868673918824 70
      vertex 0.6089892724036057 -3.192433564868238 0
      vertex 0.20406918847026972 -3.2435868673918824 0
    endloop
  endfacet
  facet normal -0.24868988716485485 0.9685831611286312 0
    outer loop
      vertex 1.004305231718579 -3.090933677959249 0
      vertex 0.6089892724036057 -3.192433564868238 0
      vertex 0.6089892724036057 -3.192433564868238 70
    endloop
  endfacet
  facet normal -0.36812455268467736 0.9297764858882517 0
    outer loop
      vertex 1.004305231718579 -3.090933677959249 70
      vertex 1.3837826975864855 -2.9406879205145637 0
      vertex 1.004305231718579 -3.090933677959249 0
    endloop
  endfacet
  facet normal -0.4817536741017157 0.8763066800438635 0
    outer loop
      vertex 1.3837826975864855 -2.9406879205145637 70
      vertex 1.7414370836817377 -2.7440657578815495 0
      vertex 1.3837826975864855 -2.9406879205145637 0
    endloop
  endfacet
  facet normal -0.5877852522924729 0.8090169943749476 0
    outer loop
      vertex 1.7414370836817377 -2.7440657578815495 0
      vertex 1.7414370836817377 -2.7440657578815495 70
      vertex 2.0716279666832422 -2.504168039021314 0
    endloop
  endfacet
  facet normal -0.6845471059286882 0.728968627421412 0
    outer loop
      vertex 2.369148039119588 -2.224778094268238 0
      vertex 2.0716279666832422 -2.504168039021314 0
      vertex 2.0716279666832422 -2.504168039021314 70
    endloop
  endfacet
  facet normal -0.7705132427757897 0.6374239897486893 0
    outer loop
      vertex 2.629305231718579 -1.9103020699505378 0
      vertex 2.369148039119588 -2.224778094268238 0
      vertex 2.369148039119588 -2.224778094268238 70
    endloop
  endfacet
  facet normal -0.844327925502015 0.5358267949789968 0
    outer loop
      vertex 2.8479967101425565 -1.5656994408305749 0
      vertex 2.629305231718579 -1.9103020699505378 0
      vertex 2.629305231718579 -1.9103020699505378 70
    endloop
  endfacet
  facet normal -0.9048270524660197 0.42577929156507255 0
    outer loop
      vertex 3.0217735791368163 -1.1964047962252047 0
      vertex 2.8479967101425565 -1.5656994408305749 0
      vertex 2.8479967101425565 -1.5656994408305749 70
    endloop
  endfacet
  facet normal -0.9510565162951535 0.3090169943749479 0
    outer loop
      vertex 3.0217735791368163 -1.1964047962252047 70
      vertex 3.1478952736680514 -0.8082421332857769 0
      vertex 3.0217735791368163 -1.1964047962252047 0
    endloop
  endfacet
  facet normal -0.9822872507286888 0.18738131458572407 0
    outer loop
      vertex 3.1478952736680514 -0.8082421332857769 70
      vertex 3.224372779272053 -0.40733300908398823 0
      vertex 3.1478952736680514 -0.8082421332857769 0
    endloop
  endfacet
  facet normal -0.9980267284282716 0.06279051952931358 0
    outer loop
      vertex 3.224372779272053 -0.40733300908398823 0
      vertex 3.224372779272053 -0.40733300908398823 70
      vertex 3.25 0 0
    endloop
  endfacet
  facet normal 0 1 0
    outer loop
      vertex -0.20406918847026972 -3.2435868673918824 70
      vertex 0.20406918847026972 -3.2435868673918824 70
      vertex 0.20406918847026972 -3.2435868673918824 0
    endloop
  endfacet
  facet normal -0.12533323356430495 0.9921147013144778 0
    outer loop
      vertex 0.6089892724036057 -3.192433564868238 70
      vertex 0.6089892724036057 -3.192433564868238 0
      vertex 0.20406918847026972 -3.2435868673918824 70
    endloop
  endfacet
  facet normal -0.24868988716485485 0.9685831611286312 0
    outer loop
      vertex 1.004305231718579 -3.090933677959249 0
      vertex 0.6089892724036057 -3.192433564868238 70
      vertex 1.004305231718579 -3.090933677959249 70
    endloop
  endfacet
  facet normal -0.36812455268467736 0.9297764858882517 0
    outer loop
      vertex 1.3837826975864855 -2.9406879205145637 70
      vertex 1.3837826975864855 -2.9406879205145637 0
      vertex 1.004305231718579 -3.090933677959249 70
    endloop
  endfacet
  facet normal -0.4817536741017157 0.8763066800438635 0
    outer loop
      vertex 1.7414370836817377 -2.7440657578815495 0
      vertex 1.3837826975864855 -2.9406879205145637 70
      vertex 1.7414370836817377 -2.7440657578815495 70
    endloop
  endfacet
  facet normal -0.5877852522924729 0.8090169943749476 0
    outer loop
      vertex 2.0716279666832422 -2.504168039021314 0
      vertex 1.7414370836817377 -2.7440657578815495 70
      vertex 2.0716279666832422 -2.504168039021314 70
    endloop
  endfacet
  facet normal -0.6845471059286882 0.728968627421412 0
    outer loop
      vertex 2.369148039119588 -2.224778094268238 70
      vertex 2.369148039119588 -2.224778094268238 0
      vertex 2.0716279666832422 -2.504168039021314 70
    endloop
  endfacet
  facet normal -0.7705132427757897 0.6374239897486893 0
    outer loop
      vertex 2.629305231718579 -1.9103020699505378 0
      vertex 2.369148039119588 -2.224778094268238 70
      vertex 2.629305231718579 -1.9103020699505378 70
    endloop
  endfacet
  facet normal -0.844327925502015 0.5358267949789968 0
    outer loop
      vertex 2.629305231718579 -1.9103020699505378 70
      vertex 2.8479967101425565 -1.5656994408305749 70
      vertex 2.8479967101425565 -1.5656994408305749 0
    endloop
  endfacet
  facet normal -0.9048270524660197 0.42577929156507255 0
    outer loop
      vertex 2.8479967101425565 -1.5656994408305749 70
      vertex 3.0217735791368163 -1.1964047962252047 70
      vertex 3.0217735791368163 -1.1964047962252047 0
    endloop
  endfacet
  facet normal -0.9510565162951535 0.3090169943749479 0
    outer loop
      vertex 3.0217735791368163 -1.1964047962252047 70
      vertex 3.1478952736680514 -0.8082421332857769 70
      vertex 3.1478952736680514 -0.8082421332857769 0
    endloop
  endfacet
  facet normal -0.9822872507286888 0.18738131458572407 0
    outer loop
      vertex 3.1478952736680514 -0.8082421332857769 70
      vertex 3.224372779272053 -0.40733300908398823 70
      vertex 3.224372779272053 -0.40733300908398823 0
    endloop
  endfacet
  facet normal -0.9980267284282716 0.06279051952931358 0
    outer loop
      vertex 3.224372779272053 -0.40733300908398823 70
      vertex 3.25 0 70
      vertex 3.25 0 0
    endloop
  endfacet
  facet normal 0 -1 0
    outer loop
      vertex -0.20406918847026814 3.2435868673918824 0
      vertex 0.20406918847026725 3.2435868673918824 0
      vertex 0.20406918847026814 3.2435868673918824 70
    endloop
  endfacet
  facet normal -0.12533323356430337 -0.992114701314478 0
    outer loop
      vertex 0.20406918847026725 3.2435868673918824 0
      vertex 0.6089892724036049 3.1924335648682383 0
      vertex 0.6089892724036049 3.1924335648682383 70
    endloop
  endfacet
  facet normal -0.24868988716485538 -0.968583161128631 0
    outer loop
      vertex 1.004305231718579 3.090933677959249 0
      vertex 1.004305231718579 3.090933677959249 70
      vertex 0.6089892724036049 3.1924335648682383 0
    endloop
  endfacet
  facet normal -0.36812455268467753 -0.9297764858882516 0
    outer loop
      vertex 1.004305231718579 3.090933677959249 0
      vertex 1.3837826975864864 2.9406879205145633 0
      vertex 1.3837826975864864 2.9406879205145633 70
    endloop
  endfacet
  facet normal -0.48175367410171493 -0.8763066800438638 0
    outer loop
      vertex 1.7414370836817392 2.744065757881549 70
      vertex 1.3837826975864864 2.9406879205145633 0
      vertex 1.7414370836817392 2.744065757881549 0
    endloop
  endfacet
  facet normal -0.9980267284282716 -0.06279051952931348 0
    outer loop
      vertex 3.25 0 0
      vertex 3.25 0 70
      vertex 3.224372779272053 0.40733300908398884 0
    endloop
  endfacet
  facet normal -0.9822872507286886 -0.18738131458572485 0
    outer loop
      vertex 3.224372779272053 0.40733300908398884 70
      vertex 3.147895273668051 0.8082421332857781 0
      vertex 3.224372779272053 0.40733300908398884 0
    endloop
  endfacet
  facet normal -0.844327925502015 -0.5358267949789968 0
    outer loop
      vertex 2.629305231718579 1.9103020699505378 0
      vertex 2.8479967101425565 1.5656994408305749 0
      vertex 2.8479967101425565 1.5656994408305749 70
    endloop
  endfacet
  facet normal -0.9048270524660198 -0.4257792915650721 0
    outer loop
      vertex 2.8479967101425565 1.5656994408305749 0
      vertex 3.0217735791368168 1.1964047962252033 0
      vertex 3.0217735791368168 1.1964047962252033 70
    endloop
  endfacet
  facet normal -0.9510565162951534 -0.3090169943749478 0
    outer loop
      vertex 3.147895273668051 0.8082421332857781 70
      vertex 3.0217735791368168 1.1964047962252033 0
      vertex 3.147895273668051 0.8082421332857781 0
    endloop
  endfacet
  facet normal -0.5877852522924739 -0.8090169943749469 0
    outer loop
      vertex 1.7414370836817392 2.744065757881549 0
      vertex 2.071627966683242 2.5041680390213146 0
      vertex 2.071627966683242 2.5041680390213146 70
    endloop
  endfacet
  facet normal -0.7705132427757896 -0.6374239897486892 0
    outer loop
      vertex 2.3691480391195876 2.2247780942682382 0
      vertex 2.629305231718579 1.9103020699505378 0
      vertex 2.629305231718579 1.9103020699505378 70
    endloop
  endfacet
  facet normal -0.6845471059286882 -0.728968627421412 0
    outer loop
      vertex 2.071627966683242 2.5041680390213146 0
      vertex 2.3691480391195876 2.2247780942682382 0
      vertex 2.3691480391195876 2.2247780942682382 70
    endloop
  endfacet
  facet normal -0.12533323356430362 -0.9921147013144779 1.5902610474721412e-18
    outer loop
      vertex 0.20406918847026725 3.2435868673918824 0
      vertex 0.6089892724036049 3.1924335648682383 70
      vertex 0.20406918847026814 3.2435868673918824 70
    endloop
  endfacet
  facet normal -0.24868988716485538 -0.968583161128631 0
    outer loop
      vertex 0.6089892724036049 3.1924335648682383 70
      vertex 0.6089892724036049 3.1924335648682383 0
      vertex 1.004305231718579 3.090933677959249 70
    endloop
  endfacet
  facet normal -0.36812455268467753 -0.9297764858882516 0
    outer loop
      vertex 1.004305231718579 3.090933677959249 0
      vertex 1.3837826975864864 2.9406879205145633 70
      vertex 1.004305231718579 3.090933677959249 70
    endloop
  endfacet
  facet normal -0.48175367410171493 -0.8763066800438638 0
    outer loop
      vertex 1.3837826975864864 2.9406879205145633 70
      vertex 1.3837826975864864 2.9406879205145633 0
      vertex 1.7414370836817392 2.744065757881549 70
    endloop
  endfacet
  facet normal -0.9980267284282716 -0.06279051952931348 0
    outer loop
      vertex 3.25 0 70
      vertex 3.224372779272053 0.40733300908398884 70
      vertex 3.224372779272053 0.40733300908398884 0
    endloop
  endfacet
  facet normal -0.9822872507286886 -0.18738131458572485 0
    outer loop
      vertex 3.224372779272053 0.40733300908398884 70
      vertex 3.147895273668051 0.8082421332857781 70
      vertex 3.147895273668051 0.8082421332857781 0
    endloop
  endfacet
  facet normal -0.9048270524660198 -0.4257792915650721 0
    outer loop
      vertex 3.0217735791368168 1.1964047962252033 70
      vertex 2.8479967101425565 1.5656994408305749 70
      vertex 2.8479967101425565 1.5656994408305749 0
    endloop
  endfacet
  facet normal -0.9510565162951534 -0.3090169943749478 0
    outer loop
      vertex 3.147895273668051 0.8082421332857781 70
      vertex 3.0217735791368168 1.1964047962252033 70
      vertex 3.0217735791368168 1.1964047962252033 0
    endloop
  endfacet
  facet normal -0.6845471059286882 -0.728968627421412 0
    outer loop
      vertex 2.071627966683242 2.5041680390213146 0
      vertex 2.3691480391195876 2.2247780942682382 70
      vertex 2.071627966683242 2.5041680390213146 70
    endloop
  endfacet
  facet normal -0.7705132427757896 -0.6374239897486892 0
    outer loop
      vertex 2.629305231718579 1.9103020699505378 70
      vertex 2.3691480391195876 2.2247780942682382 70
      vertex 2.3691480391195876 2.2247780942682382 0
    endloop
  endfacet
  facet normal -0.5877852522924739 -0.8090169943749469 0
    outer loop
      vertex 1.7414370836817392 2.744065757881549 0
      vertex 2.071627966683242 2.5041680390213146 70
      vertex 1.7414370836817392 2.744065757881549 70
    endloop
  endfacet
  facet normal -0.844327925502015 -0.5358267949789968 0
    outer loop
      vertex 2.629305231718579 1.9103020699505378 0
      vertex 2.8479967101425565 1.5656994408305749 70
      vertex 2.629305231718579 1.9103020699505378 70
    endloop
  endfacet
  facet normal -0.8443279255020152 -0.5358267949789964 0
    outer loop
      vertex -5.663118960624632 -4.114496766047312 0
      vertex -6.134146760307044 -3.372275718712008 70
      vertex -6.134146760307044 -3.372275718712008 0
    endloop
  endfacet
  facet normal -0.7705132427757893 -0.6374239897486897 0
    outer loop
      vertex -5.663118960624632 -4.114496766047312 0
      vertex -5.1027803919498815 -4.79182974150082 0
      vertex -5.663118960624632 -4.114496766047312 70
    endloop
  endfacet
  facet normal -0.5877852522924721 -0.8090169943749482 0
    outer loop
      vertex -4.461967928240828 -5.393592699430526 0
      vertex -3.7507875648529776 -5.910295478514104 0
      vertex -3.7507875648529776 -5.910295478514104 70
    endloop
  endfacet
  facet normal -0.6845471059286894 -0.7289686274214109 0
    outer loop
      vertex -4.461967928240828 -5.393592699430526 0
      vertex -4.461967928240828 -5.393592699430526 70
      vertex -5.1027803919498815 -4.79182974150082 0
    endloop
  endfacet
  facet normal 0 0 -1
    outer loop
      vertex -6.50843540121776 -2.576871868792745 0
      vertex -6.7800821279004175 -1.740829210153984 0
      vertex -6.50843540121776 2.576871868792745 0
    endloop
  endfacet
  facet normal 0 0 -1
    outer loop
      vertex -6.7800821279004175 -1.740829210153984 0
      vertex -6.9448029092013455 -0.8773326349501285 0
      vertex -6.7800821279004175 1.740829210153984 0
    endloop
  endfacet
  facet normal 0 0 -1
    outer loop
      vertex -6.134146760307044 -3.372275718712008 0
      vertex -6.50843540121776 -2.576871868792745 0
      vertex -6.134146760307044 3.372275718712008 0
    endloop
  endfacet
  facet normal 0 0 -1
    outer loop
      vertex -5.663118960624632 -4.114496766047312 0
      vertex -6.134146760307044 -3.372275718712008 0
      vertex -5.663118960624632 4.114496766047312 0
    endloop
  endfacet
  facet normal 0 0 -1
    outer loop
      vertex -5.663118960624632 -4.114496766047312 0
      vertex -5.1027803919498815 4.79182974150082 0
      vertex -5.1027803919498815 -4.79182974150082 0
    endloop
  endfacet
  facet normal 0 0 -1
    outer loop
      vertex -4.461967928240828 -5.393592699430526 0
      vertex -3.7507875648529776 5.910295478514104 0
      vertex -3.7507875648529776 -5.910295478514104 0
    endloop
  endfacet
  facet normal 0 0 -1
    outer loop
      vertex -4.461967928240828 -5.393592699430526 0
      vertex -5.1027803919498815 -4.79182974150082 0
      vertex -4.461967928240828 5.393592699430526 0
    endloop
  endfacet
  facet normal -0.9048270524660195 -0.4257792915650727 0
    outer loop
      vertex -6.134146760307044 -3.372275718712008 0
      vertex -6.50843540121776 -2.576871868792745 70
      vertex -6.50843540121776 -2.576871868792745 0
    endloop
  endfacet
  facet normal -0.9510565162951535 -0.3090169943749474 0
    outer loop
      vertex -6.50843540121776 -2.576871868792745 0
      vertex -6.7800821279004175 -1.740829210153984 70
      vertex -6.7800821279004175 -1.740829210153984 0
    endloop
  endfacet
  facet normal -0.9822872507286885 -0.18738131458572532 0
    outer loop
      vertex -6.7800821279004175 -1.740829210153984 0
      vertex -6.9448029092013455 -0.8773326349501285 70
      vertex -6.9448029092013455 -0.8773326349501285 0
    endloop
  endfacet
  facet normal -0.9980267284282716 -0.06279051952931272 0
    outer loop
      vertex -6.9448029092013455 -0.8773326349501285 0
      vertex -7 0 70
      vertex -7 0 0
    endloop
  endfacet
  facet normal 0 0 -1
    outer loop
      vertex -3.7507875648529776 -5.910295478514104 0
      vertex -2.8479967101425565 -1.5656994408305749 0
      vertex -2.980455040955507 -6.333789367262137 0
    endloop
  endfacet
  facet normal 0 0 -1
    outer loop
      vertex -2.980455040955507 -6.333789367262137 0
      vertex -2.0716279666832413 -2.5041680390213155 0
      vertex -2.1631189606246317 -6.657395614066075 0
    endloop
  endfacet
  facet normal 0 0 -1
    outer loop
      vertex -2.980455040955507 -6.333789367262137 0
      vertex -2.369148039119588 -2.224778094268238 0
      vertex -2.0716279666832413 -2.5041680390213155 0
    endloop
  endfacet
  facet normal 0 0 -1
    outer loop
      vertex -2.1631189606246317 -6.657395614066075 0
      vertex -2.0716279666832413 -2.5041680390213155 0
      vertex -1.7414370836817394 -2.7440657578815486 0
    endloop
  endfacet
  facet normal 0 0 -1
    outer loop
      vertex -2.1631189606246317 -6.657395614066075 0
      vertex -1.7414370836817394 -2.7440657578815486 0
      vertex -1.3837826975864855 -2.9406879205145637 0
    endloop
  endfacet
  facet normal 0 0 -1
    outer loop
      vertex -2.1631189606246317 -6.657395614066075 0
      vertex -1.004305231718579 -3.090933677959249 0
      vertex -1.3116692021000738 -6.87601075510082 0
    endloop
  endfacet
  facet normal 0 0 -1
    outer loop
      vertex -1.3116692021000738 -6.87601075510082 0
      vertex -0.20406918847026972 -3.2435868673918824 0
      vertex -0.43953363670519635 -6.986187098997901 0
    endloop
  endfacet
  facet normal 0 0 -1
    outer loop
      vertex -0.43953363670519635 -6.986187098997901 0
      vertex -0.20406918847026972 -3.2435868673918824 0
      vertex 0.43953363670519635 -6.986187098997901 0
    endloop
  endfacet
  facet normal 0 0 -1
    outer loop
      vertex -1.3116692021000738 -6.87601075510082 0
      vertex -1.004305231718579 -3.090933677959249 0
      vertex -0.6089892724036057 -3.192433564868238 0
    endloop
  endfacet
  facet normal 0 0 -1
    outer loop
      vertex -2.1631189606246317 -6.657395614066075 0
      vertex -1.3837826975864855 -2.9406879205145637 0
      vertex -1.004305231718579 -3.090933677959249 0
    endloop
  endfacet
  facet normal 0 0 -1
    outer loop
      vertex -1.3116692021000738 -6.87601075510082 0
      vertex -0.6089892724036057 -3.192433564868238 0
      vertex -0.20406918847026972 -3.2435868673918824 0
    endloop
  endfacet
  facet normal -0.4817536741017149 -0.8763066800438638 0
    outer loop
      vertex -3.7507875648529776 -5.910295478514104 0
      vertex -2.980455040955507 -6.333789367262137 0
      vertex -2.980455040955507 -6.333789367262137 70
    endloop
  endfacet
  facet normal -0.36812455268467814 -0.9297764858882512 0
    outer loop
      vertex -2.980455040955507 -6.333789367262137 0
      vertex -2.1631189606246317 -6.657395614066075 0
      vertex -2.1631189606246317 -6.657395614066075 70
    endloop
  endfacet
  facet normal -0.24868988716485488 -0.9685831611286311 0
    outer loop
      vertex -2.1631189606246317 -6.657395614066075 0
      vertex -1.3116692021000738 -6.87601075510082 0
      vertex -1.3116692021000738 -6.87601075510082 70
    endloop
  endfacet
  facet normal -0.12533323356430495 -0.9921147013144778 0
    outer loop
      vertex -1.3116692021000738 -6.87601075510082 0
      vertex -0.43953363670519635 -6.986187098997901 0
      vertex -0.43953363670519635 -6.986187098997901 70
    endloop
  endfacet
  facet normal 0 0 -1
    outer loop
      vertex -3.7507875648529776 -5.910295478514104 0
      vertex -3.147895273668051 -0.8082421332857783 0
      vertex -3.021773579136817 -1.1964047962252031 0
    endloop
  endfacet
  facet normal 0 0 -1
    outer loop
      vertex -3.7507875648529776 -5.910295478514104 0
      vertex -3.021773579136817 -1.1964047962252031 0
      vertex -2.8479967101425565 -1.5656994408305749 0
    endloop
  endfacet
  facet normal 0 0 -1
    outer loop
      vertex -2.980455040955507 -6.333789367262137 0
      vertex -2.629305231718579 -1.9103020699505378 0
      vertex -2.369148039119588 -2.224778094268238 0
    endloop
  endfacet
  facet normal 0 0 -1
    outer loop
      vertex -2.980455040955507 -6.333789367262137 0
      vertex -2.8479967101425565 -1.5656994408305749 0
      vertex -2.629305231718579 -1.9103020699505378 0
    endloop
  endfacet
  facet normal 0 0 -1
    outer loop
      vertex -3.7507875648529776 -5.910295478514104 0
      vertex -3.224372779272053 -0.40733300908398823 0
      vertex -3.147895273668051 -0.8082421332857783 0
    endloop
  endfacet
  facet normal 0 0 -1
    outer loop
      vertex -3.7507875648529776 -5.910295478514104 0
      vertex -3.25 0 0
      vertex -3.224372779272053 -0.40733300908398823 0
    endloop
  endfacet
  facet normal -0.7705132427757893 -0.6374239897486897 0
    outer loop
      vertex -5.1027803919498815 -4.79182974150082 0
      vertex -5.1027803919498815 -4.79182974150082 70
      vertex -5.663118960624632 -4.114496766047312 70
    endloop
  endfacet
  facet normal -0.8443279255020152 -0.5358267949789964 0
    outer loop
      vertex -5.663118960624632 -4.114496766047312 0
      vertex -5.663118960624632 -4.114496766047312 70
      vertex -6.134146760307044 -3.372275718712008 70
    endloop
  endfacet
  facet normal -0.5877852522924721 -0.8090169943749482 0
    outer loop
      vertex -4.461967928240828 -5.393592699430526 0
      vertex -3.7507875648529776 -5.910295478514104 70
      vertex -4.461967928240828 -5.393592699430526 70
    endloop
  endfacet
  facet normal -0.6845471059286894 -0.7289686274214109 0
    outer loop
      vertex -5.1027803919498815 -4.79182974150082 0
      vertex -4.461967928240828 -5.393592699430526 70
      vertex -5.1027803919498815 -4.79182974150082 70
    endloop
  endfacet
  facet normal -0.9048270524660195 -0.4257792915650727 0
    outer loop
      vertex -6.134146760307044 -3.372275718712008 0
      vertex -6.134146760307044 -3.372275718712008 70
      vertex -6.50843540121776 -2.576871868792745 70
    endloop
  endfacet
  facet normal -0.9510565162951535 -0.3090169943749474 0
    outer loop
      vertex -6.50843540121776 -2.576871868792745 0
      vertex -6.50843540121776 -2.576871868792745 70
      vertex -6.7800821279004175 -1.740829210153984 70
    endloop
  endfacet
  facet normal -0.9822872507286885 -0.18738131458572532 0
    outer loop
      vertex -6.7800821279004175 -1.740829210153984 0
      vertex -6.7800821279004175 -1.740829210153984 70
      vertex -6.9448029092013455 -0.8773326349501285 70
    endloop
  endfacet
  facet normal -0.9980267284282716 -0.06279051952931272 0
    outer loop
      vertex -6.9448029092013455 -0.8773326349501285 0
      vertex -6.9448029092013455 -0.8773326349501285 70
      vertex -7 0 70
    endloop
  endfacet
  facet normal 0 0 1
    outer loop
      vertex -6.134146760307044 -3.372275718712008 70
      vertex -6.50843540121776 2.576871868792745 70
      vertex -6.50843540121776 -2.576871868792745 70
    endloop
  endfacet
  facet normal 0 0 1
    outer loop
      vertex -6.7800821279004175 -1.740829210153984 70
      vertex -6.9448029092013455 0.8773326349501285 70
      vertex -6.9448029092013455 -0.8773326349501285 70
    endloop
  endfacet
  facet normal 0 0 1
    outer loop
      vertex -6.50843540121776 -2.576871868792745 70
      vertex -6.7800821279004175 1.740829210153984 70
      vertex -6.7800821279004175 -1.740829210153984 70
    endloop
  endfacet
  facet normal 0 0 1
    outer loop
      vertex -5.663118960624632 -4.114496766047312 70
      vertex -6.134146760307044 3.372275718712008 70
      vertex -6.134146760307044 -3.372275718712008 70
    endloop
  endfacet
  facet normal 0 0 1
    outer loop
      vertex -5.663118960624632 -4.114496766047312 70
      vertex -5.1027803919498815 -4.79182974150082 70
      vertex -5.663118960624632 4.114496766047312 70
    endloop
  endfacet
  facet normal 0 0 1
    outer loop
      vertex -4.461967928240828 -5.393592699430526 70
      vertex -5.1027803919498815 4.79182974150082 70
      vertex -5.1027803919498815 -4.79182974150082 70
    endloop
  endfacet
  facet normal 0 0 1
    outer loop
      vertex -4.461967928240828 -5.393592699430526 70
      vertex -3.7507875648529776 -5.910295478514104 70
      vertex -4.461967928240828 5.393592699430526 70
    endloop
  endfacet
  facet normal -0.36812455268467814 -0.9297764858882512 0
    outer loop
      vertex -2.980455040955507 -6.333789367262137 0
      vertex -2.1631189606246317 -6.657395614066075 70
      vertex -2.980455040955507 -6.333789367262137 70
    endloop
  endfacet
  facet normal -0.4817536741017149 -0.8763066800438638 0
    outer loop
      vertex -3.7507875648529776 -5.910295478514104 0
      vertex -2.980455040955507 -6.333789367262137 70
      vertex -3.7507875648529776 -5.910295478514104 70
    endloop
  endfacet
  facet normal -0.24868988716485488 -0.9685831611286311 0
    outer loop
      vertex -2.1631189606246317 -6.657395614066075 0
      vertex -1.3116692021000738 -6.87601075510082 70
      vertex -2.1631189606246317 -6.657395614066075 70
    endloop
  endfacet
  facet normal -0.12533323356430495 -0.9921147013144778 0
    outer loop
      vertex -1.3116692021000738 -6.87601075510082 0
      vertex -0.43953363670519635 -6.986187098997901 70
      vertex -1.3116692021000738 -6.87601075510082 70
    endloop
  endfacet
  facet normal 0 -1 0
    outer loop
      vertex -0.43953363670519635 -6.986187098997901 0
      vertex 0.43953363670519635 -6.986187098997901 70
      vertex -0.43953363670519635 -6.986187098997901 70
    endloop
  endfacet
  facet normal 0 0 1
    outer loop
      vertex -2.980455040955507 -6.333789367262137 70
      vertex -2.1631189606246317 -6.657395614066075 70
      vertex -2.629305231718579 -1.9103020699505378 70
    endloop
  endfacet
  facet normal 0 0 1
    outer loop
      vertex -2.1631189606246317 -6.657395614066075 70
      vertex -2.0716279666832413 -2.5041680390213155 70
      vertex -2.369148039119588 -2.224778094268238 70
    endloop
  endfacet
  facet normal 0 0 1
    outer loop
      vertex -2.1631189606246317 -6.657395614066075 70
      vertex -2.369148039119588 -2.224778094268238 70
      vertex -2.629305231718579 -1.9103020699505378 70
    endloop
  endfacet
  facet normal 0 0 1
    outer loop
      vertex -2.1631189606246317 -6.657395614066075 70
      vertex -1.7414370836817394 -2.7440657578815486 70
      vertex -2.0716279666832413 -2.5041680390213155 70
    endloop
  endfacet
  facet normal 0 0 1
    outer loop
      vertex -2.1631189606246317 -6.657395614066075 70
      vertex -1.3116692021000738 -6.87601075510082 70
      vertex -1.7414370836817394 -2.7440657578815486 70
    endloop
  endfacet
  facet normal 0 0 1
    outer loop
      vertex -1.3116692021000738 -6.87601075510082 70
      vertex -0.43953363670519635 -6.986187098997901 70
      vertex -1.004305231718579 -3.090933677959249 70
    endloop
  endfacet
  facet normal 0 0 1
    outer loop
      vertex -1.3116692021000738 -6.87601075510082 70
      vertex -1.3837826975864855 -2.9406879205145637 70
      vertex -1.7414370836817394 -2.7440657578815486 70
    endloop
  endfacet
  facet normal 0 0 1
    outer loop
      vertex -1.3116692021000738 -6.87601075510082 70
      vertex -1.004305231718579 -3.090933677959249 70
      vertex -1.3837826975864855 -2.9406879205145637 70
    endloop
  endfacet
  facet normal 0 0 1
    outer loop
      vertex -0.43953363670519635 -6.986187098997901 70
      vertex -0.6089892724036057 -3.192433564868238 70
      vertex -1.004305231718579 -3.090933677959249 70
    endloop
  endfacet
  facet normal 0 0 1
    outer loop
      vertex -0.43953363670519635 -6.986187098997901 70
      vertex -0.20406918847026972 -3.2435868673918824 70
      vertex -0.6089892724036057 -3.192433564868238 70
    endloop
  endfacet
  facet normal 0 0 1
    outer loop
      vertex -0.43953363670519635 -6.986187098997901 70
      vertex 0.20406918847026972 -3.2435868673918824 70
      vertex -0.20406918847026972 -3.2435868673918824 70
    endloop
  endfacet
  facet normal 0 0 1
    outer loop
      vertex -2.980455040955507 -6.333789367262137 70
      vertex -2.629305231718579 -1.9103020699505378 70
      vertex -2.8479967101425565 -1.5656994408305749 70
    endloop
  endfacet
  facet normal 0 0 1
    outer loop
      vertex -2.980455040955507 -6.333789367262137 70
      vertex -2.8479967101425565 -1.5656994408305749 70
      vertex -3.021773579136817 -1.1964047962252031 70
    endloop
  endfacet
  facet normal 0 0 1
    outer loop
      vertex -2.980455040955507 -6.333789367262137 70
      vertex -3.021773579136817 -1.1964047962252031 70
      vertex -3.147895273668051 -0.8082421332857783 70
    endloop
  endfacet
  facet normal 0 0 1
    outer loop
      vertex -2.980455040955507 -6.333789367262137 70
      vertex -3.147895273668051 -0.8082421332857783 70
      vertex -3.224372779272053 -0.40733300908398823 70
    endloop
  endfacet
  facet normal 0 0 1
    outer loop
      vertex -2.980455040955507 -6.333789367262137 70
      vertex -3.224372779272053 -0.40733300908398823 70
      vertex -3.25 0 70
    endloop
  endfacet
  facet normal 0 0 1
    outer loop
      vertex -3.7507875648529776 -5.910295478514104 70
      vertex -2.980455040955507 -6.333789367262137 70
      vertex -3.7507875648529776 5.910295478514104 70
    endloop
  endfacet
  facet normal 0 0 1
    outer loop
      vertex -2.980455040955507 -6.333789367262137 70
      vertex -3.25 0 70
      vertex -3.7507875648529776 5.910295478514104 70
    endloop
  endfacet
  facet normal 0 0 -1
    outer loop
      vertex -6.9448029092013455 -0.8773326349501285 0
      vertex -7 0 0
      vertex -6.9448029092013455 0.8773326349501285 0
    endloop
  endfacet
  facet normal 0 0 -1
    outer loop
      vertex -6.9448029092013455 -0.8773326349501285 0
      vertex -6.9448029092013455 0.8773326349501285 0
      vertex -6.7800821279004175 1.740829210153984 0
    endloop
  endfacet
  facet normal 0 0 -1
    outer loop
      vertex -6.7800821279004175 -1.740829210153984 0
      vertex -6.7800821279004175 1.740829210153984 0
      vertex -6.50843540121776 2.576871868792745 0
    endloop
  endfacet
  facet normal 0 0 -1
    outer loop
      vertex -6.50843540121776 -2.576871868792745 0
      vertex -6.50843540121776 2.576871868792745 0
      vertex -6.134146760307044 3.372275718712008 0
    endloop
  endfacet
  facet normal 0 0 -1
    outer loop
      vertex -6.134146760307044 -3.372275718712008 0
      vertex -6.134146760307044 3.372275718712008 0
      vertex -5.663118960624632 4.114496766047312 0
    endloop
  endfacet
  facet normal 0 0 -1
    outer loop
      vertex -5.663118960624632 -4.114496766047312 0
      vertex -5.663118960624632 4.114496766047312 0
      vertex -5.1027803919498815 4.79182974150082 0
    endloop
  endfacet
  facet normal 0 0 -1
    outer loop
      vertex -5.1027803919498815 -4.79182974150082 0
      vertex -5.1027803919498815 4.79182974150082 0
      vertex -4.461967928240828 5.393592699430526 0
    endloop
  endfacet
  facet normal 0 0 -1
    outer loop
      vertex -4.461967928240828 -5.393592699430526 0
      vertex -4.461967928240828 5.393592699430526 0
      vertex -3.7507875648529776 5.910295478514104 0
    endloop
  endfacet
  facet normal -0.9980267284282716 0.06279051952931272 0
    outer loop
      vertex -7 0 0
      vertex -6.9448029092013455 0.8773326349501285 70
      vertex -6.9448029092013455 0.8773326349501285 0
    endloop
  endfacet
  facet normal -0.9822872507286885 0.18738131458572532 0
    outer loop
      vertex -6.9448029092013455 0.8773326349501285 0
      vertex -6.7800821279004175 1.740829210153984 70
      vertex -6.7800821279004175 1.740829210153984 0
    endloop
  endfacet
  facet normal -0.9510565162951535 0.3090169943749474 0
    outer loop
      vertex -6.7800821279004175 1.740829210153984 0
      vertex -6.50843540121776 2.576871868792745 70
      vertex -6.50843540121776 2.576871868792745 0
    endloop
  endfacet
  facet normal -0.9048270524660195 0.4257792915650727 0
    outer loop
      vertex -6.50843540121776 2.576871868792745 0
      vertex -6.134146760307044 3.372275718712008 70
      vertex -6.134146760307044 3.372275718712008 0
    endloop
  endfacet
  facet normal -0.8443279255020152 0.5358267949789964 0
    outer loop
      vertex -6.134146760307044 3.372275718712008 0
      vertex -5.663118960624632 4.114496766047312 70
      vertex -5.663118960624632 4.114496766047312 0
    endloop
  endfacet
  facet normal -0.7705132427757893 0.6374239897486897 0
    outer loop
      vertex -5.663118960624632 4.114496766047312 0
      vertex -5.1027803919498815 4.79182974150082 70
      vertex -5.1027803919498815 4.79182974150082 0
    endloop
  endfacet
  facet normal -0.6845471059286894 0.7289686274214109 0
    outer loop
      vertex -5.1027803919498815 4.79182974150082 0
      vertex -5.1027803919498815 4.79182974150082 70
      vertex -4.461967928240828 5.393592699430526 0
    endloop
  endfacet
  facet normal -0.5877852522924721 0.8090169943749482 0
    outer loop
      vertex -4.461967928240828 5.393592699430526 0
      vertex -4.461967928240828 5.393592699430526 70
      vertex -3.7507875648529776 5.910295478514104 0
    endloop
  endfacet
  facet normal 0 0 -1
    outer loop
      vertex -3.7507875648529776 -5.910295478514104 0
      vertex -2.980455040955509 6.333789367262137 0
      vertex -3.25 0 0
    endloop
  endfacet
  facet normal 0 0 -1
    outer loop
      vertex -3.7507875648529776 -5.910295478514104 0
      vertex -3.7507875648529776 5.910295478514104 0
      vertex -2.980455040955509 6.333789367262137 0
    endloop
  endfacet
  facet normal 0 0 -1
    outer loop
      vertex -2.980455040955509 6.333789367262137 0
      vertex -3.224372779272053 0.40733300908398823 0
      vertex -3.25 0 0
    endloop
  endfacet
  facet normal 0 0 -1
    outer loop
      vertex -2.980455040955509 6.333789367262137 0
      vertex -3.147895273668051 0.8082421332857783 0
      vertex -3.224372779272053 0.40733300908398823 0
    endloop
  endfacet
  facet normal 0 0 -1
    outer loop
      vertex -2.980455040955509 6.333789367262137 0
      vertex -3.021773579136817 1.1964047962252031 0
      vertex -3.147895273668051 0.8082421332857783 0
    endloop
  endfacet
  facet normal 0 0 -1
    outer loop
      vertex -2.980455040955509 6.333789367262137 0
      vertex -2.8479967101425565 1.5656994408305749 0
      vertex -3.021773579136817 1.1964047962252031 0
    endloop
  endfacet
  facet normal 0 0 -1
    outer loop
      vertex -2.980455040955509 6.333789367262137 0
      vertex -2.629305231718579 1.9103020699505378 0
      vertex -2.8479967101425565 1.5656994408305749 0
    endloop
  endfacet
  facet normal 0 0 -1
    outer loop
      vertex -2.1631189606246317 6.657395614066075 0
      vertex -2.369148039119588 2.224778094268238 0
      vertex -2.629305231718579 1.9103020699505378 0
    endloop
  endfacet
  facet normal 0 0 -1
    outer loop
      vertex -2.1631189606246317 6.657395614066075 0
      vertex -2.0716279666832413 2.5041680390213155 0
      vertex -2.369148039119588 2.224778094268238 0
    endloop
  endfacet
  facet normal 0 0 -1
    outer loop
      vertex -2.1631189606246317 6.657395614066075 0
      vertex -1.7414370836817394 2.7440657578815486 0
      vertex -2.0716279666832413 2.5041680390213155 0
    endloop
  endfacet
  facet normal 0 0 -1
    outer loop
      vertex -2.980455040955509 6.333789367262137 0
      vertex -2.1631189606246317 6.657395614066075 0
      vertex -2.629305231718579 1.9103020699505378 0
    endloop
  endfacet
  facet normal 0 0 -1
    outer loop
      vertex -1.311669202100072 6.876010755100821 0
      vertex -1.3837826975864864 2.9406879205145633 0
      vertex -1.7414370836817394 2.7440657578815486 0
    endloop
  endfacet
  facet normal 0 0 -1
    outer loop
      vertex -1.311669202100072 6.876010755100821 0
      vertex -1.004305231718579 3.090933677959249 0
      vertex -1.3837826975864864 2.9406879205145633 0
    endloop
  endfacet
  facet normal 0 0 -1
    outer loop
      vertex -0.43953363670519296 6.986187098997901 0
      vertex -0.6089892724036049 3.1924335648682383 0
      vertex -1.004305231718579 3.090933677959249 0
    endloop
  endfacet
  facet normal 0 0 -1
    outer loop
      vertex -0.43953363670519296 6.986187098997901 0
      vertex -0.20406918847026814 3.2435868673918824 0
      vertex -0.6089892724036049 3.1924335648682383 0
    endloop
  endfacet
  facet normal 0 0 -1
    outer loop
      vertex -0.43953363670519296 6.986187098997901 0
      vertex 0.20406918847026725 3.2435868673918824 0
      vertex -0.20406918847026814 3.2435868673918824 0
    endloop
  endfacet
  facet normal 0 0 -1
    outer loop
      vertex -2.1631189606246317 6.657395614066075 0
      vertex -1.311669202100072 6.876010755100821 0
      vertex -1.7414370836817394 2.7440657578815486 0
    endloop
  endfacet
  facet normal 0 0 -1
    outer loop
      vertex -1.311669202100072 6.876010755100821 0
      vertex -0.43953363670519296 6.986187098997901 0
      vertex -1.004305231718579 3.090933677959249 0
    endloop
  endfacet
  facet normal -0.4817536741017157 0.8763066800438634 0
    outer loop
      vertex -3.7507875648529776 5.910295478514104 0
      vertex -3.7507875648529776 5.910295478514104 70
      vertex -2.980455040955509 6.333789367262137 0
    endloop
  endfacet
  facet normal -0.3681245526846774 0.9297764858882516 0
    outer loop
      vertex -2.980455040955509 6.333789367262137 0
      vertex -2.980455040955509 6.333789367262137 70
      vertex -2.1631189606246317 6.657395614066075 0
    endloop
  endfacet
  facet normal -0.24868988716485538 0.9685831611286311 0
    outer loop
      vertex -2.1631189606246317 6.657395614066075 0
      vertex -2.1631189606246317 6.657395614066075 70
      vertex -1.311669202100072 6.876010755100821 0
    endloop
  endfacet
  facet normal -0.12533323356430376 0.9921147013144779 0
    outer loop
      vertex -1.311669202100072 6.876010755100821 0
      vertex -1.311669202100072 6.876010755100821 70
      vertex -0.43953363670519296 6.986187098997901 0
    endloop
  endfacet
  facet normal 0 1 0
    outer loop
      vertex -0.43953363670519296 6.986187098997901 0
      vertex -0.43953363670519296 6.986187098997901 70
      vertex 0.43953363670519296 6.986187098997901 0
    endloop
  endfacet
  facet normal -0.9980267284282716 0.06279051952931272 0
    outer loop
      vertex -7 0 0
      vertex -7 0 70
      vertex -6.9448029092013455 0.8773326349501285 70
    endloop
  endfacet
  facet normal -0.9822872507286885 0.18738131458572532 0
    outer loop
      vertex -6.9448029092013455 0.8773326349501285 0
      vertex -6.9448029092013455 0.8773326349501285 70
      vertex -6.7800821279004175 1.740829210153984 70
    endloop
  endfacet
  facet normal -0.9510565162951535 0.3090169943749474 0
    outer loop
      vertex -6.7800821279004175 1.740829210153984 0
      vertex -6.7800821279004175 1.740829210153984 70
      vertex -6.50843540121776 2.576871868792745 70
    endloop
  endfacet
  facet normal -0.9048270524660195 0.4257792915650727 0
    outer loop
      vertex -6.50843540121776 2.576871868792745 0
      vertex -6.50843540121776 2.576871868792745 70
      vertex -6.134146760307044 3.372275718712008 70
    endloop
  endfacet
  facet normal 0 0 1
    outer loop
      vertex -6.9448029092013455 -0.8773326349501285 70
      vertex -6.9448029092013455 0.8773326349501285 70
      vertex -7 0 70
    endloop
  endfacet
  facet normal 0 0 1
    outer loop
      vertex -6.7800821279004175 -1.740829210153984 70
      vertex -6.7800821279004175 1.740829210153984 70
      vertex -6.9448029092013455 0.8773326349501285 70
    endloop
  endfacet
  facet normal 0 0 1
    outer loop
      vertex -6.50843540121776 -2.576871868792745 70
      vertex -6.50843540121776 2.576871868792745 70
      vertex -6.7800821279004175 1.740829210153984 70
    endloop
  endfacet
  facet normal 0 0 1
    outer loop
      vertex -6.134146760307044 -3.372275718712008 70
      vertex -6.134146760307044 3.372275718712008 70
      vertex -6.50843540121776 2.576871868792745 70
    endloop
  endfacet
  facet normal 0 0 1
    outer loop
      vertex -5.663118960624632 -4.114496766047312 70
      vertex -5.663118960624632 4.114496766047312 70
      vertex -6.134146760307044 3.372275718712008 70
    endloop
  endfacet
  facet normal 0 0 1
    outer loop
      vertex -5.1027803919498815 -4.79182974150082 70
      vertex -5.1027803919498815 4.79182974150082 70
      vertex -5.663118960624632 4.114496766047312 70
    endloop
  endfacet
  facet normal 0 0 1
    outer loop
      vertex -4.461967928240828 -5.393592699430526 70
      vertex -4.461967928240828 5.393592699430526 70
      vertex -5.1027803919498815 4.79182974150082 70
    endloop
  endfacet
  facet normal 0 0 1
    outer loop
      vertex -3.7507875648529776 -5.910295478514104 70
      vertex -3.7507875648529776 5.910295478514104 70
      vertex -4.461967928240828 5.393592699430526 70
    endloop
  endfacet
  facet normal -0.8443279255020152 0.5358267949789964 0
    outer loop
      vertex -6.134146760307044 3.372275718712008 0
      vertex -6.134146760307044 3.372275718712008 70
      vertex -5.663118960624632 4.114496766047312 70
    endloop
  endfacet
  facet normal -0.7705132427757893 0.6374239897486897 0
    outer loop
      vertex -5.663118960624632 4.114496766047312 0
      vertex -5.663118960624632 4.114496766047312 70
      vertex -5.1027803919498815 4.79182974150082 70
    endloop
  endfacet
  facet normal -0.6845471059286894 0.7289686274214109 0
    outer loop
      vertex -4.461967928240828 5.393592699430526 0
      vertex -5.1027803919498815 4.79182974150082 70
      vertex -4.461967928240828 5.393592699430526 70
    endloop
  endfacet
  facet normal -0.5877852522924721 0.8090169943749482 0
    outer loop
      vertex -3.7507875648529776 5.910295478514104 0
      vertex -4.461967928240828 5.393592699430526 70
      vertex -3.7507875648529776 5.910295478514104 70
    endloop
  endfacet
  facet normal 0 0 1
    outer loop
      vertex -3.7507875648529776 5.910295478514104 70
      vertex -3.25 0 70
      vertex -3.224372779272053 0.40733300908398823 70
    endloop
  endfacet
  facet normal 0 0 1
    outer loop
      vertex -3.7507875648529776 5.910295478514104 70
      vertex -3.224372779272053 0.40733300908398823 70
      vertex -3.147895273668051 0.8082421332857783 70
    endloop
  endfacet
  facet normal 0 0 1
    outer loop
      vertex -3.7507875648529776 5.910295478514104 70
      vertex -3.147895273668051 0.8082421332857783 70
      vertex -3.021773579136817 1.1964047962252031 70
    endloop
  endfacet
  facet normal 0 0 1
    outer loop
      vertex -3.7507875648529776 5.910295478514104 70
      vertex -3.021773579136817 1.1964047962252031 70
      vertex -2.8479967101425565 1.5656994408305749 70
    endloop
  endfacet
  facet normal 0 0 1
    outer loop
      vertex -2.980455040955509 6.333789367262137 70
      vertex -2.8479967101425565 1.5656994408305749 70
      vertex -2.629305231718579 1.9103020699505378 70
    endloop
  endfacet
  facet normal 0 0 1
    outer loop
      vertex -2.980455040955509 6.333789367262137 70
      vertex -2.629305231718579 1.9103020699505378 70
      vertex -2.369148039119588 2.224778094268238 70
    endloop
  endfacet
  facet normal -0.4817536741017157 0.8763066800438634 0
    outer loop
      vertex -2.980455040955509 6.333789367262137 0
      vertex -3.7507875648529776 5.910295478514104 70
      vertex -2.980455040955509 6.333789367262137 70
    endloop
  endfacet
  facet normal -0.3681245526846774 0.9297764858882516 0
    outer loop
      vertex -2.1631189606246317 6.657395614066075 0
      vertex -2.980455040955509 6.333789367262137 70
      vertex -2.1631189606246317 6.657395614066075 70
    endloop
  endfacet
  facet normal -0.24868988716485538 0.9685831611286311 0
    outer loop
      vertex -1.311669202100072 6.876010755100821 0
      vertex -2.1631189606246317 6.657395614066075 70
      vertex -1.311669202100072 6.876010755100821 70
    endloop
  endfacet
  facet normal -0.12533323356430376 0.9921147013144779 0
    outer loop
      vertex -0.43953363670519296 6.986187098997901 0
      vertex -1.311669202100072 6.876010755100821 70
      vertex -0.43953363670519296 6.986187098997901 70
    endloop
  endfacet
  facet normal 0 0 1
    outer loop
      vertex -3.7507875648529776 5.910295478514104 70
      vertex -2.8479967101425565 1.5656994408305749 70
      vertex -2.980455040955509 6.333789367262137 70
    endloop
  endfacet
  facet normal 0 0 1
    outer loop
      vertex -2.980455040955509 6.333789367262137 70
      vertex -2.369148039119588 2.224778094268238 70
      vertex -2.0716279666832413 2.5041680390213155 70
    endloop
  endfacet
  facet normal 0 0 1
    outer loop
      vertex -2.1631189606246317 6.657395614066075 70
      vertex -2.0716279666832413 2.5041680390213155 70
      vertex -1.7414370836817394 2.7440657578815486 70
    endloop
  endfacet
  facet normal 0 0 1
    outer loop
      vertex -2.1631189606246317 6.657395614066075 70
      vertex -1.7414370836817394 2.7440657578815486 70
      vertex -1.3837826975864864 2.9406879205145633 70
    endloop
  endfacet
  facet normal 0 0 1
    outer loop
      vertex -2.980455040955509 6.333789367262137 70
      vertex -2.0716279666832413 2.5041680390213155 70
      vertex -2.1631189606246317 6.657395614066075 70
    endloop
  endfacet
  facet normal 0 0 1
    outer loop
      vertex -2.1631189606246317 6.657395614066075 70
      vertex -1.3837826975864864 2.9406879205145633 70
      vertex -1.004305231718579 3.090933677959249 70
    endloop
  endfacet
  facet normal 0 0 1
    outer loop
      vertex -1.311669202100072 6.876010755100821 70
      vertex -1.004305231718579 3.090933677959249 70
      vertex -0.6089892724036049 3.1924335648682383 70
    endloop
  endfacet
  facet normal 0 0 1
    outer loop
      vertex -1.311669202100072 6.876010755100821 70
      vertex -0.6089892724036049 3.1924335648682383 70
      vertex -0.20406918847026725 3.2435868673918824 70
    endloop
  endfacet
  facet normal 0 0 1
    outer loop
      vertex -2.1631189606246317 6.657395614066075 70
      vertex -1.004305231718579 3.090933677959249 70
      vertex -1.311669202100072 6.876010755100821 70
    endloop
  endfacet
  facet normal 0 0 1
    outer loop
      vertex -1.311669202100072 6.876010755100821 70
      vertex -0.20406918847026725 3.2435868673918824 70
      vertex -0.43953363670519296 6.986187098997901 70
    endloop
  endfacet
  facet normal 0 0 1
    outer loop
      vertex -0.43953363670519296 6.986187098997901 70
      vertex -0.20406918847026725 3.2435868673918824 70
      vertex 0.43953363670519296 6.986187098997901 70
    endloop
  endfacet
  facet normal 0 0 -1
    outer loop
      vertex 0.43953363670519635 -6.986187098997901 0
      vertex 1.004305231718579 -3.090933677959249 0
      vertex 1.3116692021000738 -6.87601075510082 0
    endloop
  endfacet
  facet normal 0 0 -1
    outer loop
      vertex 1.3116692021000738 -6.87601075510082 0
      vertex 1.7414370836817377 -2.7440657578815495 0
      vertex 2.1631189606246317 -6.657395614066075 0
    endloop
  endfacet
  facet normal 0 0 -1
    outer loop
      vertex 0.43953363670519635 -6.986187098997901 0
      vertex -0.20406918847026972 -3.2435868673918824 0
      vertex 0.20406918847026972 -3.2435868673918824 0
    endloop
  endfacet
  facet normal 0 0 -1
    outer loop
      vertex 0.43953363670519635 -6.986187098997901 0
      vertex 0.20406918847026972 -3.2435868673918824 0
      vertex 0.6089892724036057 -3.192433564868238 0
    endloop
  endfacet
  facet normal 0 0 -1
    outer loop
      vertex 0.43953363670519635 -6.986187098997901 0
      vertex 0.6089892724036057 -3.192433564868238 0
      vertex 1.004305231718579 -3.090933677959249 0
    endloop
  endfacet
  facet normal 0 0 -1
    outer loop
      vertex 1.3116692021000738 -6.87601075510082 0
      vertex 1.004305231718579 -3.090933677959249 0
      vertex 1.3837826975864855 -2.9406879205145637 0
    endloop
  endfacet
  facet normal 0 0 -1
    outer loop
      vertex 1.3116692021000738 -6.87601075510082 0
      vertex 1.3837826975864855 -2.9406879205145637 0
      vertex 1.7414370836817377 -2.7440657578815495 0
    endloop
  endfacet
  facet normal 0 0 -1
    outer loop
      vertex 2.1631189606246317 -6.657395614066075 0
      vertex 2.629305231718579 -1.9103020699505378 0
      vertex 2.980455040955507 -6.333789367262137 0
    endloop
  endfacet
  facet normal 0 0 -1
    outer loop
      vertex 2.1631189606246317 -6.657395614066075 0
      vertex 1.7414370836817377 -2.7440657578815495 0
      vertex 2.0716279666832422 -2.504168039021314 0
    endloop
  endfacet
  facet normal 0 0 -1
    outer loop
      vertex 2.1631189606246317 -6.657395614066075 0
      vertex 2.0716279666832422 -2.504168039021314 0
      vertex 2.369148039119588 -2.224778094268238 0
    endloop
  endfacet
  facet normal 0 0 -1
    outer loop
      vertex 2.1631189606246317 -6.657395614066075 0
      vertex 2.369148039119588 -2.224778094268238 0
      vertex 2.629305231718579 -1.9103020699505378 0
    endloop
  endfacet
  facet normal 0 -1 0
    outer loop
      vertex -0.43953363670519635 -6.986187098997901 0
      vertex 0.43953363670519635 -6.986187098997901 0
      vertex 0.43953363670519635 -6.986187098997901 70
    endloop
  endfacet
  facet normal 0.12533323356430495 -0.9921147013144778 0
    outer loop
      vertex 0.43953363670519635 -6.986187098997901 0
      vertex 1.3116692021000738 -6.87601075510082 0
      vertex 1.3116692021000738 -6.87601075510082 70
    endloop
  endfacet
  facet normal 0.24868988716485488 -0.9685831611286311 0
    outer loop
      vertex 1.3116692021000738 -6.87601075510082 0
      vertex 2.1631189606246317 -6.657395614066075 0
      vertex 2.1631189606246317 -6.657395614066075 70
    endloop
  endfacet
  facet normal 0.36812455268467814 -0.9297764858882512 0
    outer loop
      vertex 2.1631189606246317 -6.657395614066075 0
      vertex 2.980455040955507 -6.333789367262137 0
      vertex 2.980455040955507 -6.333789367262137 70
    endloop
  endfacet
  facet normal 0.4817536741017144 -0.876306680043864 0
    outer loop
      vertex 2.980455040955507 -6.333789367262137 0
      vertex 3.7507875648529736 -5.910295478514107 0
      vertex 3.7507875648529736 -5.910295478514107 70
    endloop
  endfacet
  facet normal 0 0 -1
    outer loop
      vertex 2.980455040955507 -6.333789367262137 0
      vertex 2.629305231718579 -1.9103020699505378 0
      vertex 2.8479967101425565 -1.5656994408305749 0
    endloop
  endfacet
  facet normal 0 0 -1
    outer loop
      vertex 2.980455040955507 -6.333789367262137 0
      vertex 2.8479967101425565 -1.5656994408305749 0
      vertex 3.0217735791368163 -1.1964047962252047 0
    endloop
  endfacet
  facet normal 0 0 -1
    outer loop
      vertex 2.980455040955507 -6.333789367262137 0
      vertex 3.0217735791368163 -1.1964047962252047 0
      vertex 3.1478952736680514 -0.8082421332857769 0
    endloop
  endfacet
  facet normal 0 0 -1
    outer loop
      vertex 2.980455040955507 -6.333789367262137 0
      vertex 3.1478952736680514 -0.8082421332857769 0
      vertex 3.224372779272053 -0.40733300908398823 0
    endloop
  endfacet
  facet normal 0 0 -1
    outer loop
      vertex 2.980455040955507 -6.333789367262137 0
      vertex 3.7507875648529767 5.910295478514105 0
      vertex 3.7507875648529736 -5.910295478514107 0
    endloop
  endfacet
  facet normal 0 0 -1
    outer loop
      vertex 2.980455040955507 -6.333789367262137 0
      vertex 3.224372779272053 -0.40733300908398823 0
      vertex 3.7507875648529767 5.910295478514105 0
    endloop
  endfacet
  facet normal 0.587785252292473 -0.8090169943749476 0
    outer loop
      vertex 3.7507875648529736 -5.910295478514107 0
      vertex 4.4619679282408296 -5.393592699430523 0
      vertex 4.4619679282408296 -5.393592699430523 70
    endloop
  endfacet
  facet normal 0.6845471059286888 -0.7289686274214114 0
    outer loop
      vertex 4.4619679282408296 -5.393592699430523 0
      vertex 5.1027803919498815 -4.79182974150082 0
      vertex 5.1027803919498815 -4.79182974150082 70
    endloop
  endfacet
  facet normal 0.7705132427757893 -0.6374239897486897 0
    outer loop
      vertex 5.1027803919498815 -4.79182974150082 0
      vertex 5.663118960624632 -4.114496766047312 0
      vertex 5.1027803919498815 -4.79182974150082 70
    endloop
  endfacet
  facet normal 0.8443279255020152 -0.5358267949789964 0
    outer loop
      vertex 5.663118960624632 -4.114496766047312 0
      vertex 6.134146760307044 -3.372275718712008 0
      vertex 5.663118960624632 -4.114496766047312 70
    endloop
  endfacet
  facet normal 0 0 -1
    outer loop
      vertex 3.7507875648529736 -5.910295478514107 0
      vertex 4.461967928240828 5.393592699430524 0
      vertex 4.4619679282408296 -5.393592699430523 0
    endloop
  endfacet
  facet normal 0 0 -1
    outer loop
      vertex 4.4619679282408296 -5.393592699430523 0
      vertex 5.102780391949881 4.7918297415008215 0
      vertex 5.1027803919498815 -4.79182974150082 0
    endloop
  endfacet
  facet normal 0 0 -1
    outer loop
      vertex 5.1027803919498815 -4.79182974150082 0
      vertex 5.663118960624632 4.114496766047312 0
      vertex 5.663118960624632 -4.114496766047312 0
    endloop
  endfacet
  facet normal 0 0 -1
    outer loop
      vertex 5.663118960624632 -4.114496766047312 0
      vertex 6.134146760307045 3.3722757187120074 0
      vertex 6.134146760307044 -3.372275718712008 0
    endloop
  endfacet
  facet normal 0 0 -1
    outer loop
      vertex 6.134146760307044 -3.372275718712008 0
      vertex 6.50843540121776 2.576871868792746 0
      vertex 6.508435401217759 -2.5768718687927485 0
    endloop
  endfacet
  facet normal 0 0 -1
    outer loop
      vertex 6.508435401217759 -2.5768718687927485 0
      vertex 6.7800821279004175 1.7408292101539835 0
      vertex 6.780082127900418 -1.740829210153981 0
    endloop
  endfacet
  facet normal 0 0 -1
    outer loop
      vertex 6.780082127900418 -1.740829210153981 0
      vertex 6.9448029092013455 0.8773326349501298 0
      vertex 6.9448029092013455 -0.8773326349501285 0
    endloop
  endfacet
  facet normal 0.9048270524660191 -0.42577929156507344 0
    outer loop
      vertex 6.134146760307044 -3.372275718712008 0
      vertex 6.508435401217759 -2.5768718687927485 0
      vertex 6.134146760307044 -3.372275718712008 70
    endloop
  endfacet
  facet normal 0.9510565162951536 -0.3090169943749471 0
    outer loop
      vertex 6.508435401217759 -2.5768718687927485 0
      vertex 6.780082127900418 -1.740829210153981 0
      vertex 6.508435401217759 -2.5768718687927485 70
    endloop
  endfacet
  facet normal 0.9822872507286887 -0.18738131458572496 0
    outer loop
      vertex 6.780082127900418 -1.740829210153981 0
      vertex 6.9448029092013455 -0.8773326349501285 0
      vertex 6.780082127900418 -1.740829210153981 70
    endloop
  endfacet
  facet normal 0.9980267284282716 -0.06279051952931272 0
    outer loop
      vertex 6.9448029092013455 -0.8773326349501285 0
      vertex 7 0 0
      vertex 6.9448029092013455 -0.8773326349501285 70
    endloop
  endfacet
  facet normal 0.12533323356430495 -0.9921147013144778 0
    outer loop
      vertex 0.43953363670519635 -6.986187098997901 0
      vertex 1.3116692021000738 -6.87601075510082 70
      vertex 0.43953363670519635 -6.986187098997901 70
    endloop
  endfacet
  facet normal 0.24868988716485488 -0.9685831611286311 0
    outer loop
      vertex 1.3116692021000738 -6.87601075510082 0
      vertex 2.1631189606246317 -6.657395614066075 70
      vertex 1.3116692021000738 -6.87601075510082 70
    endloop
  endfacet
  facet normal 0.36812455268467814 -0.9297764858882512 0
    outer loop
      vertex 2.1631189606246317 -6.657395614066075 0
      vertex 2.980455040955507 -6.333789367262137 70
      vertex 2.1631189606246317 -6.657395614066075 70
    endloop
  endfacet
  facet normal 0.4817536741017144 -0.876306680043864 0
    outer loop
      vertex 2.980455040955507 -6.333789367262137 0
      vertex 3.7507875648529736 -5.910295478514107 70
      vertex 2.980455040955507 -6.333789367262137 70
    endloop
  endfacet
  facet normal 0 0 1
    outer loop
      vertex -0.43953363670519635 -6.986187098997901 70
      vertex 0.43953363670519635 -6.986187098997901 70
      vertex 0.20406918847026972 -3.2435868673918824 70
    endloop
  endfacet
  facet normal 0 0 1
    outer loop
      vertex 0.43953363670519635 -6.986187098997901 70
      vertex 1.3116692021000738 -6.87601075510082 70
      vertex 0.20406918847026972 -3.2435868673918824 70
    endloop
  endfacet
  facet normal 0 0 1
    outer loop
      vertex 1.3116692021000738 -6.87601075510082 70
      vertex 2.1631189606246317 -6.657395614066075 70
      vertex 1.004305231718579 -3.090933677959249 70
    endloop
  endfacet
  facet normal 0 0 1
    outer loop
      vertex 1.3116692021000738 -6.87601075510082 70
      vertex 0.6089892724036057 -3.192433564868238 70
      vertex 0.20406918847026972 -3.2435868673918824 70
    endloop
  endfacet
  facet normal 0 0 1
    outer loop
      vertex 1.3116692021000738 -6.87601075510082 70
      vertex 1.004305231718579 -3.090933677959249 70
      vertex 0.6089892724036057 -3.192433564868238 70
    endloop
  endfacet
  facet normal 0 0 1
    outer loop
      vertex 2.1631189606246317 -6.657395614066075 70
      vertex 1.3837826975864855 -2.9406879205145637 70
      vertex 1.004305231718579 -3.090933677959249 70
    endloop
  endfacet
  facet normal 0 0 1
    outer loop
      vertex 2.1631189606246317 -6.657395614066075 70
      vertex 2.980455040955507 -6.333789367262137 70
      vertex 2.0716279666832422 -2.504168039021314 70
    endloop
  endfacet
  facet normal 0 0 1
    outer loop
      vertex 2.1631189606246317 -6.657395614066075 70
      vertex 1.7414370836817377 -2.7440657578815495 70
      vertex 1.3837826975864855 -2.9406879205145637 70
    endloop
  endfacet
  facet normal 0 0 1
    outer loop
      vertex 2.1631189606246317 -6.657395614066075 70
      vertex 2.0716279666832422 -2.504168039021314 70
      vertex 1.7414370836817377 -2.7440657578815495 70
    endloop
  endfacet
  facet normal 0 0 1
    outer loop
      vertex 2.980455040955507 -6.333789367262137 70
      vertex 2.369148039119588 -2.224778094268238 70
      vertex 2.0716279666832422 -2.504168039021314 70
    endloop
  endfacet
  facet normal 0 0 1
    outer loop
      vertex 2.980455040955507 -6.333789367262137 70
      vertex 3.7507875648529736 -5.910295478514107 70
      vertex 2.8479967101425565 -1.5656994408305749 70
    endloop
  endfacet
  facet normal 0 0 1
    outer loop
      vertex 2.980455040955507 -6.333789367262137 70
      vertex 2.629305231718579 -1.9103020699505378 70
      vertex 2.369148039119588 -2.224778094268238 70
    endloop
  endfacet
  facet normal 0 0 1
    outer loop
      vertex 2.980455040955507 -6.333789367262137 70
      vertex 2.8479967101425565 -1.5656994408305749 70
      vertex 2.629305231718579 -1.9103020699505378 70
    endloop
  endfacet
  facet normal 0 0 1
    outer loop
      vertex 3.7507875648529736 -5.910295478514107 70
      vertex 3.0217735791368163 -1.1964047962252047 70
      vertex 2.8479967101425565 -1.5656994408305749 70
    endloop
  endfacet
  facet normal 0 0 1
    outer loop
      vertex 3.7507875648529736 -5.910295478514107 70
      vertex 3.1478952736680514 -0.8082421332857769 70
      vertex 3.0217735791368163 -1.1964047962252047 70
    endloop
  endfacet
  facet normal 0 0 1
    outer loop
      vertex 3.7507875648529736 -5.910295478514107 70
      vertex 3.224372779272053 -0.40733300908398823 70
      vertex 3.1478952736680514 -0.8082421332857769 70
    endloop
  endfacet
  facet normal 0 0 1
    outer loop
      vertex 3.7507875648529736 -5.910295478514107 70
      vertex 3.25 0 70
      vertex 3.224372779272053 -0.40733300908398823 70
    endloop
  endfacet
  facet normal 0.587785252292473 -0.8090169943749476 0
    outer loop
      vertex 3.7507875648529736 -5.910295478514107 0
      vertex 4.4619679282408296 -5.393592699430523 70
      vertex 3.7507875648529736 -5.910295478514107 70
    endloop
  endfacet
  facet normal 0.6845471059286888 -0.7289686274214114 0
    outer loop
      vertex 4.4619679282408296 -5.393592699430523 0
      vertex 5.1027803919498815 -4.79182974150082 70
      vertex 4.4619679282408296 -5.393592699430523 70
    endloop
  endfacet
  facet normal 0.7705132427757893 -0.6374239897486897 0
    outer loop
      vertex 5.663118960624632 -4.114496766047312 0
      vertex 5.663118960624632 -4.114496766047312 70
      vertex 5.1027803919498815 -4.79182974150082 70
    endloop
  endfacet
  facet normal 0.8443279255020152 -0.5358267949789964 0
    outer loop
      vertex 6.134146760307044 -3.372275718712008 0
      vertex 6.134146760307044 -3.372275718712008 70
      vertex 5.663118960624632 -4.114496766047312 70
    endloop
  endfacet
  facet normal 0.9048270524660191 -0.42577929156507344 0
    outer loop
      vertex 6.508435401217759 -2.5768718687927485 0
      vertex 6.508435401217759 -2.5768718687927485 70
      vertex 6.134146760307044 -3.372275718712008 70
    endloop
  endfacet
  facet normal 0.9510565162951536 -0.3090169943749471 0
    outer loop
      vertex 6.780082127900418 -1.740829210153981 0
      vertex 6.780082127900418 -1.740829210153981 70
      vertex 6.508435401217759 -2.5768718687927485 70
    endloop
  endfacet
  facet normal 0.9822872507286887 -0.18738131458572496 0
    outer loop
      vertex 6.9448029092013455 -0.8773326349501285 0
      vertex 6.9448029092013455 -0.8773326349501285 70
      vertex 6.780082127900418 -1.740829210153981 70
    endloop
  endfacet
  facet normal 0.9980267284282716 -0.06279051952931272 0
    outer loop
      vertex 6.9448029092013455 -0.8773326349501285 70
      vertex 7 0 0
      vertex 7 0 70
    endloop
  endfacet
  facet normal 0 0 1
    outer loop
      vertex 3.7507875648529736 -5.910295478514107 70
      vertex 4.4619679282408296 -5.393592699430523 70
      vertex 3.7507875648529767 5.910295478514105 70
    endloop
  endfacet
  facet normal 0 0 1
    outer loop
      vertex 4.4619679282408296 -5.393592699430523 70
      vertex 5.1027803919498815 -4.79182974150082 70
      vertex 4.461967928240828 5.393592699430524 70
    endloop
  endfacet
  facet normal 0 0 1
    outer loop
      vertex 5.1027803919498815 -4.79182974150082 70
      vertex 5.663118960624632 -4.114496766047312 70
      vertex 5.102780391949881 4.7918297415008215 70
    endloop
  endfacet
  facet normal 0 0 1
    outer loop
      vertex 5.663118960624632 -4.114496766047312 70
      vertex 6.134146760307044 -3.372275718712008 70
      vertex 5.663118960624632 4.114496766047312 70
    endloop
  endfacet
  facet normal 0 0 1
    outer loop
      vertex 6.134146760307044 -3.372275718712008 70
      vertex 6.508435401217759 -2.5768718687927485 70
      vertex 6.134146760307045 3.3722757187120074 70
    endloop
  endfacet
  facet normal 0 0 1
    outer loop
      vertex 6.508435401217759 -2.5768718687927485 70
      vertex 6.780082127900418 -1.740829210153981 70
      vertex 6.50843540121776 2.576871868792746 70
    endloop
  endfacet
  facet normal 0 0 1
    outer loop
      vertex 6.780082127900418 -1.740829210153981 70
      vertex 6.9448029092013455 -0.8773326349501285 70
      vertex 6.7800821279004175 1.7408292101539835 70
    endloop
  endfacet
  facet normal 0 0 -1
    outer loop
      vertex 3.7507875648529767 5.910295478514105 0
      vertex 3.224372779272053 -0.40733300908398823 0
      vertex 3.25 0 0
    endloop
  endfacet
  facet normal 0 0 -1
    outer loop
      vertex 3.7507875648529767 5.910295478514105 0
      vertex 3.25 0 0
      vertex 3.224372779272053 0.40733300908398884 0
    endloop
  endfacet
  facet normal 0 0 -1
    outer loop
      vertex 3.7507875648529767 5.910295478514105 0
      vertex 3.224372779272053 0.40733300908398884 0
      vertex 3.147895273668051 0.8082421332857781 0
    endloop
  endfacet
  facet normal 0 0 -1
    outer loop
      vertex 2.980455040955509 6.333789367262137 0
      vertex 2.8479967101425565 1.5656994408305749 0
      vertex 2.629305231718579 1.9103020699505378 0
    endloop
  endfacet
  facet normal 0 0 -1
    outer loop
      vertex 2.980455040955509 6.333789367262137 0
      vertex 2.629305231718579 1.9103020699505378 0
      vertex 2.3691480391195876 2.2247780942682382 0
    endloop
  endfacet
  facet normal 0 0 -1
    outer loop
      vertex 3.7507875648529767 5.910295478514105 0
      vertex 3.0217735791368168 1.1964047962252033 0
      vertex 2.8479967101425565 1.5656994408305749 0
    endloop
  endfacet
  facet normal 0 0 -1
    outer loop
      vertex 3.7507875648529767 5.910295478514105 0
      vertex 3.147895273668051 0.8082421332857781 0
      vertex 3.0217735791368168 1.1964047962252033 0
    endloop
  endfacet
  facet normal 0 0 -1
    outer loop
      vertex 1.311669202100072 6.876010755100821 0
      vertex 0.6089892724036049 3.1924335648682383 0
      vertex 0.20406918847026725 3.2435868673918824 0
    endloop
  endfacet
  facet normal 0 0 -1
    outer loop
      vertex 2.1631189606246317 6.657395614066075 0
      vertex 1.3837826975864864 2.9406879205145633 0
      vertex 1.004305231718579 3.090933677959249 0
    endloop
  endfacet
  facet normal 0 0 -1
    outer loop
      vertex 1.311669202100072 6.876010755100821 0
      vertex 1.004305231718579 3.090933677959249 0
      vertex 0.6089892724036049 3.1924335648682383 0
    endloop
  endfacet
  facet normal 0 0 -1
    outer loop
      vertex -0.43953363670519296 6.986187098997901 0
      vertex 0.43953363670519296 6.986187098997901 0
      vertex 0.20406918847026725 3.2435868673918824 0
    endloop
  endfacet
  facet normal 0 0 -1
    outer loop
      vertex 0.43953363670519296 6.986187098997901 0
      vertex 1.311669202100072 6.876010755100821 0
      vertex 0.20406918847026725 3.2435868673918824 0
    endloop
  endfacet
  facet normal 0 0 -1
    outer loop
      vertex 1.311669202100072 6.876010755100821 0
      vertex 2.1631189606246317 6.657395614066075 0
      vertex 1.004305231718579 3.090933677959249 0
    endloop
  endfacet
  facet normal 0 0 -1
    outer loop
      vertex 2.1631189606246317 6.657395614066075 0
      vertex 1.7414370836817392 2.744065757881549 0
      vertex 1.3837826975864864 2.9406879205145633 0
    endloop
  endfacet
  facet normal 0 0 -1
    outer loop
      vertex 2.1631189606246317 6.657395614066075 0
      vertex 2.071627966683242 2.5041680390213146 0
      vertex 1.7414370836817392 2.744065757881549 0
    endloop
  endfacet
  facet normal 0 0 -1
    outer loop
      vertex 2.980455040955509 6.333789367262137 0
      vertex 2.3691480391195876 2.2247780942682382 0
      vertex 2.071627966683242 2.5041680390213146 0
    endloop
  endfacet
  facet normal 0 0 -1
    outer loop
      vertex 2.1631189606246317 6.657395614066075 0
      vertex 2.980455040955509 6.333789367262137 0
      vertex 2.071627966683242 2.5041680390213146 0
    endloop
  endfacet
  facet normal 0 0 -1
    outer loop
      vertex 2.980455040955509 6.333789367262137 0
      vertex 3.7507875648529767 5.910295478514105 0
      vertex 2.8479967101425565 1.5656994408305749 0
    endloop
  endfacet
  facet normal 0.12533323356430376 0.9921147013144779 0
    outer loop
      vertex 0.43953363670519296 6.986187098997901 0
      vertex 0.43953363670519296 6.986187098997901 70
      vertex 1.311669202100072 6.876010755100821 0
    endloop
  endfacet
  facet normal 0.24868988716485538 0.9685831611286311 0
    outer loop
      vertex 1.311669202100072 6.876010755100821 0
      vertex 1.311669202100072 6.876010755100821 70
      vertex 2.1631189606246317 6.657395614066075 0
    endloop
  endfacet
  facet normal 0.3681245526846774 0.9297764858882516 0
    outer loop
      vertex 2.1631189606246317 6.657395614066075 0
      vertex 2.1631189606246317 6.657395614066075 70
      vertex 2.980455040955509 6.333789367262137 0
    endloop
  endfacet
  facet normal 0.48175367410171543 0.8763066800438636 0
    outer loop
      vertex 2.980455040955509 6.333789367262137 0
      vertex 2.980455040955509 6.333789367262137 70
      vertex 3.7507875648529767 5.910295478514105 0
    endloop
  endfacet
  facet normal 0 0 -1
    outer loop
      vertex 4.4619679282408296 -5.393592699430523 0
      vertex 4.461967928240828 5.393592699430524 0
      vertex 5.102780391949881 4.7918297415008215 0
    endloop
  endfacet
  facet normal 0 0 -1
    outer loop
      vertex 3.7507875648529736 -5.910295478514107 0
      vertex 3.7507875648529767 5.910295478514105 0
      vertex 4.461967928240828 5.393592699430524 0
    endloop
  endfacet
  facet normal 0 0 -1
    outer loop
      vertex 5.1027803919498815 -4.79182974150082 0
      vertex 5.102780391949881 4.7918297415008215 0
      vertex 5.663118960624632 4.114496766047312 0
    endloop
  endfacet
  facet normal 0 0 -1
    outer loop
      vertex 5.663118960624632 -4.114496766047312 0
      vertex 5.663118960624632 4.114496766047312 0
      vertex 6.134146760307045 3.3722757187120074 0
    endloop
  endfacet
  facet normal 0 0 -1
    outer loop
      vertex 6.134146760307044 -3.372275718712008 0
      vertex 6.134146760307045 3.3722757187120074 0
      vertex 6.50843540121776 2.576871868792746 0
    endloop
  endfacet
  facet normal 0 0 -1
    outer loop
      vertex 6.9448029092013455 -0.8773326349501285 0
      vertex 6.9448029092013455 0.8773326349501298 0
      vertex 7 0 0
    endloop
  endfacet
  facet normal 0 0 -1
    outer loop
      vertex 6.780082127900418 -1.740829210153981 0
      vertex 6.7800821279004175 1.7408292101539835 0
      vertex 6.9448029092013455 0.8773326349501298 0
    endloop
  endfacet
  facet normal 0 0 -1
    outer loop
      vertex 6.508435401217759 -2.5768718687927485 0
      vertex 6.50843540121776 2.576871868792746 0
      vertex 6.7800821279004175 1.7408292101539835 0
    endloop
  endfacet
  facet normal 0.9980267284282716 0.06279051952931264 0
    outer loop
      vertex 7 0 0
      vertex 6.9448029092013455 0.8773326349501298 0
      vertex 7 0 70
    endloop
  endfacet
  facet normal 0.9822872507286885 0.18738131458572568 0
    outer loop
      vertex 6.9448029092013455 0.8773326349501298 0
      vertex 6.7800821279004175 1.7408292101539835 0
      vertex 6.9448029092013455 0.8773326349501298 70
    endloop
  endfacet
  facet normal 0.9510565162951538 0.309016994374947 0
    outer loop
      vertex 6.7800821279004175 1.7408292101539835 0
      vertex 6.50843540121776 2.576871868792746 0
      vertex 6.7800821279004175 1.7408292101539835 70
    endloop
  endfacet
  facet normal 0.9048270524660197 0.4257792915650725 0
    outer loop
      vertex 6.50843540121776 2.576871868792746 0
      vertex 6.134146760307045 3.3722757187120074 0
      vertex 6.50843540121776 2.576871868792746 70
    endloop
  endfacet
  facet normal 0.6845471059286878 0.7289686274214123 0
    outer loop
      vertex 5.102780391949881 4.7918297415008215 0
      vertex 4.461967928240828 5.393592699430524 0
      vertex 4.461967928240828 5.393592699430524 70
    endloop
  endfacet
  facet normal 0.5877852522924737 0.8090169943749471 0
    outer loop
      vertex 3.7507875648529767 5.910295478514105 0
      vertex 3.7507875648529767 5.910295478514105 70
      vertex 4.461967928240828 5.393592699430524 0
    endloop
  endfacet
  facet normal 0.7705132427757896 0.6374239897486893 0
    outer loop
      vertex 5.102780391949881 4.7918297415008215 0
      vertex 5.663118960624632 4.114496766047312 70
      vertex 5.663118960624632 4.114496766047312 0
    endloop
  endfacet
  facet normal 0.8443279255020149 0.5358267949789969 0
    outer loop
      vertex 6.134146760307045 3.3722757187120074 0
      vertex 5.663118960624632 4.114496766047312 0
      vertex 6.134146760307045 3.3722757187120074 70
    endloop
  endfacet
  facet normal 0 0 1
    outer loop
      vertex 3.7507875648529736 -5.910295478514107 70
      vertex 2.980455040955509 6.333789367262137 70
      vertex 3.25 0 70
    endloop
  endfacet
  facet normal 0 0 1
    outer loop
      vertex 3.7507875648529736 -5.910295478514107 70
      vertex 3.7507875648529767 5.910295478514105 70
      vertex 2.980455040955509 6.333789367262137 70
    endloop
  endfacet
  facet normal 0 0 1
    outer loop
      vertex 2.980455040955509 6.333789367262137 70
      vertex 3.224372779272053 0.40733300908398884 70
      vertex 3.25 0 70
    endloop
  endfacet
  facet normal 0 0 1
    outer loop
      vertex 2.980455040955509 6.333789367262137 70
      vertex 3.147895273668051 0.8082421332857781 70
      vertex 3.224372779272053 0.40733300908398884 70
    endloop
  endfacet
  facet normal 0 0 1
    outer loop
      vertex 2.980455040955509 6.333789367262137 70
      vertex 3.0217735791368168 1.1964047962252033 70
      vertex 3.147895273668051 0.8082421332857781 70
    endloop
  endfacet
  facet normal 0 0 1
    outer loop
      vertex 2.980455040955509 6.333789367262137 70
      vertex 2.8479967101425565 1.5656994408305749 70
      vertex 3.0217735791368168 1.1964047962252033 70
    endloop
  endfacet
  facet normal 0 0 1
    outer loop
      vertex 2.980455040955509 6.333789367262137 70
      vertex 2.629305231718579 1.9103020699505378 70
      vertex 2.8479967101425565 1.5656994408305749 70
    endloop
  endfacet
  facet normal 0 1 0
    outer loop
      vertex -0.43953363670519296 6.986187098997901 70
      vertex 0.43953363670519296 6.986187098997901 70
      vertex 0.43953363670519296 6.986187098997901 0
    endloop
  endfacet
  facet normal 0.12533323356430376 0.9921147013144779 0
    outer loop
      vertex 1.311669202100072 6.876010755100821 0
      vertex 0.43953363670519296 6.986187098997901 70
      vertex 1.311669202100072 6.876010755100821 70
    endloop
  endfacet
  facet normal 0.24868988716485538 0.9685831611286311 0
    outer loop
      vertex 2.1631189606246317 6.657395614066075 0
      vertex 1.311669202100072 6.876010755100821 70
      vertex 2.1631189606246317 6.657395614066075 70
    endloop
  endfacet
  facet normal 0.48175367410171543 0.8763066800438636 0
    outer loop
      vertex 3.7507875648529767 5.910295478514105 0
      vertex 2.980455040955509 6.333789367262137 70
      vertex 3.7507875648529767 5.910295478514105 70
    endloop
  endfacet
  facet normal 0.3681245526846774 0.9297764858882516 0
    outer loop
      vertex 2.980455040955509 6.333789367262137 0
      vertex 2.1631189606246317 6.657395614066075 70
      vertex 2.980455040955509 6.333789367262137 70
    endloop
  endfacet
  facet normal 0 0 1
    outer loop
      vertex 0.43953363670519296 6.986187098997901 70
      vertex -0.20406918847026725 3.2435868673918824 70
      vertex 0.20406918847026814 3.2435868673918824 70
    endloop
  endfacet
  facet normal 0 0 1
    outer loop
      vertex 0.43953363670519296 6.986187098997901 70
      vertex 0.20406918847026814 3.2435868673918824 70
      vertex 0.6089892724036049 3.1924335648682383 70
    endloop
  endfacet
  facet normal 0 0 1
    outer loop
      vertex 0.43953363670519296 6.986187098997901 70
      vertex 0.6089892724036049 3.1924335648682383 70
      vertex 1.004305231718579 3.090933677959249 70
    endloop
  endfacet
  facet normal 0 0 1
    outer loop
      vertex 1.311669202100072 6.876010755100821 70
      vertex 1.004305231718579 3.090933677959249 70
      vertex 1.3837826975864864 2.9406879205145633 70
    endloop
  endfacet
  facet normal 0 0 1
    outer loop
      vertex 1.311669202100072 6.876010755100821 70
      vertex 1.3837826975864864 2.9406879205145633 70
      vertex 1.7414370836817392 2.744065757881549 70
    endloop
  endfacet
  facet normal 0 0 1
    outer loop
      vertex 0.43953363670519296 6.986187098997901 70
      vertex 1.004305231718579 3.090933677959249 70
      vertex 1.311669202100072 6.876010755100821 70
    endloop
  endfacet
  facet normal 0 0 1
    outer loop
      vertex 1.311669202100072 6.876010755100821 70
      vertex 1.7414370836817392 2.744065757881549 70
      vertex 2.1631189606246317 6.657395614066075 70
    endloop
  endfacet
  facet normal 0 0 1
    outer loop
      vertex 2.1631189606246317 6.657395614066075 70
      vertex 1.7414370836817392 2.744065757881549 70
      vertex 2.071627966683242 2.5041680390213146 70
    endloop
  endfacet
  facet normal 0 0 1
    outer loop
      vertex 2.1631189606246317 6.657395614066075 70
      vertex 2.3691480391195876 2.2247780942682382 70
      vertex 2.629305231718579 1.9103020699505378 70
    endloop
  endfacet
  facet normal 0 0 1
    outer loop
      vertex 2.1631189606246317 6.657395614066075 70
      vertex 2.071627966683242 2.5041680390213146 70
      vertex 2.3691480391195876 2.2247780942682382 70
    endloop
  endfacet
  facet normal 0 0 1
    outer loop
      vertex 2.1631189606246317 6.657395614066075 70
      vertex 2.629305231718579 1.9103020699505378 70
      vertex 2.980455040955509 6.333789367262137 70
    endloop
  endfacet
  facet normal 0.9980267284282716 0.06279051952931264 0
    outer loop
      vertex 6.9448029092013455 0.8773326349501298 0
      vertex 6.9448029092013455 0.8773326349501298 70
      vertex 7 0 70
    endloop
  endfacet
  facet normal 0.9822872507286885 0.18738131458572568 0
    outer loop
      vertex 6.7800821279004175 1.7408292101539835 0
      vertex 6.7800821279004175 1.7408292101539835 70
      vertex 6.9448029092013455 0.8773326349501298 70
    endloop
  endfacet
  facet normal 0.9510565162951538 0.309016994374947 0
    outer loop
      vertex 6.50843540121776 2.576871868792746 0
      vertex 6.50843540121776 2.576871868792746 70
      vertex 6.7800821279004175 1.7408292101539835 70
    endloop
  endfacet
  facet normal 0.9048270524660197 0.4257792915650725 0
    outer loop
      vertex 6.134146760307045 3.3722757187120074 0
      vertex 6.134146760307045 3.3722757187120074 70
      vertex 6.50843540121776 2.576871868792746 70
    endloop
  endfacet
  facet normal 0 0 1
    outer loop
      vertex 4.4619679282408296 -5.393592699430523 70
      vertex 4.461967928240828 5.393592699430524 70
      vertex 3.7507875648529767 5.910295478514105 70
    endloop
  endfacet
  facet normal 0 0 1
    outer loop
      vertex 5.1027803919498815 -4.79182974150082 70
      vertex 5.102780391949881 4.7918297415008215 70
      vertex 4.461967928240828 5.393592699430524 70
    endloop
  endfacet
  facet normal 0 0 1
    outer loop
      vertex 5.663118960624632 -4.114496766047312 70
      vertex 5.663118960624632 4.114496766047312 70
      vertex 5.102780391949881 4.7918297415008215 70
    endloop
  endfacet
  facet normal 0 0 1
    outer loop
      vertex 6.134146760307044 -3.372275718712008 70
      vertex 6.134146760307045 3.3722757187120074 70
      vertex 5.663118960624632 4.114496766047312 70
    endloop
  endfacet
  facet normal 0 0 1
    outer loop
      vertex 6.9448029092013455 -0.8773326349501285 70
      vertex 7 0 70
      vertex 6.9448029092013455 0.8773326349501298 70
    endloop
  endfacet
  facet normal 0 0 1
    outer loop
      vertex 6.780082127900418 -1.740829210153981 70
      vertex 6.7800821279004175 1.7408292101539835 70
      vertex 6.50843540121776 2.576871868792746 70
    endloop
  endfacet
  facet normal 0 0 1
    outer loop
      vertex 6.9448029092013455 -0.8773326349501285 70
      vertex 6.9448029092013455 0.8773326349501298 70
      vertex 6.7800821279004175 1.7408292101539835 70
    endloop
  endfacet
  facet normal 0 0 1
    outer loop
      vertex 6.508435401217759 -2.5768718687927485 70
      vertex 6.50843540121776 2.576871868792746 70
      vertex 6.134146760307045 3.3722757187120074 70
    endloop
  endfacet
  facet normal 0.6845471059286878 0.7289686274214123 0
    outer loop
      vertex 5.102780391949881 4.7918297415008215 0
      vertex 4.461967928240828 5.393592699430524 70
      vertex 5.102780391949881 4.7918297415008215 70
    endloop
  endfacet
  facet normal 0.5877852522924737 0.8090169943749471 0
    outer loop
      vertex 4.461967928240828 5.393592699430524 0
      vertex 3.7507875648529767 5.910295478514105 70
      vertex 4.461967928240828 5.393592699430524 70
    endloop
  endfacet
  facet normal 0.8443279255020149 0.5358267949789969 0
    outer loop
      vertex 5.663118960624632 4.114496766047312 0
      vertex 5.663118960624632 4.114496766047312 70
      vertex 6.134146760307045 3.3722757187120074 70
    endloop
  endfacet
  facet normal 0.7705132427757896 0.6374239897486893 0
    outer loop
      vertex 5.102780391949881 4.7918297415008215 0
      vertex 5.102780391949881 4.7918297415008215 70
      vertex 5.663118960624632 4.114496766047312 70
    endloop
  endfacet
endsolid OpenSCAD_Model
